<svg width="14" height="14" viewBox="0 0 14 14" fill="none" xmlns="http://www.w3.org/2000/svg">
<path fill-rule="evenodd" clip-rule="evenodd" d="M5.03123 1.73633C4.17461 1.73633 3.45011 2.2902 3.18061 3.05627C2.81029 3.07475 2.45273 3.19749 2.14915 3.41036C1.84557 3.62322 1.60831 3.91754 1.46473 4.25939C1.32442 4.59787 1.28168 4.96887 1.34136 5.33039C0.998314 5.60477 0.736956 5.96784 0.585637 6.38023C0.434318 6.79262 0.398816 7.23857 0.482982 7.6697C0.592912 8.22725 0.896694 8.72787 1.34048 9.08283C1.28985 9.39634 1.31589 9.71744 1.41638 10.0187C1.51688 10.3199 1.68883 10.5924 1.91754 10.8127C2.25986 11.1393 2.70844 11.3316 3.18104 11.3543C3.48729 12.225 4.36054 12.7797 5.28848 12.6576C5.95129 12.5701 6.49511 12.1532 6.78123 11.5893C7.06736 12.1536 7.61117 12.5701 8.27398 12.6576C9.20148 12.7797 10.0756 12.2245 10.3814 11.3543C10.854 11.3316 11.3026 11.1393 11.6449 10.8127C11.8736 10.5924 12.0455 10.3201 12.146 10.0189C12.2465 9.71773 12.2725 9.39671 12.222 9.08326C12.6658 8.72831 12.9696 8.22769 13.0795 7.67014C13.1637 7.23894 13.1283 6.7929 12.977 6.38043C12.8256 5.96795 12.5642 5.6048 12.2211 5.33039C12.278 4.97558 12.2421 4.60545 12.0977 4.25939C11.9542 3.91754 11.7169 3.62322 11.4133 3.41036C11.1097 3.19749 10.7522 3.07475 10.3819 3.05627C10.1124 2.29064 9.38786 1.73633 8.53123 1.73633C7.76561 1.73633 7.10673 2.18083 6.78123 2.82133C6.45573 2.18083 5.79686 1.73633 5.03123 1.73633ZM5.03123 2.17383C5.87954 2.17383 6.56248 2.85633 6.56248 3.70508C6.56232 3.70989 6.56232 3.7147 6.56248 3.71952V10.7051C6.56284 11.0558 6.4426 11.396 6.22193 11.6687C6.00125 11.9413 5.69356 12.1298 5.35043 12.2025C5.0073 12.2752 4.64961 12.2277 4.33731 12.0681C4.02502 11.9084 3.77712 11.6462 3.63517 11.3255C3.68679 11.3158 3.73886 11.308 3.79048 11.2948C3.84658 11.2799 3.89444 11.2432 3.92353 11.193C3.95261 11.1427 3.96054 11.083 3.94558 11.0269C3.93061 10.9708 3.89397 10.9229 3.84371 10.8938C3.79346 10.8647 3.73371 10.8568 3.67761 10.8718C3.42305 10.9397 3.15529 10.9409 2.90013 10.8753C2.64496 10.8097 2.41098 10.6795 2.22073 10.4973C2.06644 10.3484 1.94518 10.1688 1.86484 9.97003C1.78449 9.77127 1.74685 9.55783 1.75436 9.34358C1.90223 9.41927 2.05623 9.48577 2.22073 9.52995C2.27683 9.54504 2.33663 9.53722 2.38697 9.50821C2.4373 9.47921 2.47405 9.4314 2.48914 9.3753C2.50422 9.3192 2.4964 9.2594 2.4674 9.20906C2.43839 9.15873 2.39058 9.12197 2.33448 9.10689C1.99773 9.01726 1.69087 8.83971 1.44534 8.59242C1.19982 8.34513 1.02446 8.03701 0.937243 7.69963C0.850025 7.36224 0.854085 7.00774 0.949006 6.67244C1.04393 6.33714 1.22629 6.03311 1.47742 5.79152C1.57411 6.0177 1.70886 6.22989 1.88911 6.41014C1.90929 6.43103 1.93342 6.4477 1.96011 6.45916C1.9868 6.47063 2.0155 6.47666 2.04455 6.47691C2.0736 6.47717 2.1024 6.47163 2.12928 6.46063C2.15617 6.44963 2.18059 6.43339 2.20113 6.41285C2.22167 6.39231 2.23791 6.36789 2.24891 6.34101C2.25991 6.31412 2.26545 6.28532 2.26519 6.25627C2.26494 6.22723 2.25891 6.19852 2.24744 6.17183C2.23598 6.14514 2.21931 6.12101 2.19842 6.10083C1.99611 5.89869 1.85448 5.64393 1.78956 5.36541C1.72464 5.08689 1.73905 4.79575 1.83113 4.525C1.92322 4.25425 2.08931 4.01471 2.31058 3.83352C2.53185 3.65234 2.79945 3.53676 3.08304 3.49989C3.07561 3.56814 3.06248 3.63464 3.06248 3.70508C3.06248 3.76309 3.08553 3.81873 3.12655 3.85976C3.16758 3.90078 3.22322 3.92383 3.28123 3.92383C3.33925 3.92383 3.39489 3.90078 3.43591 3.85976C3.47693 3.81873 3.49998 3.76309 3.49998 3.70508C3.49998 2.85633 4.18292 2.17383 5.03123 2.17383ZM8.53123 2.17383C9.37955 2.17383 10.0625 2.85633 10.0625 3.70508C10.0625 3.76309 10.0855 3.81873 10.1266 3.85976C10.1676 3.90078 10.2232 3.92383 10.2812 3.92383C10.3392 3.92383 10.3949 3.90078 10.4359 3.85976C10.4769 3.81873 10.5 3.76309 10.5 3.70508C10.5 3.63508 10.4869 3.56814 10.4794 3.49989C10.7632 3.53645 11.031 3.65185 11.2525 3.833C11.474 4.01414 11.6402 4.25376 11.7324 4.52464C11.8245 4.79553 11.8388 5.08682 11.7737 5.36544C11.7086 5.64405 11.5667 5.89883 11.364 6.10083C11.3432 6.12101 11.3265 6.14514 11.315 6.17183C11.3036 6.19852 11.2975 6.22723 11.2973 6.25627C11.297 6.28532 11.3026 6.31412 11.3136 6.34101C11.3246 6.36789 11.3408 6.39231 11.3613 6.41285C11.3819 6.43339 11.4063 6.44963 11.4332 6.46063C11.4601 6.47163 11.4889 6.47717 11.5179 6.47691C11.547 6.47666 11.5757 6.47063 11.6024 6.45916C11.629 6.4477 11.6532 6.43103 11.6734 6.41014C11.8536 6.22989 11.9884 6.0177 12.085 5.79152C12.3362 6.03311 12.5185 6.33714 12.6135 6.67244C12.7084 7.00774 12.7124 7.36224 12.6252 7.69963C12.538 8.03701 12.3626 8.34513 12.1171 8.59242C11.8716 8.83971 11.5647 9.01726 11.228 9.10689C11.2002 9.11436 11.1742 9.12723 11.1514 9.14476C11.1286 9.16229 11.1094 9.18414 11.0951 9.20906C11.0661 9.2594 11.0582 9.3192 11.0733 9.3753C11.0884 9.4314 11.1252 9.47921 11.1755 9.50821C11.2258 9.53722 11.2856 9.54504 11.3417 9.52995C11.5062 9.4862 11.6602 9.41927 11.8081 9.34358C11.8156 9.55783 11.778 9.77127 11.6976 9.97003C11.6173 10.1688 11.496 10.3484 11.3417 10.4973C11.1515 10.6795 10.9175 10.8097 10.6623 10.8753C10.4072 10.9409 10.1394 10.9397 9.88486 10.8718C9.82918 10.8579 9.77028 10.8664 9.72085 10.8956C9.67142 10.9247 9.63542 10.9721 9.62061 11.0276C9.60581 11.083 9.61338 11.1421 9.64169 11.192C9.67001 11.2419 9.7168 11.2787 9.77198 11.2944C9.82361 11.3084 9.87567 11.3158 9.92729 11.325C9.78536 11.6457 9.5375 11.9079 9.22525 12.0676C8.913 12.2273 8.55535 12.2747 8.21225 12.2021C7.86915 12.1294 7.56145 11.941 7.34074 11.6685C7.12003 11.3959 6.99972 11.0558 6.99998 10.7051V3.70508C6.99998 2.8572 7.68292 2.17383 8.53123 2.17383ZM5.00936 2.61133C4.95134 2.61423 4.89685 2.64006 4.85788 2.68313C4.81891 2.72621 4.79864 2.783 4.80154 2.84102C4.80445 2.89903 4.83027 2.95352 4.87335 2.99249C4.91642 3.03146 4.97322 3.05173 5.03123 3.04883C5.39611 3.04883 5.68748 3.33977 5.68748 3.70508C5.68748 3.76309 5.71053 3.81873 5.75155 3.85976C5.79258 3.90078 5.84822 3.92383 5.90623 3.92383C5.96425 3.92383 6.01989 3.90078 6.06091 3.85976C6.10194 3.81873 6.12498 3.76309 6.12498 3.70508C6.12498 3.10352 5.63279 2.61133 5.03123 2.61133C5.02394 2.61096 5.01664 2.61096 5.00936 2.61133ZM8.53123 2.61133C8.24144 2.61225 7.96377 2.72778 7.75885 2.9327C7.55394 3.13762 7.43841 3.41528 7.43748 3.70508C7.43748 3.76309 7.46053 3.81873 7.50155 3.85976C7.54258 3.90078 7.59822 3.92383 7.65623 3.92383C7.71425 3.92383 7.76989 3.90078 7.81091 3.85976C7.85194 3.81873 7.87498 3.76309 7.87498 3.70508C7.87498 3.33977 8.16636 3.04883 8.53123 3.04883C8.58925 3.04883 8.64489 3.02578 8.68591 2.98476C8.72694 2.94373 8.74998 2.88809 8.74998 2.83008C8.74998 2.77206 8.72694 2.71642 8.68591 2.6754C8.64489 2.63437 8.58925 2.61133 8.53123 2.61133ZM3.40942 4.2957C3.37449 4.29533 3.33998 4.30333 3.30877 4.31903C3.27757 4.33474 3.25058 4.35768 3.23006 4.38595C3.20954 4.41423 3.19609 4.447 3.19084 4.48153C3.18558 4.51607 3.18868 4.55136 3.19986 4.58445C3.24536 4.72095 3.31011 4.84783 3.38273 4.96945C3.13109 4.93346 2.87533 4.9376 2.62498 4.9817C2.56789 4.99215 2.51729 5.02484 2.48431 5.07259C2.45133 5.12034 2.43866 5.17924 2.44911 5.23633C2.45955 5.29342 2.49224 5.34402 2.53999 5.377C2.58775 5.40998 2.64664 5.42265 2.70373 5.4122C3.16377 5.3274 3.63897 5.40913 4.04423 5.64277C4.0481 5.64522 4.05203 5.64756 4.05604 5.64977C4.0575 5.65036 4.05895 5.65095 4.06042 5.65152C4.06444 5.65368 4.06852 5.65573 4.07267 5.65764C4.07427 5.65824 4.07587 5.65883 4.07748 5.65939C4.08338 5.66154 4.08936 5.66344 4.09542 5.66508C4.09658 5.66538 4.09775 5.66567 4.09892 5.66595C4.10398 5.6673 4.10909 5.66847 4.11423 5.66945C4.12332 5.6715 4.13252 5.67296 4.14179 5.67383C4.1689 5.67533 4.19605 5.67177 4.22186 5.66333C4.22391 5.66277 4.22595 5.66219 4.22798 5.66158C4.23977 5.65746 4.25119 5.65233 4.26211 5.64627C4.26387 5.64541 4.26562 5.64454 4.26736 5.64364C4.27817 5.63724 4.28842 5.62992 4.29798 5.62177C4.29975 5.62033 4.30151 5.61888 4.30323 5.61739C4.30701 5.61373 4.31066 5.60994 4.31417 5.60602C4.31565 5.60458 4.31711 5.60312 4.31854 5.60164C4.32666 5.59236 4.33398 5.58241 4.34042 5.57189C4.34175 5.57031 4.34307 5.5687 4.34436 5.56708C4.347 5.5625 4.34949 5.55783 4.35179 5.55308C4.35269 5.55148 4.35356 5.54988 4.35442 5.54827C4.35983 5.53671 4.36422 5.52471 4.36754 5.51239C4.368 5.51065 4.36844 5.5089 4.36886 5.50714C4.37023 5.50179 4.3714 5.49639 4.37236 5.49095C4.37268 5.48892 4.37297 5.48687 4.37323 5.48483C4.3749 5.47236 4.37548 5.45977 4.37498 5.4472C4.37501 5.44516 4.37501 5.44312 4.37498 5.44108C4.3746 5.43566 4.37402 5.43026 4.37323 5.42489C4.37296 5.42328 4.37267 5.42168 4.37236 5.42008C4.36918 5.40026 4.36329 5.38098 4.35486 5.36277C4.35386 5.361 4.35284 5.35925 4.35179 5.35752C4.34949 5.35261 4.34701 5.3478 4.34436 5.34308C4.3435 5.34161 4.34262 5.34015 4.34173 5.3387C4.3387 5.33406 4.33549 5.32954 4.33211 5.32514C4.3311 5.32367 4.33008 5.32221 4.32904 5.32077C4.32571 5.31626 4.32221 5.31188 4.31854 5.30764C4.31739 5.30631 4.31623 5.305 4.31504 5.3037C4.31124 5.29991 4.3073 5.29626 4.30323 5.29277C4.30179 5.29158 4.30033 5.29041 4.29886 5.28927C4.29462 5.2856 4.29024 5.2821 4.28573 5.27877C4.28443 5.27773 4.28312 5.27671 4.28179 5.2757C4.27738 5.27262 4.27286 5.2697 4.26823 5.26695C3.96067 5.0787 3.72949 4.78787 3.61548 4.44577C3.6012 4.40227 3.57364 4.36436 3.53667 4.33736C3.4997 4.31036 3.45519 4.29564 3.40942 4.29527V4.2957ZM10.153 4.2957C10.1074 4.29613 10.063 4.31083 10.0262 4.33774C9.98928 4.36465 9.96175 4.40242 9.94742 4.44577C9.8333 4.78793 9.60196 5.07878 9.29423 5.26695C9.29217 5.26838 9.29012 5.26983 9.28811 5.27133C9.2856 5.27274 9.28312 5.2742 9.28067 5.2757C9.2792 5.27671 9.27774 5.27773 9.27629 5.27877C9.27179 5.2821 9.26741 5.2856 9.26317 5.28927C9.26064 5.2914 9.25816 5.29358 9.25573 5.29583C9.25275 5.29837 9.24983 5.301 9.24698 5.3037C9.24594 5.30515 9.24492 5.30661 9.24392 5.30808C9.24025 5.31232 9.23675 5.31669 9.23342 5.3212C9.23038 5.3249 9.22746 5.32869 9.22467 5.33258C9.22315 5.33546 9.22169 5.33838 9.22029 5.34133C9.21785 5.3449 9.21552 5.34855 9.21329 5.35227C9.21208 5.35487 9.21091 5.35749 9.20979 5.36014C9.2089 5.36159 9.20803 5.36305 9.20717 5.36452C9.19866 5.383 9.19277 5.40259 9.18967 5.4227C9.18947 5.42562 9.18932 5.42853 9.18923 5.43145C9.18857 5.43479 9.18799 5.43815 9.18748 5.44152C9.18746 5.44341 9.18746 5.44531 9.18748 5.4472C9.18706 5.46096 9.18794 5.47473 9.19011 5.48833C9.19063 5.49126 9.19121 5.49417 9.19186 5.49708C9.19236 5.50045 9.19295 5.5038 9.19361 5.50714C9.19417 5.5089 9.19475 5.51065 9.19536 5.51239C9.1989 5.52595 9.20373 5.53913 9.20979 5.55177C9.21121 5.55398 9.21267 5.55617 9.21417 5.55833C9.21556 5.56128 9.21702 5.56419 9.21854 5.56708C9.21954 5.5687 9.22056 5.5703 9.22161 5.57189C9.22803 5.58256 9.23534 5.59266 9.24348 5.60208C9.24492 5.60356 9.24638 5.60502 9.24786 5.60645C9.25152 5.61023 9.25531 5.61388 9.25923 5.61739C9.26096 5.61888 9.26271 5.62033 9.26448 5.62177C9.27404 5.62992 9.28429 5.63724 9.29511 5.64364C9.29685 5.64454 9.2986 5.64541 9.30036 5.64627C9.31343 5.65349 9.32721 5.65935 9.34148 5.66377C9.36704 5.67195 9.39388 5.67536 9.42067 5.67383C9.42994 5.67296 9.43915 5.6715 9.44823 5.66945C9.45338 5.66847 9.45848 5.6673 9.46354 5.66595C9.4656 5.6654 9.46764 5.66482 9.46967 5.6642C9.47483 5.66279 9.47994 5.66118 9.48498 5.65939C9.48659 5.65883 9.4882 5.65824 9.48979 5.65764C9.49484 5.65549 9.4998 5.65316 9.50467 5.65064C9.50628 5.64979 9.50789 5.64891 9.50948 5.64802C9.51244 5.64633 9.51536 5.64458 9.51823 5.64277L9.52173 5.64145C9.52232 5.64116 9.5229 5.64087 9.52348 5.64058C9.92754 5.4089 10.4006 5.32799 10.8587 5.4122C10.887 5.41737 10.916 5.41693 10.9441 5.41089C10.9722 5.40485 10.9988 5.39333 11.0225 5.377C11.0461 5.36067 11.0663 5.33984 11.0819 5.3157C11.0975 5.29157 11.1082 5.2646 11.1134 5.23633C11.1185 5.20806 11.1181 5.17905 11.112 5.15096C11.106 5.12286 11.0945 5.09623 11.0782 5.07259C11.0618 5.04895 11.041 5.02875 11.0169 5.01316C10.9927 4.99756 10.9657 4.98687 10.9375 4.9817C10.6871 4.9376 10.4314 4.93346 10.1797 4.96945C10.2524 4.84783 10.3171 4.72095 10.3626 4.58445C10.3738 4.55136 10.3769 4.51607 10.3716 4.48153C10.3664 4.447 10.3529 4.41423 10.3324 4.38595C10.3119 4.35768 10.2849 4.33474 10.2537 4.31903C10.2225 4.30333 10.188 4.29533 10.153 4.2957ZM5.25304 5.12433C5.21512 5.12579 5.17822 5.1371 5.14598 5.15714C5.11375 5.17718 5.08728 5.20526 5.06918 5.23863C5.05109 5.272 5.04199 5.3095 5.04277 5.34745C5.04356 5.3854 5.05421 5.42249 5.07367 5.45508C5.2185 5.7053 5.27661 5.99636 5.23894 6.283C5.20128 6.56965 5.06997 6.83582 4.86542 7.04014C4.84453 7.06032 4.82786 7.08446 4.8164 7.11115C4.80493 7.13783 4.7989 7.16654 4.79865 7.19558C4.79839 7.22463 4.80393 7.25343 4.81493 7.28032C4.82593 7.3072 4.84217 7.33162 4.86271 7.35216C4.88325 7.3727 4.90767 7.38895 4.93455 7.39995C4.96144 7.41094 4.99024 7.41648 5.01929 7.41623C5.04833 7.41597 5.07704 7.40994 5.10373 7.39848C5.13041 7.38701 5.15455 7.37035 5.17473 7.34945C5.44693 7.0768 5.62173 6.72207 5.6721 6.34011C5.72248 5.95815 5.64562 5.57023 5.45342 5.23633C5.43371 5.201 5.40459 5.17182 5.36929 5.15205C5.33399 5.13228 5.29391 5.12268 5.25348 5.12433H5.25304ZM8.28667 5.12433C8.25004 5.1266 8.21458 5.13805 8.18354 5.15762C8.1525 5.17719 8.12688 5.20426 8.10904 5.23633C7.91684 5.57023 7.83999 5.95815 7.89036 6.34011C7.94074 6.72207 8.11554 7.0768 8.38773 7.34945C8.40791 7.37035 8.43205 7.38701 8.45874 7.39848C8.48543 7.40994 8.51413 7.41597 8.54318 7.41623C8.57222 7.41648 8.60103 7.41094 8.62791 7.39995C8.65479 7.38895 8.67922 7.3727 8.69976 7.35216C8.72029 7.33162 8.73654 7.3072 8.74754 7.28032C8.75854 7.25343 8.76407 7.22463 8.76382 7.19558C8.76357 7.16654 8.75753 7.13783 8.74607 7.11115C8.7346 7.08446 8.71794 7.06032 8.69704 7.04014C8.49242 6.83588 8.36103 6.56973 8.32329 6.28308C8.28555 5.99643 8.34358 5.70534 8.48836 5.45508C8.50782 5.42249 8.51847 5.3854 8.51925 5.34745C8.52004 5.3095 8.51094 5.272 8.49284 5.23863C8.47475 5.20526 8.44828 5.17718 8.41604 5.15714C8.38381 5.1371 8.34691 5.12579 8.30898 5.12433C8.3017 5.12396 8.29396 5.12396 8.28667 5.12433ZM1.58811 7.16045C1.58081 7.16038 1.5735 7.16067 1.56623 7.16133C1.53395 7.16385 1.50262 7.17352 1.47453 7.18962C1.44643 7.20572 1.42226 7.22786 1.40376 7.25444C1.38525 7.28102 1.37289 7.31138 1.36754 7.34332C1.3622 7.37526 1.36401 7.40799 1.37286 7.43914C1.45231 7.73609 1.60847 8.00692 1.82567 8.22445C1.84585 8.24535 1.86999 8.26201 1.89667 8.27348C1.92336 8.28494 1.95207 8.29097 1.98111 8.29123C2.01016 8.29148 2.03896 8.28594 2.06585 8.27495C2.09273 8.26395 2.11715 8.2477 2.13769 8.22716C2.15823 8.20662 2.17448 8.1822 2.18547 8.15532C2.19647 8.12843 2.20201 8.09963 2.20176 8.07058C2.2015 8.04154 2.19547 8.01283 2.184 7.98615C2.17254 7.95946 2.15587 7.93532 2.13498 7.91514C1.97197 7.75207 1.85474 7.54898 1.79504 7.32627C1.78347 7.27978 1.75695 7.23838 1.71956 7.20843C1.68218 7.17847 1.636 7.16162 1.58811 7.16045ZM11.9752 7.16045C11.9273 7.16164 11.8811 7.17856 11.8437 7.2086C11.8063 7.23864 11.7798 7.28014 11.7683 7.3267C11.7085 7.54926 11.5913 7.75219 11.4284 7.91514C11.4075 7.93532 11.3908 7.95946 11.3793 7.98615C11.3679 8.01283 11.3618 8.04154 11.3616 8.07058C11.3613 8.09963 11.3669 8.12843 11.3779 8.15532C11.3889 8.1822 11.4051 8.20662 11.4256 8.22716C11.4462 8.2477 11.4706 8.26395 11.4975 8.27495C11.5244 8.28594 11.5532 8.29148 11.5822 8.29123C11.6113 8.29097 11.64 8.28494 11.6667 8.27348C11.6934 8.26201 11.7175 8.24535 11.7377 8.22445C11.9549 8.00692 12.111 7.73609 12.1905 7.43914C12.1993 7.40802 12.2011 7.37533 12.1958 7.34342C12.1905 7.3115 12.1782 7.28117 12.1597 7.2546C12.1413 7.22803 12.1172 7.20588 12.0891 7.18975C12.0611 7.17362 12.0298 7.16391 11.9975 7.16133C11.9903 7.16067 11.9825 7.16038 11.9752 7.16045ZM4.59548 9.17426C4.57555 9.17404 4.55568 9.17654 4.53642 9.1817C4.53613 9.1817 4.53584 9.1817 4.53554 9.1817C4.53379 9.18226 4.53204 9.18285 4.53029 9.18345C4.52513 9.18501 4.52002 9.18676 4.51498 9.1887C4.50409 9.19296 4.49356 9.19808 4.48348 9.20402C4.4829 9.2043 4.48231 9.2046 4.48173 9.20489C4.07647 9.43853 3.60127 9.52026 3.14123 9.43545C3.08397 9.42501 3.0249 9.43774 2.97703 9.47085C2.92916 9.50395 2.89639 9.55472 2.88595 9.61198C2.87551 9.66925 2.88824 9.72831 2.92135 9.77619C2.95445 9.82406 3.00522 9.85682 3.06248 9.86727C3.31492 9.91364 3.56998 9.91189 3.82023 9.8782C3.7454 9.99994 3.68408 10.1295 3.63736 10.2645C3.62828 10.2918 3.62467 10.3206 3.62672 10.3493C3.62878 10.378 3.63647 10.406 3.64934 10.4317C3.66222 10.4574 3.68004 10.4804 3.70178 10.4992C3.72352 10.518 3.74875 10.5324 3.77604 10.5415C3.83116 10.5598 3.8913 10.5555 3.94324 10.5295C3.99517 10.5035 4.03465 10.4579 4.05298 10.4028C4.16629 10.0628 4.39554 9.77277 4.70048 9.58464C4.70166 9.58363 4.70283 9.58261 4.70398 9.58158C4.70442 9.58158 4.70529 9.58158 4.70573 9.5807C4.71036 9.57795 4.71488 9.57504 4.71929 9.57195C4.72077 9.57095 4.72222 9.56993 4.72367 9.56889C4.72817 9.5657 4.73255 9.56235 4.73679 9.55883C4.73812 9.55768 4.73943 9.55651 4.74073 9.55533C4.74481 9.55168 4.74875 9.54789 4.75254 9.54395C4.75284 9.54366 4.75313 9.54337 4.75342 9.54308C4.78265 9.51207 4.80219 9.4732 4.80964 9.43125C4.81709 9.38929 4.81212 9.34607 4.79535 9.3069C4.77857 9.26773 4.75072 9.23431 4.71522 9.21074C4.67971 9.18718 4.63809 9.1745 4.59548 9.17426ZM8.95736 9.17426C8.91553 9.17622 8.87513 9.19013 8.84098 9.21436C8.80682 9.23859 8.78034 9.27212 8.76468 9.31096C8.74901 9.34979 8.74482 9.39231 8.75261 9.43346C8.7604 9.4746 8.77983 9.51265 8.80861 9.54308C8.80905 9.54337 8.80948 9.54366 8.80992 9.54395C8.81136 9.54514 8.81282 9.5463 8.81429 9.54745C8.8219 9.55535 8.83009 9.56266 8.83879 9.56933C8.84514 9.57376 8.85171 9.57784 8.85848 9.58158C9.16526 9.77028 9.39575 10.061 9.50948 10.4028C9.51856 10.4301 9.53292 10.4553 9.55175 10.477C9.57058 10.4988 9.59351 10.5166 9.61923 10.5295C9.64494 10.5423 9.67294 10.55 9.70163 10.5521C9.73032 10.5541 9.75913 10.5505 9.78642 10.5415C9.81371 10.5324 9.83895 10.518 9.86068 10.4992C9.88242 10.4804 9.90024 10.4574 9.91312 10.4317C9.926 10.406 9.93368 10.378 9.93574 10.3493C9.9378 10.3206 9.93419 10.2918 9.92511 10.2645C9.87838 10.1295 9.81706 9.99994 9.74223 9.8782C9.99248 9.91189 10.2475 9.9132 10.5 9.86727C10.5283 9.86209 10.5554 9.85139 10.5796 9.83576C10.6038 9.82013 10.6247 9.79989 10.6411 9.77619C10.6575 9.75248 10.6691 9.72578 10.6751 9.6976C10.6812 9.66943 10.6817 9.64034 10.6765 9.61198C10.6713 9.58363 10.6606 9.55657 10.645 9.53236C10.6294 9.50814 10.6091 9.48724 10.5854 9.47085C10.5617 9.45446 10.535 9.44289 10.5069 9.43682C10.4787 9.43075 10.4496 9.43028 10.4212 9.43545C9.9612 9.52026 9.486 9.43853 9.08073 9.20489C9.08015 9.2046 9.07957 9.2043 9.07898 9.20402C9.06891 9.19808 9.05837 9.19296 9.04748 9.1887C9.04245 9.18676 9.03734 9.18501 9.03217 9.18345C9.03014 9.18284 9.0281 9.18226 9.02604 9.1817C9.02575 9.1817 9.02546 9.1817 9.02517 9.1817C9.01142 9.17816 8.99735 9.17596 8.98317 9.17514C8.97474 9.17436 8.96583 9.17407 8.95736 9.17426ZM5.90273 10.4841C5.84487 10.4851 5.78973 10.5089 5.74938 10.5504C5.70904 10.5919 5.68678 10.6476 5.68748 10.7055C5.68748 11.0704 5.39611 11.3618 5.03123 11.3618C4.97322 11.3618 4.91758 11.3848 4.87655 11.4258C4.83553 11.4669 4.81248 11.5225 4.81248 11.5805C4.81248 11.6385 4.83553 11.6942 4.87655 11.7352C4.91758 11.7762 4.97322 11.7993 5.03123 11.7993C5.63279 11.7993 6.12498 11.3071 6.12498 10.7055C6.12534 10.6763 6.11982 10.6473 6.10877 10.6202C6.09771 10.5931 6.08134 10.5685 6.06062 10.5479C6.0399 10.5272 6.01525 10.511 5.98813 10.5C5.96101 10.4891 5.93197 10.4837 5.90273 10.4841ZM7.63829 10.4841C7.58299 10.4887 7.53147 10.5141 7.49418 10.5552C7.4569 10.5963 7.43663 10.65 7.43748 10.7055C7.43748 11.3071 7.92967 11.7993 8.53123 11.7993C8.58925 11.7993 8.64489 11.7762 8.68591 11.7352C8.72694 11.6942 8.74998 11.6385 8.74998 11.5805C8.74998 11.5225 8.72694 11.4669 8.68591 11.4258C8.64489 11.3848 8.58925 11.3618 8.53123 11.3618C8.16636 11.3618 7.87498 11.0704 7.87498 10.7055C7.87568 10.6476 7.85343 10.5919 7.81308 10.5504C7.77274 10.5089 7.7176 10.4851 7.65973 10.4841C7.65259 10.4838 7.64544 10.4838 7.63829 10.4841Z" fill="#B745B6"/>
</svg>
