<svg width="7" height="7" viewBox="0 0 7 7" fill="none" xmlns="http://www.w3.org/2000/svg">
<g clip-path="url(#clip0_3_4609)">
<path fill-rule="evenodd" clip-rule="evenodd" d="M2.51564 0.867975C2.08732 0.867975 1.72507 1.14491 1.59032 1.52795C1.40516 1.53719 1.22638 1.59856 1.07459 1.70499C0.922797 1.81143 0.804169 1.95859 0.732379 2.12951C0.662221 2.29875 0.640852 2.48425 0.670691 2.66501C0.499169 2.8022 0.36849 2.98374 0.29283 3.18994C0.21717 3.39613 0.199419 3.61911 0.241502 3.83468C0.296468 4.11345 0.448359 4.36376 0.670254 4.54124C0.644936 4.698 0.657957 4.85855 0.708204 5.00918C0.758451 5.1598 0.844429 5.29602 0.958786 5.40618C1.12995 5.5695 1.35424 5.66564 1.59054 5.677C1.74366 6.11231 2.18029 6.38969 2.64426 6.32865C2.97567 6.2849 3.24758 6.07643 3.39064 5.79446C3.5337 6.07665 3.80561 6.2849 4.13702 6.32865C4.60077 6.38969 5.03784 6.11209 5.19074 5.677C5.42704 5.66564 5.65134 5.5695 5.8225 5.40618C5.93682 5.29604 6.02278 5.15986 6.07302 5.00928C6.12327 4.85869 6.13631 4.69818 6.11103 4.54146C6.33292 4.36398 6.48481 4.11367 6.53978 3.83489C6.58191 3.61929 6.56418 3.39627 6.48851 3.19003C6.41285 2.9838 6.28215 2.80222 6.11059 2.66501C6.13903 2.48761 6.12109 2.30254 6.0489 2.12951C5.97711 1.95859 5.85849 1.81143 5.70669 1.70499C5.5549 1.59856 5.37612 1.53719 5.19096 1.52795C5.05621 1.14513 4.69396 0.867975 4.26564 0.867975C3.88283 0.867975 3.55339 1.09023 3.39064 1.41048C3.22789 1.09023 2.89845 0.867975 2.51564 0.867975ZM2.51564 1.08673C2.9398 1.08673 3.28127 1.42798 3.28127 1.85235C3.28119 1.85476 3.28119 1.85717 3.28127 1.85957V5.35237C3.28144 5.52774 3.22133 5.69785 3.11099 5.83416C3.00065 5.97048 2.8468 6.06472 2.67524 6.10107C2.50367 6.13743 2.32482 6.1137 2.16868 6.03386C2.01253 5.95402 1.88858 5.82293 1.8176 5.66256C1.84342 5.65775 1.86945 5.65381 1.89526 5.64725C1.92331 5.63976 1.94724 5.62144 1.96178 5.59631C1.97632 5.57119 1.98029 5.54131 1.97281 5.51326C1.96532 5.48521 1.947 5.46128 1.92187 5.44674C1.89675 5.43219 1.86687 5.42823 1.83882 5.43571C1.71154 5.46967 1.57766 5.47028 1.45008 5.43748C1.3225 5.40469 1.20551 5.33959 1.11038 5.24846C1.03323 5.17404 0.972606 5.08422 0.932432 4.98484C0.892258 4.88546 0.873438 4.77874 0.877192 4.67162C0.95113 4.70946 1.02813 4.74271 1.11038 4.7648C1.13843 4.77235 1.16833 4.76844 1.1935 4.75393C1.21867 4.73943 1.23704 4.71553 1.24458 4.68748C1.25213 4.65942 1.24822 4.62953 1.23371 4.60436C1.21921 4.57919 1.19531 4.56081 1.16726 4.55327C0.99888 4.50846 0.845448 4.41968 0.722685 4.29604C0.599922 4.17239 0.512242 4.01833 0.468634 3.84964C0.425025 3.68094 0.427055 3.50369 0.474515 3.33604C0.521976 3.16839 0.61316 3.01638 0.738723 2.89558C0.787067 3.00867 0.854442 3.11477 0.944568 3.20489C0.954657 3.21534 0.966726 3.22367 0.98007 3.2294C0.993415 3.23513 1.00777 3.23815 1.02229 3.23828C1.03681 3.2384 1.05122 3.23564 1.06466 3.23014C1.0781 3.22464 1.09031 3.21652 1.10058 3.20625C1.11085 3.19598 1.11897 3.18376 1.12447 3.17032C1.12997 3.15688 1.13274 3.14248 1.13261 3.12796C1.13249 3.11343 1.12947 3.09908 1.12374 3.08574C1.118 3.07239 1.10967 3.06032 1.09922 3.05023C0.998071 2.94917 0.927252 2.82178 0.894794 2.68252C0.862336 2.54326 0.869537 2.39769 0.915581 2.26232C0.961625 2.12694 1.04467 2.00717 1.15531 1.91658C1.26594 1.82598 1.39974 1.7682 1.54154 1.74976C1.53782 1.78388 1.53126 1.81713 1.53126 1.85235C1.53126 1.88136 1.54278 1.90918 1.56329 1.92969C1.5838 1.95021 1.61162 1.96173 1.64063 1.96173C1.66964 1.96173 1.69746 1.95021 1.71797 1.92969C1.73849 1.90918 1.75001 1.88136 1.75001 1.85235C1.75001 1.42798 2.09148 1.08673 2.51564 1.08673ZM4.26564 1.08673C4.6898 1.08673 5.03127 1.42798 5.03127 1.85235C5.03127 1.88136 5.0428 1.90918 5.06331 1.92969C5.08382 1.95021 5.11164 1.96173 5.14065 1.96173C5.16966 1.96173 5.19748 1.95021 5.21799 1.92969C5.2385 1.90918 5.25002 1.88136 5.25002 1.85235C5.25002 1.81735 5.24346 1.78388 5.23974 1.74976C5.38163 1.76804 5.51555 1.82574 5.62629 1.91631C5.73704 2.00688 5.82016 2.1267 5.86623 2.26214C5.91229 2.39758 5.91945 2.54323 5.8869 2.68254C5.85435 2.82185 5.78338 2.94923 5.68206 3.05023C5.67161 3.06032 5.66328 3.07239 5.65755 3.08574C5.65181 3.09908 5.6488 3.11343 5.64867 3.12796C5.64854 3.14248 5.65131 3.15688 5.65681 3.17032C5.66231 3.18376 5.67043 3.19598 5.6807 3.20625C5.69097 3.21652 5.70318 3.22464 5.71662 3.23014C5.73007 3.23564 5.74447 3.2384 5.75899 3.23828C5.77351 3.23815 5.78787 3.23513 5.80121 3.2294C5.81456 3.22367 5.82662 3.21534 5.83671 3.20489C5.92684 3.11477 5.99421 3.00867 6.04256 2.89558C6.16812 3.01638 6.25931 3.16839 6.30677 3.33604C6.35423 3.50369 6.35626 3.68094 6.31265 3.84964C6.26904 4.01833 6.18136 4.17239 6.0586 4.29604C5.93583 4.41968 5.7824 4.50846 5.61403 4.55327C5.60014 4.55701 5.58712 4.56344 5.57572 4.57221C5.56431 4.58097 5.55475 4.5919 5.54757 4.60436C5.53307 4.62953 5.52916 4.65942 5.5367 4.68748C5.54424 4.71553 5.56262 4.73943 5.58778 4.75393C5.61295 4.76844 5.64285 4.77235 5.6709 4.7648C5.75315 4.74293 5.83015 4.70946 5.90409 4.67162C5.90784 4.77874 5.88902 4.88546 5.84885 4.98484C5.80868 5.08422 5.74805 5.17404 5.6709 5.24846C5.57577 5.33959 5.45879 5.40469 5.3312 5.43748C5.20362 5.47028 5.06974 5.46967 4.94246 5.43571C4.91462 5.42877 4.88517 5.43305 4.86046 5.44763C4.83574 5.4622 4.81774 5.4859 4.81034 5.51362C4.80293 5.54134 4.80672 5.57086 4.82088 5.59581C4.83503 5.62077 4.85843 5.63916 4.88602 5.64703C4.91184 5.65403 4.93787 5.65775 4.96368 5.66234C4.89271 5.82269 4.76878 5.95378 4.61265 6.03362C4.45653 6.11346 4.2777 6.13721 4.10615 6.10088C3.9346 6.06455 3.78075 5.97035 3.6704 5.83407C3.56004 5.6978 3.49989 5.52772 3.50002 5.35237V1.85235C3.50002 1.42841 3.84149 1.08673 4.26564 1.08673ZM2.5047 1.30548C2.47569 1.30693 2.44845 1.31984 2.42896 1.34138C2.40947 1.36292 2.39934 1.39131 2.40079 1.42032C2.40224 1.44933 2.41516 1.47657 2.4367 1.49606C2.45823 1.51555 2.48663 1.52568 2.51564 1.52423C2.69808 1.52423 2.84376 1.6697 2.84376 1.85235C2.84376 1.88136 2.85529 1.90918 2.8758 1.92969C2.89631 1.95021 2.92413 1.96173 2.95314 1.96173C2.98215 1.96173 3.00997 1.95021 3.03048 1.92969C3.05099 1.90918 3.06251 1.88136 3.06251 1.85235C3.06251 1.55157 2.81642 1.30548 2.51564 1.30548C2.51199 1.30529 2.50834 1.30529 2.5047 1.30548ZM4.26564 1.30548C4.12075 1.30594 3.98191 1.3637 3.87945 1.46616C3.77699 1.56862 3.71923 1.70745 3.71877 1.85235C3.71877 1.88136 3.73029 1.90918 3.7508 1.92969C3.77131 1.95021 3.79913 1.96173 3.82814 1.96173C3.85715 1.96173 3.88497 1.95021 3.90548 1.92969C3.926 1.90918 3.93752 1.88136 3.93752 1.85235C3.93752 1.6697 4.08321 1.52423 4.26564 1.52423C4.29465 1.52423 4.32247 1.5127 4.34298 1.49219C4.3635 1.47168 4.37502 1.44386 4.37502 1.41485C4.37502 1.38584 4.3635 1.35802 4.34298 1.33751C4.32247 1.317 4.29465 1.30548 4.26564 1.30548ZM1.70473 2.14767C1.68726 2.14748 1.67001 2.15148 1.6544 2.15933C1.6388 2.16718 1.62531 2.17866 1.61505 2.19279C1.60479 2.20693 1.59806 2.22332 1.59544 2.24058C1.59281 2.25785 1.59436 2.2755 1.59995 2.29204C1.6227 2.36029 1.65507 2.42373 1.69138 2.48454C1.56556 2.46655 1.43768 2.46862 1.31251 2.49067C1.28396 2.49589 1.25866 2.51224 1.24217 2.53611C1.22568 2.55999 1.21935 2.58944 1.22457 2.61798C1.22979 2.64653 1.24614 2.67183 1.27001 2.68832C1.29389 2.70481 1.32334 2.71114 1.35188 2.70592C1.5819 2.66352 1.8195 2.70438 2.02214 2.8212C2.02407 2.82243 2.02604 2.8236 2.02804 2.8247C2.02877 2.825 2.0295 2.82529 2.03023 2.82558C2.03224 2.82666 2.03428 2.82768 2.03635 2.82864C2.03715 2.82894 2.03795 2.82923 2.03876 2.82951C2.04171 2.83059 2.0447 2.83154 2.04773 2.83236C2.04831 2.83251 2.04889 2.83265 2.04948 2.8328C2.05201 2.83347 2.05456 2.83405 2.05714 2.83455C2.06168 2.83557 2.06628 2.8363 2.07092 2.83673C2.08447 2.83748 2.09805 2.8357 2.11095 2.83148C2.11197 2.83121 2.11299 2.83091 2.11401 2.83061C2.11991 2.82855 2.12561 2.82599 2.13107 2.82295C2.13195 2.82253 2.13283 2.82209 2.1337 2.82164C2.13911 2.81844 2.14423 2.81478 2.14901 2.8107C2.1499 2.80999 2.15077 2.80926 2.15164 2.80851C2.15353 2.80668 2.15535 2.80479 2.1571 2.80283C2.15784 2.80211 2.15857 2.80138 2.15929 2.80064C2.16335 2.796 2.16701 2.79102 2.17023 2.78576C2.1709 2.78497 2.17155 2.78417 2.1722 2.78336C2.17352 2.78107 2.17476 2.77874 2.17592 2.77636C2.17636 2.77556 2.1768 2.77476 2.17723 2.77395C2.17994 2.76818 2.18213 2.76217 2.18379 2.75601C2.18402 2.75514 2.18424 2.75427 2.18445 2.75339C2.18513 2.75071 2.18572 2.74801 2.1862 2.7453C2.18636 2.74428 2.1865 2.74326 2.18664 2.74223C2.18747 2.736 2.18776 2.7297 2.18751 2.72342C2.18752 2.7224 2.18752 2.72138 2.18751 2.72036C2.18732 2.71765 2.18703 2.71495 2.18664 2.71226C2.1865 2.71146 2.18635 2.71066 2.1862 2.70986C2.18461 2.69995 2.18167 2.69031 2.17745 2.6812C2.17695 2.68032 2.17644 2.67944 2.17592 2.67858C2.17477 2.67612 2.17353 2.67372 2.1722 2.67136C2.17177 2.67062 2.17133 2.66989 2.17089 2.66917C2.16937 2.66685 2.16776 2.66459 2.16607 2.66239C2.16557 2.66165 2.16506 2.66092 2.16454 2.6602C2.16288 2.65795 2.16113 2.65576 2.15929 2.65364C2.15872 2.65298 2.15813 2.65232 2.15754 2.65167C2.15564 2.64978 2.15367 2.64795 2.15164 2.6462C2.15091 2.64561 2.15018 2.64503 2.14945 2.64445C2.14733 2.64262 2.14514 2.64087 2.14289 2.6392C2.14223 2.63868 2.14158 2.63817 2.14092 2.63767C2.13871 2.63613 2.13645 2.63467 2.13414 2.63329C1.98036 2.53917 1.86476 2.39375 1.80776 2.2227C1.80062 2.20095 1.78684 2.18199 1.76835 2.16849C1.74987 2.15499 1.72762 2.14763 1.70473 2.14745V2.14767ZM5.07655 2.14767C5.05373 2.14788 5.03155 2.15523 5.01311 2.16869C4.99467 2.18214 4.98091 2.20103 4.97374 2.2227C4.91668 2.39378 4.80101 2.53921 4.64715 2.63329C4.64611 2.63401 4.64509 2.63474 4.64408 2.63548C4.64283 2.63619 4.64159 2.63692 4.64037 2.63767C4.63963 2.63817 4.6389 2.63868 4.63818 2.6392C4.63592 2.64087 4.63373 2.64262 4.63162 2.64445C4.63035 2.64552 4.62911 2.64661 4.6279 2.64773C4.6264 2.64901 4.62494 2.65032 4.62352 2.65167C4.623 2.65239 4.62249 2.65312 4.62199 2.65386C4.62016 2.65598 4.61841 2.65817 4.61674 2.66042C4.61522 2.66227 4.61376 2.66416 4.61237 2.66611C4.6116 2.66755 4.61087 2.66901 4.61018 2.67048C4.60896 2.67227 4.60779 2.67409 4.60668 2.67595C4.60607 2.67725 4.60549 2.67856 4.60493 2.67989C4.60448 2.68061 4.60404 2.68134 4.60362 2.68208C4.59936 2.69132 4.59641 2.70111 4.59486 2.71117C4.59476 2.71263 4.59469 2.71409 4.59465 2.71555C4.59432 2.71722 4.59402 2.71889 4.59377 2.72058C4.59376 2.72152 4.59376 2.72247 4.59377 2.72342C4.59356 2.7303 4.594 2.73719 4.59508 2.74398C4.59535 2.74545 4.59564 2.74691 4.59596 2.74836C4.59621 2.75004 4.5965 2.75172 4.59683 2.75339C4.59711 2.75427 4.59741 2.75514 4.59771 2.75601C4.59948 2.76279 4.6019 2.76939 4.60493 2.7757C4.60564 2.77681 4.60637 2.7779 4.60712 2.77898C4.60781 2.78046 4.60854 2.78192 4.6093 2.78336C4.6098 2.78417 4.61031 2.78497 4.61083 2.78576C4.61404 2.7911 4.6177 2.79615 4.62177 2.80086C4.62249 2.8016 4.62322 2.80233 4.62396 2.80305C4.62579 2.80494 4.62769 2.80676 4.62965 2.80851C4.63051 2.80926 4.63139 2.80999 4.63227 2.8107C4.63705 2.81478 4.64218 2.81844 4.64758 2.82164C4.64845 2.82209 4.64933 2.82253 4.65021 2.82295C4.65675 2.82656 4.66364 2.82949 4.67077 2.8317C4.68355 2.83579 4.69697 2.8375 4.71037 2.83673C4.715 2.8363 4.7196 2.83557 4.72415 2.83455C4.72672 2.83405 4.72927 2.83347 4.7318 2.8328C4.73283 2.83252 4.73385 2.83223 4.73487 2.83192C4.73745 2.83121 4.74 2.83041 4.74252 2.82951C4.74333 2.82923 4.74413 2.82894 4.74493 2.82864C4.74745 2.82757 4.74993 2.8264 4.75237 2.82514C4.75317 2.82471 4.75398 2.82427 4.75477 2.82383C4.75625 2.82299 4.75771 2.82211 4.75915 2.8212L4.7609 2.82055C4.76119 2.8204 4.76148 2.82026 4.76177 2.82011C4.9638 2.70427 5.20036 2.66381 5.4294 2.70592C5.44353 2.70851 5.45804 2.70828 5.47208 2.70526C5.48613 2.70224 5.49945 2.69648 5.51127 2.68832C5.52309 2.68015 5.53319 2.66974 5.54099 2.65767C5.54878 2.6456 5.55413 2.63212 5.55671 2.61798C5.5593 2.60385 5.55907 2.58934 5.55605 2.5753C5.55303 2.56125 5.54728 2.54794 5.53911 2.53611C5.53095 2.52429 5.52053 2.51419 5.50846 2.5064C5.49639 2.4986 5.48291 2.49325 5.46878 2.49067C5.3436 2.46862 5.21572 2.46655 5.0899 2.48454C5.12621 2.42373 5.15859 2.36029 5.18134 2.29204C5.18693 2.2755 5.18847 2.25785 5.18585 2.24058C5.18322 2.22332 5.17649 2.20693 5.16623 2.19279C5.15597 2.17866 5.14248 2.16718 5.12688 2.15933C5.11128 2.15148 5.09402 2.14748 5.07655 2.14767ZM2.62654 2.56198C2.60758 2.56271 2.58913 2.56837 2.57301 2.57839C2.55689 2.58841 2.54366 2.60245 2.53461 2.61913C2.52557 2.63582 2.52101 2.65457 2.52141 2.67354C2.5218 2.69252 2.52712 2.71106 2.53686 2.72736C2.60927 2.85247 2.63832 2.998 2.61949 3.14132C2.60066 3.28465 2.53501 3.41773 2.43273 3.51989C2.42228 3.52998 2.41395 3.54205 2.40822 3.5554C2.40249 3.56874 2.39947 3.58309 2.39934 3.59761C2.39922 3.61214 2.40198 3.62654 2.40748 3.63998C2.41298 3.65342 2.42111 3.66564 2.43137 3.6759C2.44164 3.68617 2.45386 3.6943 2.4673 3.6998C2.48074 3.7053 2.49514 3.70806 2.50967 3.70794C2.52419 3.70781 2.53854 3.70479 2.55188 3.69906C2.56523 3.69333 2.5773 3.685 2.58739 3.67455C2.72349 3.53822 2.81089 3.36086 2.83607 3.16987C2.86126 2.97889 2.82283 2.78493 2.72673 2.61798C2.71688 2.60032 2.70232 2.58573 2.68467 2.57584C2.66702 2.56596 2.64697 2.56116 2.62676 2.56198H2.62654ZM4.14336 2.56198C4.12505 2.56312 4.10732 2.56884 4.0918 2.57863C4.07628 2.58841 4.06347 2.60195 4.05455 2.61798C3.95845 2.78493 3.92002 2.97889 3.94521 3.16987C3.9704 3.36086 4.0578 3.53822 4.19389 3.67455C4.20398 3.685 4.21605 3.69333 4.2294 3.69906C4.24274 3.70479 4.25709 3.70781 4.27162 3.70794C4.28614 3.70806 4.30054 3.7053 4.31398 3.6998C4.32743 3.6943 4.33964 3.68617 4.34991 3.6759C4.36018 3.66564 4.3683 3.65342 4.3738 3.63998C4.3793 3.62654 4.38206 3.61214 4.38194 3.59761C4.38181 3.58309 4.37879 3.56874 4.37306 3.5554C4.36733 3.54205 4.359 3.52998 4.34855 3.51989C4.24624 3.41776 4.18054 3.28469 4.16167 3.14136C4.1428 2.99803 4.17182 2.85249 4.24421 2.72736C4.25394 2.71106 4.25926 2.69252 4.25966 2.67354C4.26005 2.65457 4.2555 2.63582 4.24645 2.61913C4.2374 2.60245 4.22417 2.58841 4.20805 2.57839C4.19193 2.56837 4.17348 2.56271 4.15452 2.56198C4.15088 2.5618 4.14701 2.5618 4.14336 2.56198ZM0.794067 3.58005C0.790416 3.58001 0.786766 3.58016 0.783129 3.58049C0.766986 3.58175 0.751325 3.58658 0.737276 3.59463C0.723228 3.60268 0.711142 3.61375 0.701891 3.62704C0.692641 3.64033 0.686456 3.65551 0.683785 3.67148C0.681113 3.68745 0.68202 3.70382 0.686442 3.71939C0.72617 3.86787 0.804251 4.00328 0.912849 4.11205C0.922938 4.1225 0.935007 4.13083 0.948352 4.13656C0.961696 4.14229 0.976048 4.14531 0.990571 4.14544C1.00509 4.14556 1.0195 4.1428 1.03294 4.1373C1.04638 4.1318 1.05859 4.12368 1.06886 4.11341C1.07913 4.10314 1.08725 4.09093 1.09275 4.07748C1.09825 4.06404 1.10102 4.04964 1.10089 4.03512C1.10077 4.02059 1.09775 4.00624 1.09202 3.9929C1.08628 3.97955 1.07795 3.96748 1.06751 3.95739C0.986002 3.87586 0.927383 3.77431 0.897536 3.66296C0.891747 3.63971 0.878488 3.61901 0.859796 3.60404C0.841104 3.58906 0.818012 3.58063 0.794067 3.58005ZM5.98765 3.58005C5.96368 3.58064 5.94056 3.5891 5.92187 3.60412C5.90317 3.61914 5.88993 3.63989 5.88418 3.66317C5.8543 3.77445 5.79568 3.87592 5.71421 3.95739C5.70377 3.96748 5.69543 3.97955 5.6897 3.9929C5.68397 4.00624 5.68095 4.02059 5.68083 4.03512C5.6807 4.04964 5.68347 4.06404 5.68897 4.07748C5.69447 4.09093 5.70259 4.10314 5.71286 4.11341C5.72313 4.12368 5.73534 4.1318 5.74878 4.1373C5.76222 4.1428 5.77663 4.14556 5.79115 4.14544C5.80567 4.14531 5.82002 4.14229 5.83337 4.13656C5.84671 4.13083 5.85878 4.1225 5.86887 4.11205C5.97747 4.00328 6.05555 3.86787 6.09528 3.71939C6.0997 3.70383 6.10061 3.68749 6.09795 3.67153C6.09529 3.65558 6.08913 3.64041 6.0799 3.62712C6.07067 3.61384 6.05861 3.60276 6.04459 3.5947C6.03057 3.58663 6.01493 3.58178 5.99881 3.58049C5.99517 3.58016 5.9913 3.58001 5.98765 3.58005ZM2.29776 4.58696C2.28779 4.58685 2.27786 4.5881 2.26823 4.59068C2.26808 4.59068 2.26794 4.59068 2.26779 4.59068C2.26691 4.59096 2.26604 4.59125 2.26517 4.59155C2.26258 4.59233 2.26003 4.59321 2.25751 4.59418C2.25206 4.59631 2.2468 4.59887 2.24176 4.60183C2.24147 4.60198 2.24118 4.60212 2.24089 4.60227C2.03825 4.71909 1.80065 4.75996 1.57063 4.71755C1.542 4.71233 1.51247 4.7187 1.48853 4.73525C1.46459 4.7518 1.44821 4.77719 1.44299 4.80582C1.43777 4.83445 1.44414 4.86398 1.46069 4.88792C1.47724 4.91186 1.50263 4.92824 1.53126 4.93346C1.65748 4.95665 1.78501 4.95577 1.91013 4.93893C1.87272 4.9998 1.84206 5.06457 1.8187 5.13209C1.81416 5.14573 1.81235 5.16014 1.81338 5.17448C1.81441 5.18882 1.81825 5.20282 1.82469 5.21568C1.83113 5.22854 1.84004 5.24001 1.85091 5.24942C1.86178 5.25884 1.8744 5.26602 1.88804 5.27056C1.9156 5.27972 1.94567 5.27757 1.97164 5.26456C1.9976 5.25156 2.01734 5.22877 2.02651 5.20121C2.08317 5.03124 2.19779 4.88621 2.35026 4.79215C2.35085 4.79164 2.35143 4.79113 2.35201 4.79062C2.35223 4.79062 2.35267 4.79062 2.35289 4.79018C2.3552 4.7888 2.35746 4.78735 2.35967 4.7858C2.3604 4.7853 2.36113 4.78479 2.36186 4.78427C2.36411 4.78268 2.36629 4.781 2.36842 4.77924C2.36908 4.77867 2.36974 4.77808 2.37039 4.77749C2.37243 4.77567 2.3744 4.77377 2.37629 4.7718C2.37644 4.77166 2.37658 4.77151 2.37673 4.77137C2.39135 4.75586 2.40112 4.73643 2.40484 4.71545C2.40857 4.69447 2.40608 4.67286 2.39769 4.65328C2.38931 4.63369 2.37538 4.61698 2.35763 4.6052C2.33987 4.59342 2.31907 4.58708 2.29776 4.58696ZM4.47871 4.58696C4.45779 4.58793 4.4376 4.59489 4.42052 4.60701C4.40344 4.61912 4.3902 4.63589 4.38237 4.6553C4.37453 4.67472 4.37244 4.69598 4.37633 4.71656C4.38023 4.73713 4.38995 4.75615 4.40433 4.77137C4.40455 4.77151 4.40477 4.77166 4.40499 4.7718C4.40571 4.7724 4.40644 4.77298 4.40718 4.77355C4.41098 4.7775 4.41507 4.78116 4.41943 4.78449C4.4226 4.78671 4.42588 4.78875 4.42927 4.79062C4.58266 4.88497 4.69791 5.03034 4.75477 5.20121C4.75931 5.21486 4.76649 5.22748 4.77591 5.23834C4.78532 5.24921 4.79679 5.25812 4.80964 5.26456C4.8225 5.271 4.8365 5.27484 4.85085 5.27587C4.86519 5.2769 4.8796 5.27509 4.89324 5.27056C4.90689 5.26602 4.9195 5.25884 4.93037 5.24942C4.94124 5.24001 4.95015 5.22854 4.95659 5.21568C4.96303 5.20282 4.96687 5.18882 4.9679 5.17448C4.96893 5.16014 4.96712 5.14573 4.96259 5.13209C4.93922 5.06457 4.90856 4.9998 4.87115 4.93893C4.99627 4.95577 5.1238 4.95643 5.25002 4.93346C5.2642 4.93088 5.27773 4.92552 5.28984 4.91771C5.30195 4.9099 5.3124 4.89977 5.32059 4.88792C5.32879 4.87607 5.33457 4.86272 5.33761 4.84863C5.34064 4.83454 5.34088 4.82 5.33829 4.80582C5.3357 4.79164 5.33035 4.77811 5.32254 4.76601C5.31472 4.7539 5.3046 4.74345 5.29275 4.73525C5.2809 4.72706 5.26755 4.72127 5.25346 4.71824C5.23937 4.7152 5.22483 4.71497 5.21065 4.71755C4.98063 4.75996 4.74303 4.71909 4.5404 4.60227C4.54011 4.60212 4.53981 4.60198 4.53952 4.60183C4.53448 4.59887 4.52922 4.59631 4.52377 4.59418C4.52125 4.59321 4.5187 4.59233 4.51611 4.59155C4.5151 4.59125 4.51408 4.59095 4.51305 4.59068C4.51291 4.59068 4.51276 4.59068 4.51261 4.59068C4.50574 4.58891 4.4987 4.58781 4.49162 4.5874C4.4874 4.58701 4.48294 4.58686 4.47871 4.58696ZM2.95139 5.2419C2.92246 5.24236 2.89489 5.25427 2.87471 5.27501C2.85454 5.29576 2.84341 5.32365 2.84376 5.35259C2.84376 5.53503 2.69808 5.68071 2.51564 5.68071C2.48663 5.68071 2.45881 5.69224 2.4383 5.71275C2.41779 5.73326 2.40626 5.76108 2.40626 5.79009C2.40626 5.8191 2.41779 5.84692 2.4383 5.86743C2.45881 5.88794 2.48663 5.89946 2.51564 5.89946C2.81642 5.89946 3.06251 5.65337 3.06251 5.35259C3.06269 5.33797 3.05994 5.32346 3.05441 5.30992C3.04888 5.29638 3.04069 5.28409 3.03033 5.27377C3.01997 5.26345 3.00765 5.25531 2.99409 5.24984C2.98053 5.24436 2.96601 5.24166 2.95139 5.2419ZM3.81917 5.2419C3.79152 5.24417 3.76576 5.25687 3.74712 5.27742C3.72848 5.29797 3.71834 5.32484 3.71877 5.35259C3.71877 5.65337 3.96486 5.89946 4.26564 5.89946C4.29465 5.89946 4.32247 5.88794 4.34298 5.86743C4.3635 5.84692 4.37502 5.8191 4.37502 5.79009C4.37502 5.76108 4.3635 5.73326 4.34298 5.71275C4.32247 5.69224 4.29465 5.68071 4.26564 5.68071C4.08321 5.68071 3.93752 5.53503 3.93752 5.35259C3.93787 5.32365 3.92674 5.29576 3.90657 5.27501C3.8864 5.25427 3.85883 5.24236 3.82989 5.2419C3.82632 5.24172 3.82274 5.24172 3.81917 5.2419Z" fill="#B745B6"/>
</g>
<defs>
<clipPath id="clip0_3_4609">
<rect width="6.72" height="6.72" fill="white" transform="scale(1.04167)"/>
</clipPath>
</defs>
</svg>
