<svg width="58" height="58" viewBox="0 0 58 58" fill="none" xmlns="http://www.w3.org/2000/svg">
<mask id="mask0_3_3600" style="mask-type:luminance" maskUnits="userSpaceOnUse" x="-2" y="-2" width="62" height="62">
<path d="M59.4864 -1.91873H-1.91893V59.4866H59.4864V-1.91873Z" fill="white"/>
</mask>
<g mask="url(#mask0_3_3600)">
<path fill-rule="evenodd" clip-rule="evenodd" d="M41.4077 2.72872C36.9389 0.560086 32.0642 -0.173294 27.2393 0.0334749C26.343 0.0718843 25.6475 0.829617 25.6859 1.72592C25.7244 2.62222 26.4821 3.31767 27.3784 3.27926C31.789 3.09025 36.1052 3.76659 39.9893 5.65151C43.9249 7.56141 47.3514 10.4252 49.9707 13.9991C50.501 14.7227 51.5175 14.8794 52.2411 14.3491C52.9648 13.8188 53.1215 12.8022 52.5911 12.0787C49.6624 8.08251 45.825 4.87235 41.4077 2.72872ZM56.4435 18.7717C56.1652 17.9188 55.2483 17.453 54.3954 17.7312C53.5426 18.0095 53.0767 18.9264 53.3549 19.7793C55.0558 24.9926 55.0713 29.6877 54.105 35.1893C53.9499 36.0729 54.5403 36.915 55.424 37.0702C56.3076 37.2254 57.1498 36.6349 57.305 35.7513C58.3365 29.8785 58.3522 24.6209 56.4435 18.7717ZM6.10203 43.5324C6.83152 43.0103 7.84616 43.1783 8.36836 43.9078C10.3998 46.7458 13.0276 49.1303 16.0784 50.9005C19.1294 52.6709 22.5325 53.7858 26.0612 54.1694C29.59 54.5532 33.1615 54.1965 36.5374 53.124C40.0001 52.0237 42.0443 51.1044 44.8396 48.8497C45.5379 48.2864 46.5605 48.3959 47.1237 49.0941C47.687 49.7924 47.5776 50.8151 46.8793 51.3783C43.6815 53.9577 41.2417 55.0381 37.5211 56.2204C33.7136 57.4299 29.6874 57.8315 25.7101 57.399C21.7327 56.967 17.8934 55.7099 14.4479 53.7105C11.0023 51.7112 8.02863 49.0147 5.72658 45.7988C5.20443 45.0693 5.37249 44.0546 6.10203 43.5324ZM13.9627 8.08577C14.7007 7.57571 14.8855 6.56388 14.3755 5.82593C13.8654 5.08792 12.8536 4.90311 12.1156 5.41317C10.0692 6.82755 8.22237 8.56735 6.6299 10.5739C6.07221 11.2765 6.18971 12.2983 6.89246 12.856C7.59515 13.4137 8.61697 13.2961 9.17467 12.5934C10.5754 10.8284 12.1894 9.31137 13.9627 8.08577ZM4.6053 17.2263C5.41539 17.6117 5.75968 18.5808 5.3743 19.391C4.16902 21.9245 3.46007 24.6791 3.28926 27.4973C3.11845 30.3156 3.48926 33.1402 4.3798 35.8094C4.66373 36.6605 4.20398 37.5805 3.35297 37.8644C2.50196 38.1484 1.58192 37.6886 1.298 36.8376C0.275592 33.7731 -0.149439 30.5327 0.0464372 27.3008C0.242307 24.069 1.05539 20.907 2.44058 17.9953C2.82598 17.1852 3.79515 16.8409 4.6053 17.2263ZM29.1639 51.3938C41.6941 51.3938 51.8518 41.2725 51.8518 28.7871C51.8518 16.3017 41.6941 6.18031 29.1639 6.18031C16.6338 6.18031 6.47603 16.3017 6.47603 28.7871C6.47603 41.2725 16.6338 51.3938 29.1639 51.3938ZM29.1639 48.5234C18.2247 48.5234 9.35679 39.6872 9.35679 28.7871C9.35679 17.887 18.2247 9.05074 29.1639 9.05074C40.1031 9.05074 48.9711 17.887 48.9711 28.7871C48.9711 39.6872 40.1031 48.5234 29.1639 48.5234ZM43.1384 28.388C43.1384 36.0048 36.9416 42.1796 29.2974 42.1796C21.6532 42.1796 15.4563 36.0048 15.4563 28.388C15.4563 20.7712 21.6532 14.5965 29.2974 14.5965C36.9416 14.5965 43.1384 20.7712 43.1384 28.388ZM18.9595 28.388C18.9595 34.077 23.5879 38.6889 29.2974 38.6889C35.0069 38.6889 39.6353 34.077 39.6353 28.388C39.6353 22.699 35.0069 18.0871 29.2974 18.0871C23.5879 18.0871 18.9595 22.699 18.9595 28.388ZM29.4432 34.7314C32.6743 34.7314 35.2935 32.1214 35.2935 28.902C35.2935 25.6825 32.6743 23.0725 29.4432 23.0725C26.2121 23.0725 23.5929 25.6825 23.5929 28.902C23.5929 32.1214 26.2121 34.7314 29.4432 34.7314ZM29.4432 31.2321C28.1517 31.2321 27.1047 30.1889 27.1047 28.902C27.1047 27.6151 28.1517 26.5719 29.4432 26.5719C30.7347 26.5719 31.7817 27.6151 31.7817 28.902C31.7817 30.1889 30.7347 31.2321 29.4432 31.2321Z" fill="url(#paint0_linear_3_3600)"/>
<path d="M42.1551 34.3771C45.3007 34.3771 47.8506 31.8362 47.8506 28.7019C47.8506 25.5676 45.3007 23.0267 42.1551 23.0267C39.0095 23.0267 36.4596 25.5676 36.4596 28.7019C36.4596 31.8362 39.0095 34.3771 42.1551 34.3771Z" fill="url(#paint1_linear_3_3600)"/>
</g>
<defs>
<linearGradient id="paint0_linear_3_3600" x1="4.47471" y1="4.45965" x2="54.3394" y2="54.4942" gradientUnits="userSpaceOnUse">
<stop stop-color="#7B56FC"/>
<stop offset="1" stop-color="#D23C95"/>
</linearGradient>
<linearGradient id="paint1_linear_3_3600" x1="40.4026" y1="23.4633" x2="43.0135" y2="34.3814" gradientUnits="userSpaceOnUse">
<stop stop-color="#9370FF"/>
<stop offset="1" stop-color="#FF8ED3"/>
</linearGradient>
</defs>
</svg>
