<svg width="17" height="17" viewBox="0 0 17 17" fill="none" xmlns="http://www.w3.org/2000/svg">
<path fill-rule="evenodd" clip-rule="evenodd" d="M8.49993 7.50855C8.65022 7.50855 8.79435 7.56826 8.90062 7.67453C9.00689 7.78079 9.06659 7.92493 9.06659 8.07522V10.1474C9.80637 10.3863 10.3416 11.0808 10.3416 11.9002C10.3416 12.9173 9.51709 13.7418 8.49993 13.7418C7.48277 13.7418 6.65828 12.9173 6.65828 11.9002C6.65828 11.0808 7.19349 10.3863 7.93327 10.1474V8.07522C7.93327 7.92493 7.99297 7.78079 8.09924 7.67453C8.20551 7.56826 8.34964 7.50855 8.49993 7.50855ZM9.20826 11.9002C9.20826 12.088 9.13363 12.2682 9.00079 12.401C8.86796 12.5339 8.68779 12.6085 8.49993 12.6085C8.31207 12.6085 8.1319 12.5339 7.99907 12.401C7.86623 12.2682 7.7916 12.088 7.7916 11.9002C7.7916 11.7123 7.86623 11.5322 7.99907 11.3993C8.1319 11.2665 8.31207 11.1919 8.49993 11.1919C8.68779 11.1919 8.86796 11.2665 9.00079 11.3993C9.13363 11.5322 9.20826 11.7123 9.20826 11.9002Z" fill="#B745B6"/>
<path fill-rule="evenodd" clip-rule="evenodd" d="M6.23328 3.68336C6.23328 2.43146 7.24803 1.41671 8.49992 1.41671C9.75182 1.41671 10.7666 2.43146 10.7666 3.68336V8.8584C10.7666 8.94552 10.8072 9.0274 10.8738 9.08365C11.6745 9.75911 12.1832 10.77 12.1832 11.9C12.1832 13.9343 10.5342 15.5833 8.49992 15.5833C6.46561 15.5833 4.81662 13.9343 4.81662 11.9C4.81662 10.7702 5.3252 9.75925 6.12604 9.08365C6.15922 9.05617 6.18601 9.02177 6.20454 8.98287C6.22306 8.94396 6.23287 8.90148 6.23328 8.8584V3.68336ZM8.49992 2.55003C8.19935 2.55003 7.91108 2.66944 7.69854 2.88198C7.486 3.09451 7.3666 3.38278 7.3666 3.68336V8.8584C7.3666 9.30181 7.16118 9.69309 6.85689 9.94979C6.30043 10.4193 5.94994 11.118 5.94994 11.9C5.94994 13.3083 7.09163 14.4499 8.49992 14.4499C9.90822 14.4499 11.0499 13.3083 11.0499 11.9C11.0499 11.1181 10.6994 10.4193 10.143 9.94979C9.83866 9.69309 9.63325 9.30181 9.63325 8.8584V3.68336C9.63325 3.38278 9.51384 3.09451 9.3013 2.88198C9.08877 2.66944 8.8005 2.55003 8.49992 2.55003Z" fill="#B745B6"/>
<path d="M3.6833 2.83342C3.53301 2.83342 3.38887 2.89312 3.2826 2.99939C3.17634 3.10566 3.11663 3.24979 3.11663 3.40008C3.11663 3.55037 3.17634 3.6945 3.2826 3.80077C3.38887 3.90704 3.53301 3.96674 3.6833 3.96674H5.09995C5.25024 3.96674 5.39437 3.90704 5.50064 3.80077C5.60691 3.6945 5.66661 3.55037 5.66661 3.40008C5.66661 3.24979 5.60691 3.10566 5.50064 2.99939C5.39437 2.89312 5.25024 2.83342 5.09995 2.83342H3.6833Z" fill="#B745B6"/>
<path d="M3.11663 6.51684C3.11663 6.36655 3.17634 6.22242 3.2826 6.11615C3.38887 6.00988 3.53301 5.95017 3.6833 5.95017H5.09995C5.25024 5.95017 5.39437 6.00988 5.50064 6.11615C5.60691 6.22242 5.66661 6.36655 5.66661 6.51684C5.66661 6.66712 5.60691 6.81126 5.50064 6.91753C5.39437 7.0238 5.25024 7.0835 5.09995 7.0835H3.6833C3.53301 7.0835 3.38887 7.0238 3.2826 6.91753C3.17634 6.81126 3.11663 6.66712 3.11663 6.51684Z" fill="#B745B6"/>
<path d="M4.53326 4.3918C4.38297 4.3918 4.23884 4.4515 4.13257 4.55777C4.0263 4.66404 3.9666 4.80817 3.9666 4.95846C3.9666 5.10875 4.0263 5.25288 4.13257 5.35915C4.23884 5.46542 4.38297 5.52512 4.53326 5.52512H5.09992C5.25021 5.52512 5.39434 5.46542 5.50061 5.35915C5.60688 5.25288 5.66658 5.10875 5.66658 4.95846C5.66658 4.80817 5.60688 4.66404 5.50061 4.55777C5.39434 4.4515 5.25021 4.3918 5.09992 4.3918H4.53326Z" fill="#B745B6"/>
<path d="M3.68332 8.07522C3.68332 7.92493 3.74302 7.78079 3.84929 7.67453C3.95556 7.56826 4.09969 7.50855 4.24998 7.50855H5.09997C5.25026 7.50855 5.39439 7.56826 5.50066 7.67453C5.60693 7.78079 5.66663 7.92493 5.66663 8.07522C5.66663 8.2255 5.60693 8.36964 5.50066 8.47591C5.39439 8.58218 5.25026 8.64188 5.09997 8.64188H4.24998C4.09969 8.64188 3.95556 8.58218 3.84929 8.47591C3.74302 8.36964 3.68332 8.2255 3.68332 8.07522Z" fill="#B745B6"/>
</svg>
