<svg width="370" height="12" viewBox="0 0 370 12" fill="none" xmlns="http://www.w3.org/2000/svg">
<path d="M2.78463e-05 11.6203V2.59748H1.24751V3.66125H1.35431C1.42836 3.52454 1.53517 3.36647 1.67472 3.18704C1.81428 3.00761 2.00795 2.85096 2.25574 2.7171C2.50353 2.58039 2.83106 2.51203 3.23834 2.51203C3.76809 2.51203 4.24088 2.6459 4.65671 2.91362C5.07253 3.18134 5.39864 3.56726 5.63504 4.07138C5.87428 4.5755 5.9939 5.18215 5.9939 5.89133C5.9939 6.60051 5.87571 7.20859 5.63931 7.71555C5.40292 8.21967 5.07823 8.60844 4.66525 8.88186C4.25228 9.15243 3.78091 9.28772 3.25116 9.28772C2.85242 9.28772 2.52631 9.22079 2.27283 9.08692C2.0222 8.95306 1.82567 8.79642 1.68327 8.61698C1.54086 8.43755 1.43121 8.27806 1.35431 8.1385H1.27741V11.6203H2.78463e-05ZM1.25178 5.87851C1.25178 6.33991 1.31871 6.74434 1.45257 7.09181C1.58643 7.43929 1.7801 7.71128 2.03359 7.9078C2.28707 8.10147 2.59752 8.19831 2.96492 8.19831C3.34657 8.19831 3.66556 8.0972 3.92189 7.89499C4.17822 7.68992 4.3719 7.41223 4.50291 7.06191C4.63677 6.71159 4.7037 6.31713 4.7037 5.87851C4.7037 5.4456 4.6382 5.05683 4.50718 4.71221C4.37902 4.36758 4.18534 4.09559 3.92617 3.89622C3.66983 3.69685 3.34942 3.59717 2.96492 3.59717C2.59467 3.59717 2.28137 3.69258 2.02504 3.8834C1.77156 4.07423 1.57931 4.34053 1.4483 4.6823C1.31728 5.02408 1.25178 5.42281 1.25178 5.87851ZM7.42508 9.15955V2.59748H8.65975V3.63989H8.7281C8.84772 3.28672 9.05848 3.00903 9.36038 2.80681C9.66513 2.60175 10.0098 2.49922 10.3943 2.49922C10.474 2.49922 10.568 2.50206 10.6762 2.50776C10.7873 2.51346 10.8742 2.52058 10.9368 2.52912V3.75097C10.8856 3.73673 10.7944 3.72106 10.6634 3.70397C10.5324 3.68404 10.4014 3.67407 10.2704 3.67407C9.96846 3.67407 9.69931 3.73815 9.46292 3.86632C9.22937 3.99163 9.04424 4.16679 8.90753 4.39179C8.77082 4.61395 8.70247 4.86743 8.70247 5.15224V9.15955H7.42508ZM14.6355 9.29199C13.9889 9.29199 13.4321 9.15386 12.965 8.87759C12.5008 8.59847 12.1419 8.20685 11.8884 7.70274C11.6378 7.19577 11.5125 6.60194 11.5125 5.92124C11.5125 5.24908 11.6378 4.65667 11.8884 4.14401C12.1419 3.63135 12.4951 3.23118 12.948 2.94352C13.4036 2.65586 13.9362 2.51203 14.5457 2.51203C14.916 2.51203 15.2749 2.57327 15.6223 2.69574C15.9698 2.81821 16.2817 3.01045 16.5579 3.27248C16.8342 3.53451 17.0521 3.87486 17.2116 4.29353C17.3711 4.70936 17.4508 5.2149 17.4508 5.81016V6.26301H12.2345V5.30604H16.1991C16.1991 4.96996 16.1307 4.67233 15.994 4.41316C15.8573 4.15113 15.6651 3.94464 15.4173 3.79369C15.1723 3.64274 14.8847 3.56726 14.5543 3.56726C14.1954 3.56726 13.8821 3.65555 13.6144 3.83214C13.3495 4.00587 13.1445 4.23372 12.9992 4.51569C12.8568 4.7948 12.7856 5.09813 12.7856 5.42566V6.17329C12.7856 6.61191 12.8625 6.98501 13.0163 7.29261C13.173 7.6002 13.3908 7.83517 13.6699 7.99752C13.9491 8.15701 14.2752 8.23676 14.6483 8.23676C14.8904 8.23676 15.1111 8.20258 15.3105 8.13423C15.5098 8.06302 15.6821 7.95764 15.8274 7.81809C15.9727 7.67853 16.0837 7.50622 16.1606 7.30115L17.3697 7.51903C17.2728 7.87505 17.0991 8.18692 16.8485 8.45464C16.6007 8.71952 16.2888 8.92601 15.9128 9.07411C15.5397 9.21936 15.1139 9.29199 14.6355 9.29199ZM21.9911 2.59748V3.6228H18.2828V2.59748H21.9911ZM19.2996 9.15955V1.83703C19.2996 1.4269 19.3893 1.08655 19.5688 0.815976C19.7482 0.542556 19.986 0.338915 20.2822 0.205054C20.5784 0.0683434 20.9003 -1.17122e-05 21.2477 -1.17122e-05C21.5041 -1.17122e-05 21.7234 0.0213494 21.9057 0.0640716C22.0879 0.103945 22.2232 0.140971 22.3115 0.175148L22.0125 1.20902C21.9526 1.19193 21.8757 1.17199 21.7818 1.14921C21.6878 1.12357 21.5738 1.11076 21.44 1.11076C21.1295 1.11076 20.9074 1.18766 20.7735 1.34145C20.6425 1.49525 20.577 1.71741 20.577 2.00792V9.15955H19.2996ZM25.8788 9.29199C25.2323 9.29199 24.6755 9.15386 24.2084 8.87759C23.7441 8.59847 23.3853 8.20685 23.1318 7.70274C22.8811 7.19577 22.7558 6.60194 22.7558 5.92124C22.7558 5.24908 22.8811 4.65667 23.1318 4.14401C23.3853 3.63135 23.7384 3.23118 24.1913 2.94352C24.647 2.65586 25.1796 2.51203 25.7891 2.51203C26.1593 2.51203 26.5182 2.57327 26.8657 2.69574C27.2131 2.81821 27.525 3.01045 27.8013 3.27248C28.0775 3.53451 28.2954 3.87486 28.4549 4.29353C28.6144 4.70936 28.6942 5.2149 28.6942 5.81016V6.26301H23.4778V5.30604H27.4424C27.4424 4.96996 27.374 4.67233 27.2373 4.41316C27.1006 4.15113 26.9084 3.94464 26.6606 3.79369C26.4157 3.64274 26.128 3.56726 25.7976 3.56726C25.4387 3.56726 25.1255 3.65555 24.8577 3.83214C24.5929 4.00587 24.3878 4.23372 24.2425 4.51569C24.1001 4.7948 24.0289 5.09813 24.0289 5.42566V6.17329C24.0289 6.61191 24.1058 6.98501 24.2596 7.29261C24.4163 7.6002 24.6342 7.83517 24.9133 7.99752C25.1924 8.15701 25.5185 8.23676 25.8916 8.23676C26.1337 8.23676 26.3544 8.20258 26.5538 8.13423C26.7532 8.06302 26.9255 7.95764 27.0707 7.81809C27.216 7.67853 27.3271 7.50622 27.404 7.30115L28.613 7.51903C28.5161 7.87505 28.3424 8.18692 28.0918 8.45464C27.844 8.71952 27.5321 8.92601 27.1562 9.07411C26.7831 9.21936 26.3573 9.29199 25.8788 9.29199ZM30.1115 9.15955V2.59748H31.3461V3.63989H31.4145C31.5341 3.28672 31.7448 3.00903 32.0467 2.80681C32.3515 2.60175 32.6961 2.49922 33.0806 2.49922C33.1604 2.49922 33.2544 2.50206 33.3626 2.50776C33.4737 2.51346 33.5605 2.52058 33.6232 2.52912V3.75097C33.5719 3.73673 33.4808 3.72106 33.3498 3.70397C33.2188 3.68404 33.0877 3.67407 32.9567 3.67407C32.6548 3.67407 32.3857 3.73815 32.1493 3.86632C31.9157 3.99163 31.7306 4.16679 31.5939 4.39179C31.4572 4.61395 31.3888 4.86743 31.3888 5.15224V9.15955H30.1115ZM98.4728 2.59748V3.6228H94.8884V2.59748H98.4728ZM95.8497 1.02531H97.1271V7.2328C97.1271 7.48058 97.1641 7.66714 97.2381 7.79245C97.3122 7.91492 97.4076 7.99894 97.5244 8.04451C97.644 8.08723 97.7736 8.10859 97.9131 8.10859C98.0157 8.10859 98.1054 8.10147 98.1823 8.08723C98.2592 8.07299 98.319 8.0616 98.3617 8.05306L98.5924 9.10829C98.5184 9.13677 98.413 9.16525 98.2763 9.19373C98.1396 9.22506 97.9687 9.24215 97.7636 9.245C97.4275 9.25069 97.1143 9.19088 96.8237 9.06556C96.5332 8.94025 96.2983 8.74657 96.1188 8.48455C95.9394 8.22252 95.8497 7.89356 95.8497 7.49767V1.02531ZM102.579 9.29199C101.964 9.29199 101.427 9.15101 100.969 8.86904C100.51 8.58708 100.154 8.19261 99.9008 7.68565C99.6473 7.17868 99.5206 6.58627 99.5206 5.90842C99.5206 5.22772 99.6473 4.63246 99.9008 4.12265C100.154 3.61283 100.51 3.21694 100.969 2.93498C101.427 2.65302 101.964 2.51203 102.579 2.51203C103.195 2.51203 103.732 2.65302 104.19 2.93498C104.649 3.21694 105.005 3.61283 105.258 4.12265C105.512 4.63246 105.638 5.22772 105.638 5.90842C105.638 6.58627 105.512 7.17868 105.258 7.68565C105.005 8.19261 104.649 8.58708 104.19 8.86904C103.732 9.15101 103.195 9.29199 102.579 9.29199ZM102.584 8.21967C102.982 8.21967 103.313 8.11429 103.575 7.90353C103.837 7.69277 104.031 7.41223 104.156 7.06191C104.284 6.71159 104.348 6.32567 104.348 5.90415C104.348 5.48547 104.284 5.10098 104.156 4.75066C104.031 4.39749 103.837 4.1141 103.575 3.90049C103.313 3.68688 102.982 3.58008 102.584 3.58008C102.182 3.58008 101.849 3.68688 101.584 3.90049C101.322 4.1141 101.127 4.39749 100.999 4.75066C100.873 5.10098 100.811 5.48547 100.811 5.90415C100.811 6.32567 100.873 6.71159 100.999 7.06191C101.127 7.41223 101.322 7.69277 101.584 7.90353C101.849 8.11429 102.182 8.21967 102.584 8.21967ZM113.311 2.59748V3.6228H109.727V2.59748H113.311ZM110.688 1.02531H111.965V7.2328C111.965 7.48058 112.002 7.66714 112.077 7.79245C112.151 7.91492 112.246 7.99894 112.363 8.04451C112.482 8.08723 112.612 8.10859 112.752 8.10859C112.854 8.10859 112.944 8.10147 113.021 8.08723C113.098 8.07299 113.157 8.0616 113.2 8.05306L113.431 9.10829C113.357 9.13677 113.251 9.16525 113.115 9.19373C112.978 9.22506 112.807 9.24215 112.602 9.245C112.266 9.25069 111.953 9.19088 111.662 9.06556C111.372 8.94025 111.137 8.74657 110.957 8.48455C110.778 8.22252 110.688 7.89356 110.688 7.49767V1.02531ZM114.724 9.15955V2.59748H115.959V3.63989H116.027C116.147 3.28672 116.358 3.00903 116.659 2.80681C116.964 2.60175 117.309 2.49922 117.693 2.49922C117.773 2.49922 117.867 2.50206 117.975 2.50776C118.086 2.51346 118.173 2.52058 118.236 2.52912V3.75097C118.185 3.73673 118.094 3.72106 117.963 3.70397C117.831 3.68404 117.7 3.67407 117.569 3.67407C117.268 3.67407 116.998 3.73815 116.762 3.86632C116.528 3.99163 116.343 4.16679 116.207 4.39179C116.07 4.61395 116.002 4.86743 116.002 5.15224V9.15955H114.724ZM121.192 9.30481C120.776 9.30481 120.401 9.22791 120.064 9.07411C119.728 8.91746 119.462 8.69104 119.266 8.39483C119.072 8.09863 118.975 7.73549 118.975 7.30542C118.975 6.93517 119.046 6.63042 119.189 6.39118C119.331 6.15193 119.523 5.96253 119.765 5.82298C120.007 5.68342 120.278 5.57804 120.577 5.50683C120.876 5.43563 121.181 5.38152 121.491 5.34449C121.884 5.29892 122.203 5.2619 122.448 5.23341C122.693 5.20209 122.871 5.15224 122.982 5.08389C123.093 5.01553 123.149 4.90446 123.149 4.75066V4.72075C123.149 4.34765 123.044 4.05856 122.833 3.8535C122.625 3.64843 122.314 3.5459 121.901 3.5459C121.471 3.5459 121.132 3.64131 120.885 3.83214C120.64 4.02011 120.47 4.22945 120.376 4.46015L119.176 4.18673C119.318 3.78799 119.526 3.46615 119.8 3.22122C120.076 2.97343 120.393 2.794 120.752 2.68292C121.111 2.569 121.488 2.51203 121.884 2.51203C122.146 2.51203 122.424 2.54336 122.717 2.60602C123.014 2.66583 123.29 2.77691 123.546 2.93925C123.805 3.10159 124.018 3.33372 124.183 3.63562C124.348 3.93467 124.431 4.32344 124.431 4.80192V9.15955H123.183V8.26239H123.132C123.049 8.42758 122.925 8.58993 122.76 8.74942C122.595 8.90892 122.383 9.04135 122.124 9.14674C121.864 9.25212 121.554 9.30481 121.192 9.30481ZM121.47 8.27948C121.823 8.27948 122.125 8.2097 122.376 8.07014C122.629 7.93059 122.821 7.74831 122.952 7.52331C123.086 7.29546 123.153 7.05194 123.153 6.79276V5.94687C123.108 5.99244 123.019 6.03516 122.888 6.07503C122.76 6.11206 122.613 6.14481 122.448 6.17329C122.283 6.19893 122.122 6.22314 121.966 6.24592C121.809 6.26586 121.678 6.28295 121.573 6.29719C121.325 6.32852 121.098 6.38121 120.893 6.45526C120.691 6.52931 120.529 6.63611 120.406 6.77567C120.287 6.91238 120.227 7.09466 120.227 7.32251C120.227 7.63865 120.344 7.8779 120.577 8.04024C120.811 8.19973 121.108 8.27948 121.47 8.27948ZM126.132 9.15955V2.59748H127.409V9.15955H126.132ZM126.777 1.58497C126.555 1.58497 126.364 1.51092 126.205 1.36282C126.048 1.21186 125.97 1.03243 125.97 0.82452C125.97 0.613759 126.048 0.434327 126.205 0.286225C126.364 0.135274 126.555 0.0597993 126.777 0.0597993C126.999 0.0597993 127.189 0.135274 127.345 0.286225C127.505 0.434327 127.585 0.613759 127.585 0.82452C127.585 1.03243 127.505 1.21186 127.345 1.36282C127.189 1.51092 126.999 1.58497 126.777 1.58497ZM130.405 5.26332V9.15955H129.128V2.59748H130.354V3.66552H130.435C130.586 3.31805 130.822 3.03894 131.144 2.82817C131.469 2.61741 131.878 2.51203 132.37 2.51203C132.818 2.51203 133.209 2.60602 133.545 2.794C133.881 2.97913 134.142 3.25539 134.327 3.6228C134.512 3.99021 134.605 4.44448 134.605 4.98563V9.15955H133.327V5.13943C133.327 4.66379 133.204 4.29211 132.956 4.02439C132.708 3.75381 132.368 3.61853 131.935 3.61853C131.638 3.61853 131.375 3.68261 131.144 3.81078C130.916 3.93894 130.736 4.12692 130.602 4.37471C130.471 4.61964 130.405 4.91585 130.405 5.26332ZM142.565 2.59748V3.6228H138.981V2.59748H142.565ZM139.942 1.02531H141.219V7.2328C141.219 7.48058 141.256 7.66714 141.33 7.79245C141.404 7.91492 141.5 7.99894 141.617 8.04451C141.736 8.08723 141.866 8.10859 142.005 8.10859C142.108 8.10859 142.198 8.10147 142.274 8.08723C142.351 8.07299 142.411 8.0616 142.454 8.05306L142.685 9.10829C142.611 9.13677 142.505 9.16525 142.368 9.19373C142.232 9.22506 142.061 9.24215 141.856 9.245C141.52 9.25069 141.206 9.19088 140.916 9.06556C140.625 8.94025 140.39 8.74657 140.211 8.48455C140.032 8.22252 139.942 7.89356 139.942 7.49767V1.02531ZM145.396 5.26332V9.15955H144.119V0.410118H145.379V3.66552H145.46C145.614 3.31236 145.849 3.03182 146.165 2.8239C146.481 2.61599 146.894 2.51203 147.404 2.51203C147.854 2.51203 148.247 2.6046 148.583 2.78973C148.922 2.97485 149.184 3.25112 149.369 3.61853C149.557 3.98309 149.651 4.43879 149.651 4.98563V9.15955H148.374V5.13943C148.374 4.65809 148.25 4.28499 148.002 4.02011C147.755 3.75239 147.41 3.61853 146.969 3.61853C146.667 3.61853 146.396 3.68261 146.157 3.81078C145.92 3.93894 145.734 4.12692 145.597 4.37471C145.463 4.61964 145.396 4.91585 145.396 5.26332ZM154.184 9.29199C153.538 9.29199 152.981 9.15386 152.514 8.87759C152.05 8.59847 151.691 8.20685 151.437 7.70274C151.187 7.19577 151.061 6.60194 151.061 5.92124C151.061 5.24908 151.187 4.65667 151.437 4.14401C151.691 3.63135 152.044 3.23118 152.497 2.94352C152.952 2.65586 153.485 2.51203 154.095 2.51203C154.465 2.51203 154.824 2.57327 155.171 2.69574C155.519 2.81821 155.83 3.01045 156.107 3.27248C156.383 3.53451 156.601 3.87486 156.76 4.29353C156.92 4.70936 157 5.2149 157 5.81016V6.26301H151.783V5.30604H155.748C155.748 4.96996 155.679 4.67233 155.543 4.41316C155.406 4.15113 155.214 3.94464 154.966 3.79369C154.721 3.64274 154.433 3.56726 154.103 3.56726C153.744 3.56726 153.431 3.65555 153.163 3.83214C152.898 4.00587 152.693 4.23372 152.548 4.51569C152.406 4.7948 152.334 5.09813 152.334 5.42566V6.17329C152.334 6.61191 152.411 6.98501 152.565 7.29261C152.722 7.6002 152.94 7.83517 153.219 7.99752C153.498 8.15701 153.824 8.23676 154.197 8.23676C154.439 8.23676 154.66 8.20258 154.859 8.13423C155.059 8.06302 155.231 7.95764 155.376 7.81809C155.521 7.67853 155.632 7.50622 155.709 7.30115L156.918 7.51903C156.822 7.87505 156.648 8.18692 156.397 8.45464C156.149 8.71952 155.838 8.92601 155.462 9.07411C155.089 9.21936 154.663 9.29199 154.184 9.29199ZM158.417 9.15955V2.59748H159.694V9.15955H158.417ZM159.062 1.58497C158.84 1.58497 158.649 1.51092 158.49 1.36282C158.333 1.21186 158.255 1.03243 158.255 0.82452C158.255 0.613759 158.333 0.434327 158.49 0.286225C158.649 0.135274 158.84 0.0597993 159.062 0.0597993C159.284 0.0597993 159.474 0.135274 159.63 0.286225C159.79 0.434327 159.869 0.613759 159.869 0.82452C159.869 1.03243 159.79 1.21186 159.63 1.36282C159.474 1.51092 159.284 1.58497 159.062 1.58497ZM161.413 9.15955V2.59748H162.647V3.63989H162.716C162.835 3.28672 163.046 3.00903 163.348 2.80681C163.653 2.60175 163.997 2.49922 164.382 2.49922C164.462 2.49922 164.556 2.50206 164.664 2.50776C164.775 2.51346 164.862 2.52058 164.924 2.52912V3.75097C164.873 3.73673 164.782 3.72106 164.651 3.70397C164.52 3.68404 164.389 3.67407 164.258 3.67407C163.956 3.67407 163.687 3.73815 163.451 3.86632C163.217 3.99163 163.032 4.16679 162.895 4.39179C162.758 4.61395 162.69 4.86743 162.69 5.15224V9.15955H161.413ZM174.131 4.19955L172.973 4.40461C172.925 4.25651 172.848 4.11553 172.743 3.98166C172.64 3.8478 172.501 3.73815 172.324 3.65271C172.147 3.56726 171.927 3.52454 171.662 3.52454C171.3 3.52454 170.998 3.60571 170.756 3.76806C170.514 3.92755 170.393 4.13404 170.393 4.38752C170.393 4.60683 170.474 4.78341 170.636 4.91727C170.799 5.05113 171.061 5.16079 171.422 5.24623L172.465 5.48547C173.069 5.62503 173.519 5.84006 173.815 6.13057C174.111 6.42108 174.259 6.79846 174.259 7.2627C174.259 7.65574 174.145 8.00606 173.917 8.31366C173.692 8.61841 173.378 8.85765 172.973 9.03139C172.572 9.20512 172.106 9.29199 171.576 9.29199C170.841 9.29199 170.242 9.13534 169.778 8.82205C169.313 8.50591 169.029 8.05733 168.923 7.47631L170.158 7.28834C170.235 7.61017 170.393 7.85369 170.632 8.01888C170.871 8.18122 171.183 8.26239 171.568 8.26239C171.986 8.26239 172.321 8.17553 172.572 8.00179C172.822 7.82521 172.948 7.61017 172.948 7.35669C172.948 7.15163 172.871 6.97931 172.717 6.83976C172.566 6.7002 172.334 6.59482 172.021 6.52361L170.91 6.2801C170.297 6.14054 169.845 5.91839 169.551 5.61364C169.261 5.30889 169.116 4.92297 169.116 4.45588C169.116 4.06853 169.224 3.72961 169.44 3.4391C169.657 3.14859 169.956 2.92216 170.337 2.75982C170.719 2.59463 171.156 2.51203 171.649 2.51203C172.358 2.51203 172.916 2.66583 173.324 2.97343C173.731 3.27818 174 3.68688 174.131 4.19955ZM177.573 9.30481C177.158 9.30481 176.782 9.22791 176.446 9.07411C176.109 8.91746 175.843 8.69104 175.647 8.39483C175.453 8.09863 175.356 7.73549 175.356 7.30542C175.356 6.93517 175.427 6.63042 175.57 6.39118C175.712 6.15193 175.904 5.96253 176.146 5.82298C176.389 5.68342 176.659 5.57804 176.958 5.50683C177.257 5.43563 177.562 5.38152 177.872 5.34449C178.265 5.29892 178.584 5.2619 178.829 5.23341C179.074 5.20209 179.252 5.15224 179.363 5.08389C179.474 5.01553 179.53 4.90446 179.53 4.75066V4.72075C179.53 4.34765 179.425 4.05856 179.214 3.8535C179.006 3.64843 178.696 3.5459 178.283 3.5459C177.852 3.5459 177.514 3.64131 177.266 3.83214C177.021 4.02011 176.851 4.22945 176.757 4.46015L175.557 4.18673C175.699 3.78799 175.907 3.46615 176.181 3.22122C176.457 2.97343 176.774 2.794 177.133 2.68292C177.492 2.569 177.87 2.51203 178.265 2.51203C178.527 2.51203 178.805 2.54336 179.099 2.60602C179.395 2.66583 179.671 2.77691 179.927 2.93925C180.187 3.10159 180.399 3.33372 180.564 3.63562C180.729 3.93467 180.812 4.32344 180.812 4.80192V9.15955H179.564V8.26239H179.513C179.43 8.42758 179.306 8.58993 179.141 8.74942C178.976 8.90892 178.764 9.04135 178.505 9.14674C178.246 9.25212 177.935 9.30481 177.573 9.30481ZM177.851 8.27948C178.204 8.27948 178.506 8.2097 178.757 8.07014C179.01 7.93059 179.202 7.74831 179.334 7.52331C179.467 7.29546 179.534 7.05194 179.534 6.79276V5.94687C179.489 5.99244 179.4 6.03516 179.269 6.07503C179.141 6.11206 178.995 6.14481 178.829 6.17329C178.664 6.19893 178.503 6.22314 178.347 6.24592C178.19 6.26586 178.059 6.28295 177.954 6.29719C177.706 6.32852 177.479 6.38121 177.274 6.45526C177.072 6.52931 176.91 6.63611 176.787 6.77567C176.668 6.91238 176.608 7.09466 176.608 7.32251C176.608 7.63865 176.725 7.8779 176.958 8.04024C177.192 8.19973 177.489 8.27948 177.851 8.27948ZM183.79 0.410118V9.15955H182.513V0.410118H183.79ZM188.337 9.29199C187.691 9.29199 187.134 9.15386 186.667 8.87759C186.202 8.59847 185.844 8.20685 185.59 7.70274C185.339 7.19577 185.214 6.60194 185.214 5.92124C185.214 5.24908 185.339 4.65667 185.59 4.14401C185.844 3.63135 186.197 3.23118 186.65 2.94352C187.105 2.65586 187.638 2.51203 188.247 2.51203C188.618 2.51203 188.977 2.57327 189.324 2.69574C189.671 2.81821 189.983 3.01045 190.26 3.27248C190.536 3.53451 190.754 3.87486 190.913 4.29353C191.073 4.70936 191.153 5.2149 191.153 5.81016V6.26301H185.936V5.30604H189.901C189.901 4.96996 189.832 4.67233 189.696 4.41316C189.559 4.15113 189.367 3.94464 189.119 3.79369C188.874 3.64274 188.586 3.56726 188.256 3.56726C187.897 3.56726 187.584 3.65555 187.316 3.83214C187.051 4.00587 186.846 4.23372 186.701 4.51569C186.558 4.7948 186.487 5.09813 186.487 5.42566V6.17329C186.487 6.61191 186.564 6.98501 186.718 7.29261C186.875 7.6002 187.093 7.83517 187.372 7.99752C187.651 8.15701 187.977 8.23676 188.35 8.23676C188.592 8.23676 188.813 8.20258 189.012 8.13423C189.212 8.06302 189.384 7.95764 189.529 7.81809C189.674 7.67853 189.785 7.50622 189.862 7.30115L191.071 7.51903C190.974 7.87505 190.801 8.18692 190.55 8.45464C190.302 8.71952 189.99 8.92601 189.615 9.07411C189.241 9.21936 188.816 9.29199 188.337 9.29199ZM197.487 4.19955L196.329 4.40461C196.281 4.25651 196.204 4.11553 196.099 3.98166C195.996 3.8478 195.857 3.73815 195.68 3.65271C195.503 3.56726 195.283 3.52454 195.018 3.52454C194.656 3.52454 194.354 3.60571 194.112 3.76806C193.87 3.92755 193.749 4.13404 193.749 4.38752C193.749 4.60683 193.83 4.78341 193.992 4.91727C194.155 5.05113 194.417 5.16079 194.779 5.24623L195.821 5.48547C196.425 5.62503 196.875 5.84006 197.171 6.13057C197.467 6.42108 197.615 6.79846 197.615 7.2627C197.615 7.65574 197.501 8.00606 197.273 8.31366C197.048 8.61841 196.734 8.85765 196.329 9.03139C195.928 9.20512 195.462 9.29199 194.932 9.29199C194.198 9.29199 193.598 9.13534 193.134 8.82205C192.669 8.50591 192.385 8.05733 192.279 7.47631L193.514 7.28834C193.591 7.61017 193.749 7.85369 193.988 8.01888C194.227 8.18122 194.539 8.26239 194.924 8.26239C195.342 8.26239 195.677 8.17553 195.928 8.00179C196.178 7.82521 196.304 7.61017 196.304 7.35669C196.304 7.15163 196.227 6.97931 196.073 6.83976C195.922 6.7002 195.69 6.59482 195.377 6.52361L194.266 6.2801C193.654 6.14054 193.201 5.91839 192.907 5.61364C192.617 5.30889 192.472 4.92297 192.472 4.45588C192.472 4.06853 192.58 3.72961 192.796 3.4391C193.013 3.14859 193.312 2.92216 193.693 2.75982C194.075 2.59463 194.512 2.51203 195.005 2.51203C195.714 2.51203 196.272 2.66583 196.68 2.97343C197.087 3.27818 197.356 3.68688 197.487 4.19955ZM204.113 9.30481C203.697 9.30481 203.321 9.22791 202.985 9.07411C202.649 8.91746 202.383 8.69104 202.186 8.39483C201.993 8.09863 201.896 7.73549 201.896 7.30542C201.896 6.93517 201.967 6.63042 202.11 6.39118C202.252 6.15193 202.444 5.96253 202.686 5.82298C202.928 5.68342 203.199 5.57804 203.498 5.50683C203.797 5.43563 204.102 5.38152 204.412 5.34449C204.805 5.29892 205.124 5.2619 205.369 5.23341C205.614 5.20209 205.792 5.15224 205.903 5.08389C206.014 5.01553 206.07 4.90446 206.07 4.75066V4.72075C206.07 4.34765 205.965 4.05856 205.754 3.8535C205.546 3.64843 205.235 3.5459 204.822 3.5459C204.392 3.5459 204.053 3.64131 203.806 3.83214C203.561 4.02011 203.391 4.22945 203.297 4.46015L202.097 4.18673C202.239 3.78799 202.447 3.46615 202.721 3.22122C202.997 2.97343 203.314 2.794 203.673 2.68292C204.032 2.569 204.409 2.51203 204.805 2.51203C205.067 2.51203 205.345 2.54336 205.638 2.60602C205.935 2.66583 206.211 2.77691 206.467 2.93925C206.726 3.10159 206.939 3.33372 207.104 3.63562C207.269 3.93467 207.352 4.32344 207.352 4.80192V9.15955H206.104V8.26239H206.053C205.97 8.42758 205.846 8.58993 205.681 8.74942C205.516 8.90892 205.304 9.04135 205.045 9.14674C204.785 9.25212 204.475 9.30481 204.113 9.30481ZM204.391 8.27948C204.744 8.27948 205.046 8.2097 205.297 8.07014C205.55 7.93059 205.742 7.74831 205.873 7.52331C206.007 7.29546 206.074 7.05194 206.074 6.79276V5.94687C206.029 5.99244 205.94 6.03516 205.809 6.07503C205.681 6.11206 205.534 6.14481 205.369 6.17329C205.204 6.19893 205.043 6.22314 204.887 6.24592C204.73 6.26586 204.599 6.28295 204.493 6.29719C204.246 6.32852 204.019 6.38121 203.814 6.45526C203.612 6.52931 203.45 6.63611 203.327 6.77567C203.208 6.91238 203.148 7.09466 203.148 7.32251C203.148 7.63865 203.264 7.8779 203.498 8.04024C203.732 8.19973 204.029 8.27948 204.391 8.27948ZM210.33 5.26332V9.15955H209.053V2.59748H210.279V3.66552H210.36C210.511 3.31805 210.748 3.03894 211.069 2.82817C211.394 2.61741 211.803 2.51203 212.296 2.51203C212.743 2.51203 213.134 2.60602 213.47 2.794C213.806 2.97913 214.067 3.25539 214.252 3.6228C214.437 3.99021 214.53 4.44448 214.53 4.98563V9.15955H213.253V5.13943C213.253 4.66379 213.129 4.29211 212.881 4.02439C212.633 3.75381 212.293 3.61853 211.86 3.61853C211.564 3.61853 211.3 3.68261 211.069 3.81078C210.842 3.93894 210.661 4.12692 210.527 4.37471C210.396 4.61964 210.33 4.91585 210.33 5.26332ZM218.7 9.28772C218.17 9.28772 217.697 9.15243 217.281 8.88186C216.868 8.60844 216.544 8.21967 216.307 7.71555C216.074 7.20859 215.957 6.60051 215.957 5.89133C215.957 5.18215 216.075 4.5755 216.311 4.07138C216.551 3.56726 216.878 3.18134 217.294 2.91362C217.71 2.6459 218.181 2.51203 218.708 2.51203C219.115 2.51203 219.443 2.58039 219.691 2.7171C219.941 2.85096 220.135 3.00761 220.272 3.18704C220.411 3.36647 220.519 3.52454 220.596 3.66125H220.673V0.410118H221.951V9.15955H220.703V8.1385H220.596C220.519 8.27806 220.408 8.43755 220.263 8.61698C220.121 8.79642 219.924 8.95306 219.674 9.08692C219.423 9.22079 219.098 9.28772 218.7 9.28772ZM218.982 8.19831C219.349 8.19831 219.659 8.10147 219.913 7.9078C220.169 7.71128 220.363 7.43929 220.494 7.09181C220.628 6.74434 220.695 6.33991 220.695 5.87851C220.695 5.42281 220.629 5.02408 220.498 4.6823C220.367 4.34053 220.175 4.07423 219.921 3.8834C219.668 3.69258 219.355 3.59717 218.982 3.59717C218.597 3.59717 218.277 3.69685 218.02 3.89622C217.764 4.09559 217.57 4.36758 217.439 4.71221C217.311 5.05683 217.247 5.4456 217.247 5.87851C217.247 6.31713 217.313 6.71159 217.444 7.06191C217.575 7.41223 217.768 7.68992 218.025 7.89499C218.284 8.0972 218.603 8.19831 218.982 8.19831ZM229.722 9.29199C229.087 9.29199 228.54 9.14816 228.081 8.8605C227.626 8.56999 227.275 8.16983 227.03 7.66002C226.785 7.1502 226.663 6.56634 226.663 5.90842C226.663 5.24196 226.788 4.65382 227.039 4.14401C227.289 3.63135 227.643 3.23118 228.098 2.94352C228.554 2.65586 229.091 2.51203 229.709 2.51203C230.207 2.51203 230.652 2.6046 231.042 2.78973C231.432 2.972 231.747 3.22834 231.986 3.55872C232.228 3.8891 232.372 4.27502 232.418 4.71648H231.174C231.106 4.40888 230.949 4.14401 230.704 3.92185C230.462 3.6997 230.138 3.58862 229.73 3.58862C229.374 3.58862 229.062 3.68261 228.795 3.87059C228.53 4.05572 228.323 4.32059 228.175 4.66521C228.027 5.00699 227.953 5.41142 227.953 5.87851C227.953 6.357 228.026 6.76998 228.171 7.11745C228.316 7.46492 228.521 7.73407 228.786 7.92489C229.054 8.11571 229.369 8.21113 229.73 8.21113C229.972 8.21113 230.192 8.16698 230.388 8.07869C230.588 7.98755 230.754 7.85796 230.888 7.68992C231.025 7.52188 231.12 7.31966 231.174 7.08327H232.418C232.372 7.50764 232.234 7.88644 232.003 8.21967C231.772 8.5529 231.463 8.81493 231.076 9.00575C230.692 9.19658 230.24 9.29199 229.722 9.29199ZM237.94 6.43817V2.59748H239.222V9.15955H237.966V8.02315H237.898C237.747 8.37347 237.505 8.6654 237.171 8.89895C236.841 9.12965 236.429 9.245 235.937 9.245C235.515 9.245 235.142 9.15243 234.817 8.9673C234.496 8.77933 234.242 8.50164 234.057 8.13423C233.875 7.76682 233.784 7.31254 233.784 6.7714V2.59748H235.061V6.6176C235.061 7.06476 235.185 7.42077 235.433 7.68565C235.68 7.95052 236.002 8.08296 236.398 8.08296C236.637 8.08296 236.875 8.02315 237.112 7.90353C237.351 7.78391 237.549 7.60305 237.705 7.36096C237.865 7.11887 237.943 6.81127 237.94 6.43817ZM245.856 4.19955L244.698 4.40461C244.65 4.25651 244.573 4.11553 244.467 3.98166C244.365 3.8478 244.225 3.73815 244.049 3.65271C243.872 3.56726 243.651 3.52454 243.386 3.52454C243.025 3.52454 242.723 3.60571 242.481 3.76806C242.239 3.92755 242.118 4.13404 242.118 4.38752C242.118 4.60683 242.199 4.78341 242.361 4.91727C242.523 5.05113 242.785 5.16079 243.147 5.24623L244.19 5.48547C244.793 5.62503 245.243 5.84006 245.54 6.13057C245.836 6.42108 245.984 6.79846 245.984 7.2627C245.984 7.65574 245.87 8.00606 245.642 8.31366C245.417 8.61841 245.102 8.85765 244.698 9.03139C244.296 9.20512 243.831 9.29199 243.301 9.29199C242.566 9.29199 241.967 9.13534 241.502 8.82205C241.038 8.50591 240.753 8.05733 240.648 7.47631L241.883 7.28834C241.959 7.61017 242.118 7.85369 242.357 8.01888C242.596 8.18122 242.908 8.26239 243.292 8.26239C243.711 8.26239 244.046 8.17553 244.296 8.00179C244.547 7.82521 244.672 7.61017 244.672 7.35669C244.672 7.15163 244.595 6.97931 244.442 6.83976C244.291 6.7002 244.059 6.59482 243.745 6.52361L242.634 6.2801C242.022 6.14054 241.569 5.91839 241.276 5.61364C240.985 5.30889 240.84 4.92297 240.84 4.45588C240.84 4.06853 240.948 3.72961 241.165 3.4391C241.381 3.14859 241.68 2.92216 242.062 2.75982C242.444 2.59463 242.881 2.51203 243.374 2.51203C244.083 2.51203 244.641 2.66583 245.048 2.97343C245.456 3.27818 245.725 3.68688 245.856 4.19955ZM250.451 2.59748V3.6228H246.867V2.59748H250.451ZM247.828 1.02531H249.106V7.2328C249.106 7.48058 249.143 7.66714 249.217 7.79245C249.291 7.91492 249.386 7.99894 249.503 8.04451C249.623 8.08723 249.752 8.10859 249.892 8.10859C249.994 8.10859 250.084 8.10147 250.161 8.08723C250.238 8.07299 250.298 8.0616 250.34 8.05306L250.571 9.10829C250.497 9.13677 250.392 9.16525 250.255 9.19373C250.118 9.22506 249.947 9.24215 249.742 9.245C249.406 9.25069 249.093 9.19088 248.802 9.06556C248.512 8.94025 248.277 8.74657 248.098 8.48455C247.918 8.22252 247.828 7.89356 247.828 7.49767V1.02531ZM254.558 9.29199C253.943 9.29199 253.406 9.15101 252.948 8.86904C252.489 8.58708 252.133 8.19261 251.879 7.68565C251.626 7.17868 251.499 6.58627 251.499 5.90842C251.499 5.22772 251.626 4.63246 251.879 4.12265C252.133 3.61283 252.489 3.21694 252.948 2.93498C253.406 2.65302 253.943 2.51203 254.558 2.51203C255.173 2.51203 255.71 2.65302 256.169 2.93498C256.627 3.21694 256.983 3.61283 257.237 4.12265C257.49 4.63246 257.617 5.22772 257.617 5.90842C257.617 6.58627 257.49 7.17868 257.237 7.68565C256.983 8.19261 256.627 8.58708 256.169 8.86904C255.71 9.15101 255.173 9.29199 254.558 9.29199ZM254.562 8.21967C254.961 8.21967 255.292 8.11429 255.554 7.90353C255.816 7.69277 256.009 7.41223 256.135 7.06191C256.263 6.71159 256.327 6.32567 256.327 5.90415C256.327 5.48547 256.263 5.10098 256.135 4.75066C256.009 4.39749 255.816 4.1141 255.554 3.90049C255.292 3.68688 254.961 3.58008 254.562 3.58008C254.161 3.58008 253.828 3.68688 253.563 3.90049C253.301 4.1141 253.106 4.39749 252.977 4.75066C252.852 5.10098 252.789 5.48547 252.789 5.90415C252.789 6.32567 252.852 6.71159 252.977 7.06191C253.106 7.41223 253.301 7.69277 253.563 7.90353C253.828 8.11429 254.161 8.21967 254.562 8.21967ZM259.043 9.15955V2.59748H260.269V3.66552H260.35C260.487 3.30381 260.71 3.02185 261.021 2.81963C261.331 2.61457 261.703 2.51203 262.136 2.51203C262.575 2.51203 262.942 2.61457 263.238 2.81963C263.537 3.02469 263.758 3.30666 263.9 3.66552H263.969C264.125 3.3152 264.375 3.03609 264.716 2.82817C265.058 2.61741 265.465 2.51203 265.938 2.51203C266.533 2.51203 267.019 2.69859 267.395 3.07169C267.774 3.44479 267.963 4.0073 267.963 4.7592V9.15955H266.686V4.87882C266.686 4.43452 266.565 4.11268 266.323 3.91331C266.081 3.71394 265.791 3.61426 265.455 3.61426C265.04 3.61426 264.716 3.74242 264.486 3.99875C264.255 4.25224 264.14 4.57835 264.14 4.97708V9.15955H262.866V4.79765C262.866 4.44164 262.755 4.1554 262.533 3.93894C262.311 3.72249 262.022 3.61426 261.666 3.61426C261.424 3.61426 261.2 3.67834 260.995 3.8065C260.793 3.93182 260.629 4.10698 260.504 4.33198C260.381 4.55699 260.32 4.81759 260.32 5.11379V9.15955H259.043ZM272.503 9.29199C271.857 9.29199 271.3 9.15386 270.833 8.87759C270.369 8.59847 270.01 8.20685 269.756 7.70274C269.506 7.19577 269.38 6.60194 269.38 5.92124C269.38 5.24908 269.506 4.65667 269.756 4.14401C270.01 3.63135 270.363 3.23118 270.816 2.94352C271.272 2.65586 271.804 2.51203 272.414 2.51203C272.784 2.51203 273.143 2.57327 273.49 2.69574C273.838 2.81821 274.15 3.01045 274.426 3.27248C274.702 3.53451 274.92 3.87486 275.08 4.29353C275.239 4.70936 275.319 5.2149 275.319 5.81016V6.26301H270.102V5.30604H274.067C274.067 4.96996 273.999 4.67233 273.862 4.41316C273.725 4.15113 273.533 3.94464 273.285 3.79369C273.04 3.64274 272.753 3.56726 272.422 3.56726C272.063 3.56726 271.75 3.65555 271.482 3.83214C271.218 4.00587 271.012 4.23372 270.867 4.51569C270.725 4.7948 270.654 5.09813 270.654 5.42566V6.17329C270.654 6.61191 270.73 6.98501 270.884 7.29261C271.041 7.6002 271.259 7.83517 271.538 7.99752C271.817 8.15701 272.143 8.23676 272.516 8.23676C272.758 8.23676 272.979 8.20258 273.178 8.13423C273.378 8.06302 273.55 7.95764 273.695 7.81809C273.841 7.67853 273.952 7.50622 274.029 7.30115L275.238 7.51903C275.141 7.87505 274.967 8.18692 274.716 8.45464C274.469 8.71952 274.157 8.92601 273.781 9.07411C273.408 9.21936 272.982 9.29199 272.503 9.29199ZM276.736 9.15955V2.59748H277.971V3.63989H278.039C278.159 3.28672 278.369 3.00903 278.671 2.80681C278.976 2.60175 279.321 2.49922 279.705 2.49922C279.785 2.49922 279.879 2.50206 279.987 2.50776C280.098 2.51346 280.185 2.52058 280.248 2.52912V3.75097C280.197 3.73673 280.105 3.72106 279.974 3.70397C279.843 3.68404 279.712 3.67407 279.581 3.67407C279.279 3.67407 279.01 3.73815 278.774 3.86632C278.54 3.99163 278.355 4.16679 278.219 4.39179C278.082 4.61395 278.013 4.86743 278.013 5.15224V9.15955H276.736ZM289.454 4.19955L288.297 4.40461C288.248 4.25651 288.171 4.11553 288.066 3.98166C287.963 3.8478 287.824 3.73815 287.647 3.65271C287.471 3.56726 287.25 3.52454 286.985 3.52454C286.623 3.52454 286.321 3.60571 286.079 3.76806C285.837 3.92755 285.716 4.13404 285.716 4.38752C285.716 4.60683 285.797 4.78341 285.96 4.91727C286.122 5.05113 286.384 5.16079 286.746 5.24623L287.788 5.48547C288.392 5.62503 288.842 5.84006 289.138 6.13057C289.434 6.42108 289.583 6.79846 289.583 7.2627C289.583 7.65574 289.469 8.00606 289.241 8.31366C289.016 8.61841 288.701 8.85765 288.297 9.03139C287.895 9.20512 287.429 9.29199 286.9 9.29199C286.165 9.29199 285.565 9.13534 285.101 8.82205C284.637 8.50591 284.352 8.05733 284.247 7.47631L285.481 7.28834C285.558 7.61017 285.716 7.85369 285.955 8.01888C286.195 8.18122 286.507 8.26239 286.891 8.26239C287.31 8.26239 287.644 8.17553 287.895 8.00179C288.146 7.82521 288.271 7.61017 288.271 7.35669C288.271 7.15163 288.194 6.97931 288.04 6.83976C287.889 6.7002 287.657 6.59482 287.344 6.52361L286.233 6.2801C285.621 6.14054 285.168 5.91839 284.875 5.61364C284.584 5.30889 284.439 4.92297 284.439 4.45588C284.439 4.06853 284.547 3.72961 284.764 3.4391C284.98 3.14859 285.279 2.92216 285.661 2.75982C286.042 2.59463 286.48 2.51203 286.972 2.51203C287.681 2.51203 288.24 2.66583 288.647 2.97343C289.054 3.27818 289.323 3.68688 289.454 4.19955ZM295.144 6.43817V2.59748H296.426V9.15955H295.17V8.02315H295.101C294.95 8.37347 294.708 8.6654 294.375 8.89895C294.044 9.12965 293.633 9.245 293.14 9.245C292.719 9.245 292.346 9.15243 292.021 8.9673C291.699 8.77933 291.446 8.50164 291.26 8.13423C291.078 7.76682 290.987 7.31254 290.987 6.7714V2.59748H292.264V6.6176C292.264 7.06476 292.388 7.42077 292.636 7.68565C292.884 7.95052 293.206 8.08296 293.602 8.08296C293.841 8.08296 294.079 8.02315 294.315 7.90353C294.554 7.78391 294.752 7.60305 294.909 7.36096C295.068 7.11887 295.147 6.81127 295.144 6.43817ZM298.142 11.6203V2.59748H299.389V3.66125H299.496C299.57 3.52454 299.677 3.36647 299.817 3.18704C299.956 3.00761 300.15 2.85096 300.398 2.7171C300.645 2.58039 300.973 2.51203 301.38 2.51203C301.91 2.51203 302.383 2.6459 302.799 2.91362C303.214 3.18134 303.54 3.56726 303.777 4.07138C304.016 4.5755 304.136 5.18215 304.136 5.89133C304.136 6.60051 304.018 7.20859 303.781 7.71555C303.545 8.21967 303.22 8.60844 302.807 8.88186C302.394 9.15243 301.923 9.28772 301.393 9.28772C300.994 9.28772 300.668 9.22079 300.415 9.08692C300.164 8.95306 299.968 8.79642 299.825 8.61698C299.683 8.43755 299.573 8.27806 299.496 8.1385H299.419V11.6203H298.142ZM299.394 5.87851C299.394 6.33991 299.461 6.74434 299.594 7.09181C299.728 7.43929 299.922 7.71128 300.175 7.9078C300.429 8.10147 300.739 8.19831 301.107 8.19831C301.488 8.19831 301.807 8.0972 302.064 7.89499C302.32 7.68992 302.514 7.41223 302.645 7.06191C302.779 6.71159 302.846 6.31713 302.846 5.87851C302.846 5.4456 302.78 5.05683 302.649 4.71221C302.521 4.36758 302.327 4.09559 302.068 3.89622C301.812 3.69685 301.491 3.59717 301.107 3.59717C300.737 3.59717 300.423 3.69258 300.167 3.8834C299.913 4.07423 299.721 4.34053 299.59 4.6823C299.459 5.02408 299.394 5.42281 299.394 5.87851ZM305.567 11.6203V2.59748H306.814V3.66125H306.921C306.995 3.52454 307.102 3.36647 307.242 3.18704C307.381 3.00761 307.575 2.85096 307.823 2.7171C308.07 2.58039 308.398 2.51203 308.805 2.51203C309.335 2.51203 309.808 2.6459 310.224 2.91362C310.639 3.18134 310.966 3.56726 311.202 4.07138C311.441 4.5755 311.561 5.18215 311.561 5.89133C311.561 6.60051 311.443 7.20859 311.206 7.71555C310.97 8.21967 310.645 8.60844 310.232 8.88186C309.819 9.15243 309.348 9.28772 308.818 9.28772C308.419 9.28772 308.093 9.22079 307.84 9.08692C307.589 8.95306 307.393 8.79642 307.25 8.61698C307.108 8.43755 306.998 8.27806 306.921 8.1385H306.844V11.6203H305.567ZM306.819 5.87851C306.819 6.33991 306.886 6.74434 307.019 7.09181C307.153 7.43929 307.347 7.71128 307.6 7.9078C307.854 8.10147 308.164 8.19831 308.532 8.19831C308.913 8.19831 309.232 8.0972 309.489 7.89499C309.745 7.68992 309.939 7.41223 310.07 7.06191C310.204 6.71159 310.271 6.31713 310.271 5.87851C310.271 5.4456 310.205 5.05683 310.074 4.71221C309.946 4.36758 309.752 4.09559 309.493 3.89622C309.237 3.69685 308.916 3.59717 308.532 3.59717C308.162 3.59717 307.848 3.69258 307.592 3.8834C307.338 4.07423 307.146 4.34053 307.015 4.6823C306.884 5.02408 306.819 5.42281 306.819 5.87851ZM315.756 9.29199C315.141 9.29199 314.604 9.15101 314.145 8.86904C313.687 8.58708 313.331 8.19261 313.077 7.68565C312.824 7.17868 312.697 6.58627 312.697 5.90842C312.697 5.22772 312.824 4.63246 313.077 4.12265C313.331 3.61283 313.687 3.21694 314.145 2.93498C314.604 2.65302 315.141 2.51203 315.756 2.51203C316.371 2.51203 316.908 2.65302 317.367 2.93498C317.825 3.21694 318.181 3.61283 318.435 4.12265C318.688 4.63246 318.815 5.22772 318.815 5.90842C318.815 6.58627 318.688 7.17868 318.435 7.68565C318.181 8.19261 317.825 8.58708 317.367 8.86904C316.908 9.15101 316.371 9.29199 315.756 9.29199ZM315.76 8.21967C316.159 8.21967 316.489 8.11429 316.752 7.90353C317.014 7.69277 317.207 7.41223 317.333 7.06191C317.461 6.71159 317.525 6.32567 317.525 5.90415C317.525 5.48547 317.461 5.10098 317.333 4.75066C317.207 4.39749 317.014 4.1141 316.752 3.90049C316.489 3.68688 316.159 3.58008 315.76 3.58008C315.359 3.58008 315.026 3.68688 314.761 3.90049C314.499 4.1141 314.304 4.39749 314.175 4.75066C314.05 5.10098 313.987 5.48547 313.987 5.90415C313.987 6.32567 314.05 6.71159 314.175 7.06191C314.304 7.41223 314.499 7.69277 314.761 7.90353C315.026 8.11429 315.359 8.21967 315.76 8.21967ZM320.241 9.15955V2.59748H321.475V3.63989H321.544C321.663 3.28672 321.874 3.00903 322.176 2.80681C322.481 2.60175 322.825 2.49922 323.21 2.49922C323.29 2.49922 323.384 2.50206 323.492 2.50776C323.603 2.51346 323.69 2.52058 323.753 2.52912V3.75097C323.701 3.73673 323.61 3.72106 323.479 3.70397C323.348 3.68404 323.217 3.67407 323.086 3.67407C322.784 3.67407 322.515 3.73815 322.279 3.86632C322.045 3.99163 321.86 4.16679 321.723 4.39179C321.587 4.61395 321.518 4.86743 321.518 5.15224V9.15955H320.241ZM328.309 2.59748V3.6228H324.724V2.59748H328.309ZM325.686 1.02531H326.963V7.2328C326.963 7.48058 327 7.66714 327.074 7.79245C327.148 7.91492 327.244 7.99894 327.36 8.04451C327.48 8.08723 327.61 8.10859 327.749 8.10859C327.852 8.10859 327.941 8.10147 328.018 8.08723C328.095 8.07299 328.155 8.0616 328.198 8.05306L328.428 9.10829C328.354 9.13677 328.249 9.16525 328.112 9.19373C327.976 9.22506 327.805 9.24215 327.6 9.245C327.264 9.25069 326.95 9.19088 326.66 9.06556C326.369 8.94025 326.134 8.74657 325.955 8.48455C325.775 8.22252 325.686 7.89356 325.686 7.49767V1.02531ZM335.969 2.59748V3.6228H332.385V2.59748H335.969ZM333.346 1.02531H334.623V7.2328C334.623 7.48058 334.66 7.66714 334.734 7.79245C334.808 7.91492 334.904 7.99894 335.02 8.04451C335.14 8.08723 335.27 8.10859 335.409 8.10859C335.512 8.10859 335.601 8.10147 335.678 8.08723C335.755 8.07299 335.815 8.0616 335.858 8.05306L336.088 9.10829C336.014 9.13677 335.909 9.16525 335.772 9.19373C335.636 9.22506 335.465 9.24215 335.26 9.245C334.924 9.25069 334.61 9.19088 334.32 9.06556C334.029 8.94025 333.794 8.74657 333.615 8.48455C333.435 8.22252 333.346 7.89356 333.346 7.49767V1.02531ZM340.14 9.29199C339.493 9.29199 338.936 9.15386 338.469 8.87759C338.005 8.59847 337.646 8.20685 337.393 7.70274C337.142 7.19577 337.017 6.60194 337.017 5.92124C337.017 5.24908 337.142 4.65667 337.393 4.14401C337.646 3.63135 337.999 3.23118 338.452 2.94352C338.908 2.65586 339.44 2.51203 340.05 2.51203C340.42 2.51203 340.779 2.57327 341.126 2.69574C341.474 2.81821 341.786 3.01045 342.062 3.27248C342.338 3.53451 342.556 3.87486 342.716 4.29353C342.875 4.70936 342.955 5.2149 342.955 5.81016V6.26301H337.739V5.30604H341.703C341.703 4.96996 341.635 4.67233 341.498 4.41316C341.361 4.15113 341.169 3.94464 340.921 3.79369C340.676 3.64274 340.389 3.56726 340.058 3.56726C339.7 3.56726 339.386 3.65555 339.119 3.83214C338.854 4.00587 338.649 4.23372 338.503 4.51569C338.361 4.7948 338.29 5.09813 338.29 5.42566V6.17329C338.29 6.61191 338.367 6.98501 338.52 7.29261C338.677 7.6002 338.895 7.83517 339.174 7.99752C339.453 8.15701 339.779 8.23676 340.152 8.23676C340.394 8.23676 340.615 8.20258 340.815 8.13423C341.014 8.06302 341.186 7.95764 341.332 7.81809C341.477 7.67853 341.588 7.50622 341.665 7.30115L342.874 7.51903C342.777 7.87505 342.603 8.18692 342.353 8.45464C342.105 8.71952 341.793 8.92601 341.417 9.07411C341.044 9.21936 340.618 9.29199 340.14 9.29199ZM346.282 9.30481C345.866 9.30481 345.49 9.22791 345.154 9.07411C344.818 8.91746 344.552 8.69104 344.355 8.39483C344.161 8.09863 344.065 7.73549 344.065 7.30542C344.065 6.93517 344.136 6.63042 344.278 6.39118C344.421 6.15193 344.613 5.96253 344.855 5.82298C345.097 5.68342 345.368 5.57804 345.667 5.50683C345.966 5.43563 346.271 5.38152 346.581 5.34449C346.974 5.29892 347.293 5.2619 347.538 5.23341C347.783 5.20209 347.961 5.15224 348.072 5.08389C348.183 5.01553 348.239 4.90446 348.239 4.75066V4.72075C348.239 4.34765 348.133 4.05856 347.922 3.8535C347.715 3.64843 347.404 3.5459 346.991 3.5459C346.561 3.5459 346.222 3.64131 345.974 3.83214C345.729 4.02011 345.56 4.22945 345.466 4.46015L344.265 4.18673C344.408 3.78799 344.616 3.46615 344.889 3.22122C345.165 2.97343 345.483 2.794 345.842 2.68292C346.201 2.569 346.578 2.51203 346.974 2.51203C347.236 2.51203 347.514 2.54336 347.807 2.60602C348.103 2.66583 348.38 2.77691 348.636 2.93925C348.895 3.10159 349.107 3.33372 349.272 3.63562C349.438 3.93467 349.52 4.32344 349.52 4.80192V9.15955H348.273V8.26239H348.221C348.139 8.42758 348.015 8.58993 347.85 8.74942C347.685 8.90892 347.472 9.04135 347.213 9.14674C346.954 9.25212 346.644 9.30481 346.282 9.30481ZM346.56 8.27948C346.913 8.27948 347.215 8.2097 347.465 8.07014C347.719 7.93059 347.911 7.74831 348.042 7.52331C348.176 7.29546 348.243 7.05194 348.243 6.79276V5.94687C348.197 5.99244 348.109 6.03516 347.978 6.07503C347.85 6.11206 347.703 6.14481 347.538 6.17329C347.373 6.19893 347.212 6.22314 347.055 6.24592C346.899 6.26586 346.768 6.28295 346.662 6.29719C346.414 6.32852 346.188 6.38121 345.983 6.45526C345.781 6.52931 345.618 6.63611 345.496 6.77567C345.376 6.91238 345.316 7.09466 345.316 7.32251C345.316 7.63865 345.433 7.8779 345.667 8.04024C345.9 8.19973 346.198 8.27948 346.56 8.27948ZM351.222 9.15955V2.59748H352.448V3.66552H352.529C352.666 3.30381 352.889 3.02185 353.2 2.81963C353.51 2.61457 353.882 2.51203 354.315 2.51203C354.753 2.51203 355.121 2.61457 355.417 2.81963C355.716 3.02469 355.937 3.30666 356.079 3.66552H356.147C356.304 3.3152 356.553 3.03609 356.895 2.82817C357.237 2.61741 357.644 2.51203 358.117 2.51203C358.712 2.51203 359.198 2.69859 359.574 3.07169C359.953 3.44479 360.142 4.0073 360.142 4.7592V9.15955H358.865V4.87882C358.865 4.43452 358.744 4.11268 358.501 3.91331C358.259 3.71394 357.97 3.61426 357.634 3.61426C357.218 3.61426 356.895 3.74242 356.664 3.99875C356.434 4.25224 356.318 4.57835 356.318 4.97708V9.15955H355.045V4.79765C355.045 4.44164 354.934 4.1554 354.712 3.93894C354.49 3.72249 354.201 3.61426 353.845 3.61426C353.603 3.61426 353.379 3.67834 353.174 3.8065C352.972 3.93182 352.808 4.10698 352.683 4.33198C352.56 4.55699 352.499 4.81759 352.499 5.11379V9.15955H351.222ZM366.771 4.19955L365.614 4.40461C365.565 4.25651 365.488 4.11553 365.383 3.98166C365.28 3.8478 365.141 3.73815 364.964 3.65271C364.788 3.56726 364.567 3.52454 364.302 3.52454C363.94 3.52454 363.638 3.60571 363.396 3.76806C363.154 3.92755 363.033 4.13404 363.033 4.38752C363.033 4.60683 363.114 4.78341 363.277 4.91727C363.439 5.05113 363.701 5.16079 364.063 5.24623L365.105 5.48547C365.709 5.62503 366.159 5.84006 366.455 6.13057C366.751 6.42108 366.899 6.79846 366.899 7.2627C366.899 7.65574 366.786 8.00606 366.558 8.31366C366.333 8.61841 366.018 8.85765 365.614 9.03139C365.212 9.20512 364.746 9.29199 364.217 9.29199C363.482 9.29199 362.882 9.13534 362.418 8.82205C361.954 8.50591 361.669 8.05733 361.564 7.47631L362.798 7.28834C362.875 7.61017 363.033 7.85369 363.272 8.01888C363.512 8.18122 363.824 8.26239 364.208 8.26239C364.627 8.26239 364.961 8.17553 365.212 8.00179C365.463 7.82521 365.588 7.61017 365.588 7.35669C365.588 7.15163 365.511 6.97931 365.357 6.83976C365.206 6.7002 364.974 6.59482 364.661 6.52361L363.55 6.2801C362.938 6.14054 362.485 5.91839 362.192 5.61364C361.901 5.30889 361.756 4.92297 361.756 4.45588C361.756 4.06853 361.864 3.72961 362.08 3.4391C362.297 3.14859 362.596 2.92216 362.978 2.75982C363.359 2.59463 363.796 2.51203 364.289 2.51203C364.998 2.51203 365.557 2.66583 365.964 2.97343C366.371 3.27818 366.64 3.68688 366.771 4.19955ZM369.146 9.24072C368.912 9.24072 368.711 9.15813 368.543 8.99294C368.375 8.8249 368.291 8.62268 368.291 8.38629C368.291 8.15274 368.375 7.95337 368.543 7.78818C368.711 7.62014 368.912 7.53612 369.146 7.53612C369.379 7.53612 369.58 7.62014 369.748 7.78818C369.916 7.95337 370 8.15274 370 8.38629C370 8.54293 369.96 8.68676 369.88 8.81778C369.803 8.94594 369.701 9.04848 369.573 9.12537C369.445 9.20227 369.302 9.24072 369.146 9.24072Z" fill="#363636"/>
<path d="M37.5322 1.73877V0.410118H44.513V1.73877H41.8087V9.15955H40.2365V1.73877H37.5322ZM45.109 9.15955V2.59748H46.6085V3.69116H46.6768C46.7965 3.31236 47.0015 3.02042 47.292 2.81536C47.5854 2.60745 47.92 2.50349 48.296 2.50349C48.3814 2.50349 48.4769 2.50776 48.5822 2.5163C48.6905 2.522 48.7802 2.53197 48.8514 2.54621V3.96885C48.7859 3.94606 48.6819 3.92613 48.5395 3.90904C48.4 3.8891 48.2647 3.87913 48.1337 3.87913C47.8517 3.87913 47.5982 3.94037 47.3732 4.06284C47.1511 4.18246 46.9759 4.34907 46.8477 4.56268C46.7196 4.77629 46.6555 5.02265 46.6555 5.30177V9.15955H45.109ZM52.471 9.28772C51.8302 9.28772 51.2748 9.14674 50.8048 8.86477C50.3349 8.58281 49.9703 8.18834 49.7112 7.68138C49.4548 7.17441 49.3267 6.582 49.3267 5.90415C49.3267 5.22629 49.4548 4.63246 49.7112 4.12265C49.9703 3.61283 50.3349 3.21694 50.8048 2.93498C51.2748 2.65302 51.8302 2.51203 52.471 2.51203C53.1118 2.51203 53.6672 2.65302 54.1371 2.93498C54.6071 3.21694 54.9702 3.61283 55.2266 4.12265C55.4857 4.63246 55.6153 5.22629 55.6153 5.90415C55.6153 6.582 55.4857 7.17441 55.2266 7.68138C54.9702 8.18834 54.6071 8.58281 54.1371 8.86477C53.6672 9.14674 53.1118 9.28772 52.471 9.28772ZM52.4795 8.04878C52.827 8.04878 53.1175 7.95337 53.3511 7.76255C53.5846 7.56888 53.7583 7.3097 53.8723 6.98501C53.989 6.66032 54.0474 6.29861 54.0474 5.89988C54.0474 5.49829 53.989 5.13515 53.8723 4.81047C53.7583 4.48293 53.5846 4.22233 53.3511 4.02866C53.1175 3.83499 52.827 3.73815 52.4795 3.73815C52.1235 3.73815 51.8273 3.83499 51.5909 4.02866C51.3574 4.22233 51.1822 4.48293 51.0654 4.81047C50.9515 5.13515 50.8946 5.49829 50.8946 5.89988C50.8946 6.29861 50.9515 6.66032 51.0654 6.98501C51.1822 7.3097 51.3574 7.56888 51.5909 7.76255C51.8273 7.95337 52.1235 8.04878 52.4795 8.04878ZM62.5662 2.59748L60.2293 9.15955H58.5204L56.1835 2.59748H57.8326L59.3407 7.47204H59.409L60.9214 2.59748H62.5662ZM66.3182 9.28772C65.6603 9.28772 65.0921 9.15101 64.6136 8.87759C64.138 8.60132 63.772 8.21113 63.5157 7.70701C63.2593 7.20004 63.1312 6.60336 63.1312 5.91696C63.1312 5.24196 63.2593 4.64955 63.5157 4.13974C63.7748 3.62707 64.1365 3.22834 64.6008 2.94352C65.065 2.65586 65.6105 2.51203 66.237 2.51203C66.6415 2.51203 67.0231 2.57754 67.382 2.70855C67.7437 2.83672 68.0627 3.03609 68.339 3.30666C68.6181 3.57723 68.8374 3.92185 68.9969 4.34053C69.1564 4.75635 69.2361 5.25193 69.2361 5.82725V6.30146H63.8574V5.25905H67.7537C67.7508 4.96284 67.6867 4.69939 67.5614 4.46869C67.4361 4.23515 67.2609 4.05144 67.0359 3.91758C66.8138 3.78372 66.5546 3.71679 66.2584 3.71679C65.9423 3.71679 65.6646 3.79369 65.4253 3.94749C65.1861 4.09844 64.9995 4.29781 64.8657 4.54559C64.7347 4.79053 64.6677 5.05968 64.6649 5.35304V6.26301C64.6649 6.64466 64.7347 6.97219 64.8742 7.24561C65.0138 7.51618 65.2089 7.7241 65.4595 7.86935C65.7101 8.01176 66.0035 8.08296 66.3396 8.08296C66.5646 8.08296 66.7682 8.05163 66.9505 7.98897C67.1328 7.92347 67.2908 7.82805 67.4247 7.70274C67.5586 7.57742 67.6597 7.4222 67.728 7.23707L69.172 7.39941C69.0809 7.78106 68.9072 8.11429 68.6508 8.3991C68.3973 8.68107 68.0727 8.90037 67.6768 9.05702C67.2809 9.21082 66.828 9.28772 66.3182 9.28772ZM71.6681 2.59748L72.9924 5.01981L74.3382 2.59748H75.9744L73.9964 5.87851L76.0086 9.15955H74.3809L72.9924 6.79703L71.6168 9.15955H69.9763L71.9757 5.87851L70.0275 2.59748H71.6681ZM81.3467 9.15955H79.6549L82.7351 0.410118H84.6918L87.7763 9.15955H86.0845L83.7477 2.20444H83.6793L81.3467 9.15955ZM81.4022 5.72899H86.0162V7.0021H81.4022V5.72899ZM90.5137 0.410118V9.15955H88.9287V0.410118H90.5137Z" fill="url(#paint0_linear_3_3507)"/>
<defs>
<linearGradient id="paint0_linear_3_3507" x1="331.085" y1="-1.78343" x2="331.085" y2="12.0954" gradientUnits="userSpaceOnUse">
<stop offset="0.085" stop-color="#8254F3"/>
<stop offset="1" stop-color="#C73FA2"/>
</linearGradient>
</defs>
</svg>
