<svg width="41" height="40" viewBox="0 0 41 40" fill="none" xmlns="http://www.w3.org/2000/svg">
<g clip-path="url(#clip0_3_3825)">
<path d="M25.338 18.32V15.68C25.338 13.04 23.124 10.96 20.5 10.96C17.876 10.96 15.662 13.12 15.662 15.68V18.32H12.956V29.84H28.126V18.32H25.338ZM21.566 25.6V27.52H19.926V25.6C18.86 25.28 18.122 24.32 18.122 23.2C18.122 21.76 19.27 20.64 20.746 20.64C22.222 20.64 23.37 21.76 23.37 23.2C23.288 24.24 22.55 25.2 21.566 25.6ZM23.698 18.32H17.22V15.68C17.22 13.92 18.696 12.56 20.418 12.56C22.222 12.56 23.616 14 23.616 15.68V18.32H23.698Z" fill="white"/>
<path d="M21.648 23.1202C21.648 23.6802 21.238 24.0802 20.664 24.0802C20.09 24.0802 19.68 23.6802 19.68 23.1202C19.68 22.6402 20.09 22.1602 20.664 22.1602C21.238 22.2402 21.648 22.6402 21.648 23.1202ZM40.18 35.8402C40.18 37.5202 38.786 38.8002 37.146 38.8002C35.424 38.8002 34.112 37.4402 34.112 35.8402C34.112 34.4802 35.096 33.2802 36.326 32.9602V28.7202H30.668V27.1202H37.966V32.9602C39.196 33.2802 40.18 34.4002 40.18 35.8402ZM34.194 20.8002H30.586V19.2002H34.194C34.522 17.9202 35.752 17.0402 37.146 17.0402C38.868 17.0402 40.18 18.4002 40.18 20.0002C40.18 21.6002 38.786 22.9602 37.146 22.9602C35.67 22.9602 34.522 22.0802 34.194 20.8002ZM19.27 4.16019C19.27 5.5202 18.286 6.7202 17.056 7.04019V8.96019H15.416V7.04019C14.104 6.7202 13.202 5.5202 13.202 4.16019C13.202 2.4802 14.596 1.2002 16.236 1.2002C17.876 1.2002 19.27 2.5602 19.27 4.16019ZM4.67401 11.2802H12.054V12.8802H3.03401V7.04019C1.80401 6.7202 0.820007 5.5202 0.820007 4.16019C0.820007 2.4802 2.21401 1.2002 3.85401 1.2002C5.49401 1.2002 6.88801 2.5602 6.88801 4.16019C6.88801 5.5202 5.90401 6.7202 4.67401 7.04019V11.2802ZM40.18 4.16019C40.18 5.5202 39.196 6.7202 37.966 7.04019V12.8802H28.946V11.2802H36.244V7.04019C34.932 6.7202 34.03 5.5202 34.03 4.16019C34.03 2.4802 35.424 1.2002 37.064 1.2002C38.786 1.2002 40.18 2.5602 40.18 4.16019ZM27.798 4.16019C27.798 5.5202 26.814 6.7202 25.584 7.04019V8.96019H23.944V7.04019C22.632 6.7202 21.73 5.5202 21.73 4.16019C21.73 2.4802 23.124 1.2002 24.764 1.2002C26.404 1.2002 27.798 2.5602 27.798 4.16019ZM3.03401 27.1202H10.414V28.7202H4.67401V32.9602C5.98601 33.2802 6.88801 34.4802 6.88801 35.8402C6.88801 37.5202 5.49401 38.8002 3.85401 38.8002C2.21401 38.8002 0.820007 37.4402 0.820007 35.8402C0.820007 34.4802 1.80401 33.2802 3.03401 32.9602V27.1202ZM19.27 35.8402C19.27 37.5202 17.876 38.8002 16.236 38.8002C14.596 38.8002 13.202 37.4402 13.202 35.8402C13.202 34.4802 14.186 33.2802 15.416 32.9602V31.0402H17.056V32.9602C18.368 33.2802 19.27 34.4002 19.27 35.8402ZM27.798 35.8402C27.798 37.5202 26.404 38.8002 24.764 38.8002C23.124 38.8002 21.73 37.4402 21.73 35.8402C21.73 34.4802 22.714 33.2802 23.944 32.9602V31.0402H25.584V32.9602C26.896 33.2802 27.798 34.4002 27.798 35.8402ZM10.414 19.2002V20.8002H6.80601C6.47801 22.0802 5.24801 22.9602 3.85401 22.9602C2.21401 22.9602 0.820007 21.6802 0.820007 20.0002C0.820007 18.3202 2.21401 17.0402 3.85401 17.0402C5.24801 17.0402 6.39601 18.0002 6.80601 19.2002H10.414Z" fill="white"/>
</g>
<defs>
<clipPath id="clip0_3_3825">
<rect width="41" height="40" fill="white"/>
</clipPath>
</defs>
</svg>
