<svg width="526" height="100" viewBox="0 0 526 100" fill="none" xmlns="http://www.w3.org/2000/svg">
<path d="M14.2355 7.64191e-05H37.9864V6.15416H21.5435V13.991H37.4095V20.0489H21.5435V27.9819H38.371V34.136H14.2355V7.64191e-05ZM66.853 8.65425L57.4296 34.136H49.0158L39.5924 8.65425H47.0446L53.2468 26.9242L59.4489 8.65425H66.853ZM66.4379 21.3951C66.4379 13.366 71.5823 8.0773 79.5153 8.0773C86.5829 8.0773 92.0158 12.9813 91.9677 21.924V23.2702H73.9862C74.1785 27.0684 76.2459 29.3762 79.5153 29.3762C81.5827 29.3762 83.5058 28.1261 84.3232 26.203L91.6311 26.6838C90.0926 31.6359 85.3328 34.7129 79.5153 34.7129C71.5823 34.7129 66.4379 29.4243 66.4379 21.3951ZM74.0343 18.895H84.6597C84.2751 15.0487 82.0635 13.414 79.5153 13.414C76.4382 13.414 74.4189 15.4814 74.0343 18.895ZM94.6081 8.65425H101.483L101.628 13.7987C102.589 10.3851 104.512 8.65425 107.734 8.65425H110.089V14.0391H107.686C103.503 14.0391 101.82 16.0103 101.82 20.0008V34.136H94.6081V8.65425ZM110.912 8.65425H117.788L124.134 26.5876L130.288 8.65425H137.115L127.115 36.588C125.913 39.8574 123.701 41.3478 119.999 41.3478H115.432V36.1072H118.653C120.192 36.1072 121.009 35.6264 121.49 34.3764L122.115 32.8379H120.095L110.912 8.65425ZM142.223 2.83672H149.483V8.65425H156.118V13.991H149.483V25.8184C149.483 27.6934 150.445 28.7512 152.272 28.7512H156.166V34.136H150.733C145.108 34.136 142.223 31.3474 142.223 25.8184V13.991H138.089V8.65425H142.223V2.83672ZM158.791 7.64191e-05H166.003V11.9236C167.494 9.13504 170.234 8.0773 173.263 8.0773C178.6 8.0773 181.821 11.9717 181.821 17.7411V34.136H174.609V20.2893C174.609 16.1545 173.648 13.9429 170.667 13.9429C167.638 13.9429 166.003 16.2507 166.003 20.2893V34.136H158.791V7.64191e-05ZM186.18 8.65425H193.392V34.136H186.18V8.65425ZM186.036 5.33682V7.64191e-05H193.488V5.33682H186.036ZM197.088 8.65425H203.579L203.723 12.6929C205.118 9.32735 207.954 8.0773 211.368 8.0773C216.897 8.0773 220.118 11.8274 220.118 17.7411V34.136H212.906V20.1451C212.906 16.0584 211.993 13.7987 208.964 13.7987C205.935 13.7987 204.3 16.0584 204.3 20.1451V34.136H197.088V8.65425ZM233.579 32.9821C226.992 32.9821 222.569 28.0781 222.569 20.8182C222.569 13.2217 226.944 8.0773 233.579 8.0773C236.848 8.0773 239.637 9.76006 240.983 12.5967V8.65425H248.098V31.0589C248.098 37.838 242.858 41.8767 235.358 41.8767C229.396 41.8767 224.78 39.0881 223.338 34.7129L230.694 34.1841C231.319 35.8668 233.098 36.9246 235.454 36.9246C238.867 36.9246 240.838 35.2418 240.838 31.7801V29.0396C239.588 31.3955 236.752 32.9821 233.579 32.9821ZM229.973 20.7701C229.973 25.1933 232.232 28.03 235.55 28.03C238.915 28.03 241.079 25.1933 241.079 20.7701C241.175 16.2988 238.963 13.5102 235.55 13.5102C232.136 13.5102 229.973 16.2988 229.973 20.7701ZM259.155 8.65425H266.03L272.377 26.5876L278.531 8.65425H285.358L275.358 36.588C274.156 39.8574 271.944 41.3478 268.242 41.3478H263.675V36.1072H266.896C268.434 36.1072 269.252 35.6264 269.732 34.3764L270.357 32.8379H268.338L259.155 8.65425ZM297.998 34.7129C290.113 34.7129 284.921 29.4723 284.921 21.3951C284.921 13.3179 290.113 8.0773 297.998 8.0773C305.883 8.0773 311.076 13.3179 311.076 21.3951C311.076 29.4723 305.883 34.7129 297.998 34.7129ZM292.325 21.3951C292.325 26.3472 294.392 29.1839 297.998 29.1839C301.604 29.1839 303.623 26.3472 303.623 21.3951C303.623 16.443 301.604 13.6064 297.998 13.6064C294.392 13.6064 292.325 16.443 292.325 21.3951ZM336.446 34.136H329.859L329.715 30.1454C328.321 33.4629 325.532 34.7129 322.215 34.7129C316.782 34.7129 313.56 30.9628 313.56 25.0491V8.65425H320.772V22.6452C320.772 26.7319 321.638 28.9916 324.619 28.9916C327.599 28.9916 329.234 26.7319 329.234 22.6452V8.65425H336.446V34.136ZM349.745 8.65425H356.235L356.38 12.6929C357.774 9.32735 360.611 8.0773 364.024 8.0773C369.553 8.0773 372.774 11.8274 372.774 17.7411V34.136H365.563V20.1451C365.563 16.0584 364.649 13.7987 361.62 13.7987C358.591 13.7987 356.957 16.0584 356.957 20.1451V34.136H349.745V8.65425ZM375.225 21.3951C375.225 13.366 380.369 8.0773 388.302 8.0773C395.37 8.0773 400.803 12.9813 400.755 21.924V23.2702H382.773C382.966 27.0684 385.033 29.3762 388.302 29.3762C390.37 29.3762 392.293 28.1261 393.11 26.203L400.418 26.6838C398.88 31.6359 394.12 34.7129 388.302 34.7129C380.369 34.7129 375.225 29.4243 375.225 21.3951ZM382.821 18.895H393.447C393.062 15.0487 390.85 13.414 388.302 13.414C385.225 13.414 383.206 15.4814 382.821 18.895ZM402.52 21.3951C402.52 13.366 407.664 8.0773 415.597 8.0773C422.665 8.0773 428.097 12.9813 428.049 21.924V23.2702H410.068C410.26 27.0684 412.328 29.3762 415.597 29.3762C417.664 29.3762 419.587 28.1261 420.405 26.203L427.713 26.6838C426.174 31.6359 421.414 34.7129 415.597 34.7129C407.664 34.7129 402.52 29.4243 402.52 21.3951ZM410.116 18.895H420.741C420.357 15.0487 418.145 13.414 415.597 13.414C412.52 13.414 410.501 15.4814 410.116 18.895ZM455.344 7.64191e-05V34.136H448.469L448.325 30.4339C446.882 33.1263 443.997 34.7129 440.584 34.7129C433.949 34.7129 429.814 29.5685 429.814 21.3951C429.814 13.2217 433.949 8.0773 440.584 8.0773C443.805 8.0773 446.642 9.61582 448.132 12.2121V7.64191e-05H455.344ZM437.218 21.3951C437.218 26.1549 439.526 29.232 442.844 29.232C446.353 29.232 448.565 26.1549 448.565 21.3951C448.565 16.5392 446.353 13.4621 442.844 13.4621C439.43 13.4621 437.218 16.5392 437.218 21.3951ZM471.544 2.83672H478.804V8.65425H485.439V13.991H478.804V25.8184C478.804 27.6934 479.766 28.7512 481.593 28.7512H485.487V34.136H480.054C474.429 34.136 471.544 31.3474 471.544 25.8184V13.991H467.409V8.65425H471.544V2.83672ZM499.375 34.7129C491.49 34.7129 486.297 29.4723 486.297 21.3951C486.297 13.3179 491.49 8.0773 499.375 8.0773C507.26 8.0773 512.452 13.3179 512.452 21.3951C512.452 29.4723 507.26 34.7129 499.375 34.7129ZM493.701 21.3951C493.701 26.3472 495.769 29.1839 499.375 29.1839C502.981 29.1839 505 26.3472 505 21.3951C505 16.443 502.981 13.6064 499.375 13.6064C495.769 13.6064 493.701 16.443 493.701 21.3951Z" fill="black"/>
<path d="M28.1261 79.923C28.1261 87.904 22.6932 93.0004 14.0871 93.0004C5.4329 93.0004 -5.37322e-07 87.904 -5.37322e-07 79.923V58.0471H7.30797V79.923C7.30797 84.4424 9.80806 86.8463 14.0871 86.8463C18.318 86.8463 20.8181 84.4424 20.8181 79.923V58.0471H28.1261V79.923ZM32.1386 99.4429V66.7494H39.0139L39.1581 70.5476C40.5524 67.711 43.2448 66.1724 46.7546 66.1724C53.9664 66.1724 57.6684 71.99 57.6684 79.4903C57.6684 86.9905 53.9664 92.8081 46.7546 92.8081C43.4371 92.8081 40.8409 91.3176 39.3504 88.5771V99.4429H32.1386ZM38.8697 79.4903C38.8697 83.7212 40.6967 87.3271 44.5429 87.3271C48.4373 87.3271 50.2162 83.7212 50.2162 79.4903C50.2162 75.3074 48.3412 71.6534 44.5429 71.6534C40.6967 71.6534 38.8697 75.3555 38.8697 79.4903ZM75.8939 75.0189C75.5093 72.615 73.4419 71.1726 71.2784 71.1726C69.0667 71.1726 67.3359 72.3265 67.4321 74.2016C67.5282 76.0767 69.6918 76.894 72.1438 77.3267C79.6441 78.4806 83.298 80.4518 83.298 85.2597C83.298 90.3561 78.5382 92.8081 71.9995 92.8081C64.5473 92.8081 59.7875 89.5868 59.4029 84.1539L66.6628 83.8173C67.0955 86.2694 68.9225 87.7598 71.8072 87.7598C73.7304 87.7598 75.942 86.9905 75.8939 85.1155C75.8458 82.9519 73.3938 82.5192 70.9418 81.9904C63.8742 80.6442 60.0279 78.8652 60.0279 74.2016C60.0279 69.1533 64.2589 66.1244 71.5668 66.1244C77.9613 66.1244 82.2884 69.3456 83.1057 74.7305L75.8939 75.0189ZM85.9299 58.0952H93.1417V77.0863L102.613 66.7494H111.219L101.219 77.1825L111.652 92.2311H103.815L96.6514 81.2692L93.1417 85.0674V92.2311H85.9299V58.0952ZM115.056 66.7494H122.267V92.2311H115.056V66.7494ZM114.911 63.432V58.0952H122.364V63.432H114.911ZM126.575 58.0952H133.786V84.827C133.786 86.1251 134.508 86.8463 135.758 86.8463H137.585V92.2311H133.642C129.363 92.2311 126.575 89.683 126.575 85.1636V58.0952ZM140.347 58.0952H147.559V84.827C147.559 86.1251 148.28 86.8463 149.53 86.8463H151.357V92.2311H147.415C143.136 92.2311 140.347 89.683 140.347 85.1636V58.0952ZM160.893 66.7494H167.768L174.114 84.6828L180.268 66.7494H187.096L177.095 94.6831C175.893 97.9525 173.682 99.4429 169.98 99.4429H165.412V94.2024H168.633C170.172 94.2024 170.989 93.7216 171.47 92.4715L172.095 90.933H170.076L160.893 66.7494ZM199.736 92.8081C191.851 92.8081 186.658 87.5675 186.658 79.4903C186.658 71.413 191.851 66.1724 199.736 66.1724C207.621 66.1724 212.813 71.413 212.813 79.4903C212.813 87.5675 207.621 92.8081 199.736 92.8081ZM194.062 79.4903C194.062 84.4424 196.13 87.279 199.736 87.279C203.342 87.279 205.361 84.4424 205.361 79.4903C205.361 74.5382 203.342 71.7015 199.736 71.7015C196.13 71.7015 194.062 74.5382 194.062 79.4903ZM238.183 92.2311H231.597L231.452 88.2406C230.058 91.558 227.27 92.8081 223.952 92.8081C218.519 92.8081 215.298 89.0579 215.298 83.1442V66.7494H222.51V80.7403C222.51 84.827 223.375 87.0867 226.356 87.0867C229.337 87.0867 230.972 84.827 230.972 80.7403V66.7494H238.183V92.2311ZM242.546 66.7494H249.421L249.565 71.8938C250.527 68.4802 252.45 66.7494 255.671 66.7494H258.027V72.1342H255.623C251.44 72.1342 249.758 74.1054 249.758 78.096V92.2311H242.546V66.7494ZM276.585 80.6442C277.21 84.2981 279.806 86.7021 284.085 86.7021C287.354 86.7021 289.566 85.4039 289.518 82.9039C289.47 80.4038 287.354 78.9614 282.018 77.6633C274.614 75.8844 269.854 72.9035 269.854 67.4225C269.854 61.2203 275.046 57.326 282.835 57.326C290.432 57.326 295.624 61.9896 296.441 68.8649L289.133 69.2495C288.749 65.6436 286.249 63.3839 282.643 63.3839C279.47 63.3839 277.21 65.0186 277.354 67.5187C277.45 70.4034 280.816 71.365 284.47 72.2785C292.114 73.9612 296.97 77.2306 296.97 82.6635C296.97 89.1541 291.249 92.8081 283.893 92.8081C275.575 92.8081 269.71 88.1925 269.229 80.9807L276.585 80.6442ZM299.713 74.6343C300.674 69.2014 304.857 66.1724 311.54 66.1724C319.281 66.1724 323.271 69.9707 323.271 77.2306V85.2597C323.271 86.9425 323.945 87.3271 324.858 87.3271H325.772V92.2311L324.521 92.2792C322.839 92.3273 317.887 92.8081 317.214 88.3368C315.915 90.9811 313.079 92.8081 308.415 92.8081C303.223 92.8081 299.28 90.0195 299.28 85.5001C299.28 80.7884 302.79 79.0095 308.944 77.8075L315.963 76.3651C315.915 72.6631 314.521 70.8842 311.492 70.8842C309.04 70.8842 307.502 72.2785 306.925 74.9709L299.713 74.6343ZM306.684 85.2597C306.684 86.8944 308.03 88.1444 310.675 88.1444C313.8 88.0964 316.06 85.7886 316.06 81.173V80.8365L311.877 81.6057C308.848 82.1827 306.684 82.6635 306.684 85.2597ZM328.342 58.0952H335.554V84.827C335.554 86.1251 336.275 86.8463 337.526 86.8463H339.353V92.2311H335.41C331.131 92.2311 328.342 89.683 328.342 85.1636V58.0952ZM340.441 79.4903C340.441 71.4611 345.586 66.1724 353.519 66.1724C360.586 66.1724 366.019 71.0765 365.971 80.0191V81.3653H347.99C348.182 85.1636 350.249 87.4713 353.519 87.4713C355.586 87.4713 357.509 86.2213 358.327 84.2981L365.635 84.7789C364.096 89.731 359.336 92.8081 353.519 92.8081C345.586 92.8081 340.441 87.5194 340.441 79.4903ZM348.038 76.9902H358.663C358.279 73.1439 356.067 71.5092 353.519 71.5092C350.442 71.5092 348.422 73.5766 348.038 76.9902ZM384.227 75.0189C383.842 72.615 381.775 71.1726 379.611 71.1726C377.4 71.1726 375.669 72.3265 375.765 74.2016C375.861 76.0767 378.025 76.894 380.477 77.3267C387.977 78.4806 391.631 80.4518 391.631 85.2597C391.631 90.3561 386.871 92.8081 380.333 92.8081C372.88 92.8081 368.121 89.5868 367.736 84.1539L374.996 83.8173C375.429 86.2694 377.256 87.7598 380.14 87.7598C382.063 87.7598 384.275 86.9905 384.227 85.1155C384.179 82.9519 381.727 82.5192 379.275 81.9904C372.207 80.6442 368.361 78.8652 368.361 74.2016C368.361 69.1533 372.592 66.1244 379.9 66.1244C386.294 66.1244 390.621 69.3456 391.439 74.7305L384.227 75.0189ZM404.007 58.0952H427.565V64.2493H411.315V72.5188H426.7V78.5768H411.315V92.2311H404.007V58.0952ZM442.414 92.8081C434.529 92.8081 429.337 87.5675 429.337 79.4903C429.337 71.413 434.529 66.1724 442.414 66.1724C450.299 66.1724 455.492 71.413 455.492 79.4903C455.492 87.5675 450.299 92.8081 442.414 92.8081ZM436.741 79.4903C436.741 84.4424 438.808 87.279 442.414 87.279C446.02 87.279 448.04 84.4424 448.04 79.4903C448.04 74.5382 446.02 71.7015 442.414 71.7015C438.808 71.7015 436.741 74.5382 436.741 79.4903ZM458.118 66.7494H464.993L465.137 71.8938C466.099 68.4802 468.022 66.7494 471.243 66.7494H473.599V72.1342H471.195C467.012 72.1342 465.329 74.1054 465.329 78.096V92.2311H458.118V66.7494ZM491.628 76.5094C491.195 73.4323 489.176 71.7015 486.627 71.7015C483.021 71.7015 480.954 74.5382 480.954 79.4903C480.954 84.4424 483.021 87.279 486.627 87.279C489.32 87.279 491.339 85.5482 491.772 82.2308L499.224 82.5192C498.551 88.8656 493.406 92.8081 486.627 92.8081C478.694 92.8081 473.55 87.5194 473.55 79.4903C473.55 71.4611 478.694 66.1724 486.627 66.1724C493.214 66.1724 498.359 69.9707 499.032 76.1728L491.628 76.5094ZM500.422 79.4903C500.422 71.4611 505.566 66.1724 513.499 66.1724C520.567 66.1724 526 71.0765 525.952 80.0191V81.3653H507.97C508.163 85.1636 510.23 87.4713 513.499 87.4713C515.567 87.4713 517.49 86.2213 518.307 84.2981L525.615 84.7789C524.077 89.731 519.317 92.8081 513.499 92.8081C505.566 92.8081 500.422 87.5194 500.422 79.4903ZM508.019 76.9902H518.644C518.259 73.1439 516.048 71.5092 513.499 71.5092C510.422 71.5092 508.403 73.5766 508.019 76.9902Z" fill="url(#paint0_linear_3_3749)"/>
<defs>
<linearGradient id="paint0_linear_3_3749" x1="472.497" y1="-11.2363" x2="472.497" y2="103.657" gradientUnits="userSpaceOnUse">
<stop offset="0.085" stop-color="#8254F3"/>
<stop offset="1" stop-color="#C73FA2"/>
</linearGradient>
</defs>
</svg>
