<svg width="693" height="101" viewBox="0 0 693 101" fill="none" xmlns="http://www.w3.org/2000/svg">
<path d="M7.35223 23.3061C7.97693 26.9582 10.5718 29.3609 14.8486 29.3609C18.1163 29.3609 20.3267 28.0634 20.2787 25.5646C20.2306 23.0658 18.1163 21.6242 12.7823 20.3268C5.38202 18.5488 0.624701 15.5694 0.624701 10.0913C0.624701 3.89238 5.81451 2.19591e-05 13.5992 2.19591e-05C21.1917 2.19591e-05 26.3815 4.66124 27.1984 11.5329L19.8943 11.9174C19.5098 8.31332 17.011 6.0548 13.407 6.0548C10.2355 6.0548 7.97693 7.68862 8.12109 10.1874C8.2172 13.0706 11.581 14.0317 15.233 14.9447C22.8736 16.6266 27.727 19.8943 27.727 25.3244C27.727 31.8116 22.0086 35.4637 14.6564 35.4637C6.3431 35.4637 0.48054 30.8505 2.0885e-06 23.6425L7.35223 23.3061ZM54.2068 34.8871H47.6234L47.4793 30.8986C46.0857 34.2143 43.2986 35.4637 39.9829 35.4637C34.5528 35.4637 31.3332 31.7155 31.3332 25.8049V9.41856H38.5413V23.4022C38.5413 27.4868 39.4062 29.7453 42.3856 29.7453C45.3649 29.7453 46.9987 27.4868 46.9987 23.4022V9.41856H54.2068V34.8871ZM58.5668 42.0951V9.41856H65.4385L65.5826 13.2148C66.9762 10.3796 69.6672 8.84191 73.1751 8.84191C80.3832 8.84191 84.0833 14.6564 84.0833 22.1528C84.0833 29.6492 80.3832 35.4637 73.1751 35.4637C69.8594 35.4637 67.2645 33.974 65.7749 31.235V42.0951H58.5668ZM65.2943 22.1528C65.2943 26.3815 67.1204 29.9856 70.9647 29.9856C74.857 29.9856 76.635 26.3815 76.635 22.1528C76.635 17.9721 74.7609 14.32 70.9647 14.32C67.1204 14.32 65.2943 18.0202 65.2943 22.1528ZM85.8169 22.1528C85.8169 14.1278 90.9587 8.84191 98.8875 8.84191C105.951 8.84191 111.382 13.7434 111.333 22.6814V24.0269H93.3613C93.5536 27.8232 95.6199 30.1297 98.8875 30.1297C100.954 30.1297 102.876 28.8803 103.693 26.9582L110.997 27.4387C109.459 32.3883 104.702 35.4637 98.8875 35.4637C90.9587 35.4637 85.8169 30.1778 85.8169 22.1528ZM93.4094 19.654H104.029C103.645 15.8097 101.434 14.1759 98.8875 14.1759C95.8121 14.1759 93.7938 16.2422 93.4094 19.654ZM113.973 9.41856H120.844L120.988 14.5603C121.949 11.1485 123.872 9.41856 127.091 9.41856H129.446V14.8006H127.043C122.862 14.8006 121.181 16.7708 121.181 20.7593V34.8871H113.973V9.41856ZM147.465 19.1735C147.033 16.098 145.014 14.3681 142.468 14.3681C138.864 14.3681 136.797 17.2033 136.797 22.1528C136.797 27.1023 138.864 29.9375 142.468 29.9375C145.159 29.9375 147.177 28.2076 147.609 24.8919L155.058 25.1802C154.385 31.5233 149.243 35.4637 142.468 35.4637C134.539 35.4637 129.397 30.1778 129.397 22.1528C129.397 14.1278 134.539 8.84191 142.468 8.84191C149.051 8.84191 154.193 12.6382 154.865 18.8371L147.465 19.1735ZM156.942 0.768881H164.151V12.6862C165.64 9.8991 168.379 8.84191 171.407 8.84191C176.741 8.84191 179.96 12.7343 179.96 18.5007V34.8871H172.752V21.0476C172.752 16.9149 171.791 14.7045 168.812 14.7045C165.784 14.7045 164.151 17.0111 164.151 21.0476V34.8871H156.942V0.768881ZM182.842 17.2994C183.803 11.8693 187.984 8.84191 194.663 8.84191C202.4 8.84191 206.388 12.6382 206.388 19.8943V27.9193C206.388 29.6011 207.061 29.9856 207.974 29.9856H208.887V34.8871L207.638 34.9351C205.956 34.9832 201.006 35.4637 200.333 30.9947C199.036 33.6377 196.201 35.4637 191.54 35.4637C186.35 35.4637 182.409 32.6766 182.409 28.1595C182.409 23.4503 185.917 21.6723 192.068 20.4709L199.084 19.0293C199.036 15.3292 197.642 13.5512 194.615 13.5512C192.164 13.5512 190.627 14.9447 190.05 17.6358L182.842 17.2994ZM189.81 27.9193C189.81 29.5531 191.155 30.8025 193.798 30.8025C196.922 30.7544 199.18 28.4479 199.18 23.8347V23.4983L194.999 24.2672C191.972 24.8438 189.81 25.3244 189.81 27.9193ZM211.269 9.41856H218.141L218.285 14.5603C219.246 11.1485 221.168 9.41856 224.388 9.41856H226.742V14.8006H224.34C220.159 14.8006 218.477 16.7708 218.477 20.7593V34.8871H211.269V9.41856ZM237.698 33.7338C231.114 33.7338 226.693 28.8323 226.693 21.5762C226.693 13.9837 231.066 8.84191 237.698 8.84191C240.965 8.84191 243.752 10.5238 245.098 13.359V9.41856H252.21V31.8116C252.21 38.5872 246.972 42.6237 239.476 42.6237C233.517 42.6237 228.904 39.8366 227.462 35.4637L234.814 34.9351C235.439 36.617 237.217 37.6742 239.572 37.6742C242.984 37.6742 244.954 35.9923 244.954 32.5324V29.7934C243.704 32.148 240.869 33.7338 237.698 33.7338ZM234.094 21.5281C234.094 25.9491 236.352 28.7842 239.668 28.7842C243.032 28.7842 245.194 25.9491 245.194 21.5281C245.29 17.0591 243.08 14.272 239.668 14.272C236.256 14.272 234.094 17.0591 234.094 21.5281ZM254.584 22.1528C254.584 14.1278 259.726 8.84191 267.655 8.84191C274.718 8.84191 280.148 13.7434 280.1 22.6814V24.0269H262.128C262.321 27.8232 264.387 30.1297 267.655 30.1297C269.721 30.1297 271.643 28.8803 272.46 26.9582L279.764 27.4387C278.226 32.3883 273.469 35.4637 267.655 35.4637C259.726 35.4637 254.584 30.1778 254.584 22.1528ZM262.176 19.654H272.796C272.412 15.8097 270.201 14.1759 267.655 14.1759C264.579 14.1759 262.561 16.2422 262.176 19.654ZM530.82 3.60405H538.076V9.41856H544.708V14.7525H538.076V26.5738C538.076 28.4479 539.037 29.505 540.863 29.505H544.756V34.8871H539.326C533.703 34.8871 530.82 32.0999 530.82 26.5738V14.7525H526.687V9.41856H530.82V3.60405ZM547.379 9.41856H554.251L554.395 14.5603C555.356 11.1485 557.278 9.41856 560.498 9.41856H562.853V14.8006H560.45C556.269 14.8006 554.587 16.7708 554.587 20.7593V34.8871H547.379V9.41856ZM564.222 17.2994C565.183 11.8693 569.363 8.84191 576.043 8.84191C583.78 8.84191 587.768 12.6382 587.768 19.8943V27.9193C587.768 29.6011 588.441 29.9856 589.354 29.9856H590.267V34.8871L589.017 34.9351C587.336 34.9832 582.386 35.4637 581.713 30.9947C580.416 33.6377 577.581 35.4637 572.919 35.4637C567.73 35.4637 563.789 32.6766 563.789 28.1595C563.789 23.4503 567.297 21.6723 573.448 20.4709L580.464 19.0293C580.416 15.3292 579.022 13.5512 575.995 13.5512C573.544 13.5512 572.006 14.9447 571.43 17.6358L564.222 17.2994ZM571.19 27.9193C571.19 29.5531 572.535 30.8025 575.178 30.8025C578.301 30.7544 580.56 28.4479 580.56 23.8347V23.4983L576.379 24.2672C573.352 24.8438 571.19 25.3244 571.19 27.9193ZM592.836 9.41856H600.045V34.8871H592.836V9.41856ZM592.692 6.10285V0.768881H600.141V6.10285H592.692ZM603.739 9.41856H610.227L610.371 13.4551C611.764 10.0913 614.599 8.84191 618.011 8.84191C623.537 8.84191 626.757 12.5901 626.757 18.5007V34.8871H619.549V20.9034C619.549 16.8188 618.636 14.5603 615.609 14.5603C612.581 14.5603 610.947 16.8188 610.947 20.9034V34.8871H603.739V9.41856ZM631.114 9.41856H638.322V34.8871H631.114V9.41856ZM630.97 6.10285V0.768881H638.418V6.10285H630.97ZM642.017 9.41856H648.504L648.648 13.4551C650.042 10.0913 652.877 8.84191 656.288 8.84191C661.815 8.84191 665.034 12.5901 665.034 18.5007V34.8871H657.826V20.9034C657.826 16.8188 656.913 14.5603 653.886 14.5603C650.858 14.5603 649.225 16.8188 649.225 20.9034V34.8871H642.017V9.41856ZM678.488 33.7338C671.904 33.7338 667.483 28.8323 667.483 21.5762C667.483 13.9837 671.856 8.84191 678.488 8.84191C681.755 8.84191 684.542 10.5238 685.888 13.359V9.41856H693V31.8116C693 38.5872 687.762 42.6237 680.266 42.6237C674.307 42.6237 669.694 39.8366 668.252 35.4637L675.604 34.9351C676.229 36.617 678.007 37.6742 680.362 37.6742C683.774 37.6742 685.744 35.9923 685.744 32.5324V29.7934C684.494 32.148 681.659 33.7338 678.488 33.7338ZM674.884 21.5281C674.884 25.9491 677.142 28.7842 680.458 28.7842C683.822 28.7842 685.984 25.9491 685.984 21.5281C686.08 17.0591 683.87 14.272 680.458 14.272C677.046 14.272 674.884 17.0591 674.884 21.5281ZM165.977 92.952L178.279 58.8339H186.928L199.23 92.952H191.638L189.139 85.6959H176.02L173.521 92.952H165.977ZM178.086 79.6892H187.12L182.603 66.5225L178.086 79.6892ZM201.994 58.8339H209.298V92.952H201.994V58.8339Z" fill="url(#paint0_linear_3_4442)"/>
<path d="M289.931 9.41856H296.803L303.146 27.3426L309.297 9.41856H316.121L306.125 37.3378C304.924 40.6055 302.714 42.0951 299.013 42.0951H294.448V36.8573H297.668C299.206 36.8573 300.023 36.3767 300.503 35.1273L301.128 33.5896H299.11L289.931 9.41856ZM328.754 35.4637C320.873 35.4637 315.683 30.2258 315.683 22.1528C315.683 14.0798 320.873 8.84191 328.754 8.84191C336.635 8.84191 341.825 14.0798 341.825 22.1528C341.825 30.2258 336.635 35.4637 328.754 35.4637ZM323.084 22.1528C323.084 27.1023 325.15 29.9375 328.754 29.9375C332.358 29.9375 334.376 27.1023 334.376 22.1528C334.376 17.2033 332.358 14.3681 328.754 14.3681C325.15 14.3681 323.084 17.2033 323.084 22.1528ZM367.182 34.8871H360.599L360.454 30.8986C359.061 34.2143 356.274 35.4637 352.958 35.4637C347.528 35.4637 344.308 31.7155 344.308 25.8049V9.41856H351.516V23.4022C351.516 27.4868 352.381 29.7453 355.361 29.7453C358.34 29.7453 359.974 27.4868 359.974 23.4022V9.41856H367.182V34.8871ZM371.542 9.41856H378.414L378.558 14.5603C379.519 11.1485 381.441 9.41856 384.661 9.41856H387.015V14.8006H384.613C380.432 14.8006 378.75 16.7708 378.75 20.7593V34.8871H371.542V9.41856ZM414.117 17.6838C413.733 15.2811 411.666 13.8395 409.504 13.8395C407.293 13.8395 405.563 14.9928 405.66 16.8669C405.756 18.741 407.918 19.5579 410.369 19.9904C417.865 21.1437 421.517 23.1139 421.517 27.9193C421.517 33.013 416.76 35.4637 410.225 35.4637C402.776 35.4637 398.019 32.2441 397.635 26.814L404.891 26.4776C405.323 28.9284 407.149 30.4181 410.032 30.4181C411.955 30.4181 414.165 29.6492 414.117 27.7751C414.069 25.6127 411.618 25.1802 409.167 24.6516C402.104 23.3061 398.259 21.5281 398.259 16.8669C398.259 11.8212 402.488 8.79386 409.792 8.79386C416.183 8.79386 420.508 12.0135 421.325 17.3955L414.117 17.6838ZM424.034 17.2994C424.995 11.8693 429.175 8.84191 435.855 8.84191C443.591 8.84191 447.58 12.6382 447.58 19.8943V27.9193C447.58 29.6011 448.253 29.9856 449.166 29.9856H450.079V34.8871L448.829 34.9351C447.147 34.9832 442.198 35.4637 441.525 30.9947C440.228 33.6377 437.393 35.4637 432.731 35.4637C427.542 35.4637 423.601 32.6766 423.601 28.1595C423.601 23.4503 427.109 21.6723 433.26 20.4709L440.276 19.0293C440.228 15.3292 438.834 13.5512 435.807 13.5512C433.356 13.5512 431.818 14.9447 431.242 17.6358L424.034 17.2994ZM431.001 27.9193C431.001 29.5531 432.347 30.8025 434.99 30.8025C438.113 30.7544 440.372 28.4479 440.372 23.8347V23.4983L436.191 24.2672C433.164 24.8438 431.001 25.3244 431.001 27.9193ZM452.648 0.768881H459.856V27.4868C459.856 28.7842 460.577 29.505 461.827 29.505H463.653V34.8871H459.712C455.435 34.8871 452.648 32.3402 452.648 27.8232V0.768881ZM464.741 22.1528C464.741 14.1278 469.883 8.84191 477.812 8.84191C484.875 8.84191 490.306 13.7434 490.257 22.6814V24.0269H472.285C472.478 27.8232 474.544 30.1297 477.812 30.1297C479.878 30.1297 481.8 28.8803 482.617 26.9582L489.921 27.4387C488.383 32.3883 483.626 35.4637 477.812 35.4637C469.883 35.4637 464.741 30.1778 464.741 22.1528ZM472.333 19.654H482.953C482.569 15.8097 480.358 14.1759 477.812 14.1759C474.736 14.1759 472.718 16.2422 472.333 19.654ZM508.504 17.6838C508.119 15.2811 506.053 13.8395 503.891 13.8395C501.68 13.8395 499.95 14.9928 500.046 16.8669C500.143 18.741 502.305 19.5579 504.756 19.9904C512.252 21.1437 515.904 23.1139 515.904 27.9193C515.904 33.013 511.147 35.4637 504.612 35.4637C497.163 35.4637 492.406 32.2441 492.021 26.814L499.278 26.4776C499.71 28.9284 501.536 30.4181 504.419 30.4181C506.341 30.4181 508.552 29.6492 508.504 27.7751C508.456 25.6127 506.005 25.1802 503.554 24.6516C496.49 23.3061 492.646 21.5281 492.646 16.8669C492.646 11.8212 496.875 8.79386 504.179 8.79386C510.57 8.79386 514.895 12.0135 515.712 17.3955L508.504 17.6838ZM83.4019 67.4835L88.3034 84.5426L93.0607 67.4835H99.9324L92.1477 92.952H85.2279L80.5187 76.9501L75.7613 92.952H68.8416L61.1049 67.4835H67.9766L72.734 84.5426L77.5874 67.4835H83.4019ZM102.045 67.4835H109.253V92.952H102.045V67.4835ZM101.901 64.1678V58.8339H109.349V64.1678H101.901ZM115.081 61.669H122.338V67.4835H128.969V72.8175H122.338V84.6387C122.338 86.5128 123.299 87.57 125.125 87.57H129.017V92.952H123.587C117.965 92.952 115.081 90.1649 115.081 84.6387V72.8175H110.949V67.4835H115.081V61.669ZM131.641 58.8339H138.849V70.7512C140.338 67.9641 143.078 66.9069 146.105 66.9069C151.439 66.9069 154.658 70.7992 154.658 76.5657V92.952H147.45V79.1125C147.45 74.9799 146.489 72.7694 143.51 72.7694C140.483 72.7694 138.849 75.076 138.849 79.1125V92.952H131.641V58.8339ZM248.847 58.8339V64.9847H238.66V92.952H231.307V64.9847H221.072V58.8339H248.847ZM251.306 58.8339H258.514V70.7512C260.004 67.9641 262.743 66.9069 265.77 66.9069C271.104 66.9069 274.324 70.7992 274.324 76.5657V92.952H267.116V79.1125C267.116 74.9799 266.155 72.7694 263.175 72.7694C260.148 72.7694 258.514 75.076 258.514 79.1125V92.952H251.306V58.8339ZM277.205 75.3644C278.166 69.9343 282.347 66.9069 289.026 66.9069C296.763 66.9069 300.752 70.7031 300.752 77.9593V85.9842C300.752 87.6661 301.424 88.0505 302.337 88.0505H303.25V92.952L302.001 93.0001C300.319 93.0481 295.37 93.5287 294.697 89.0597C293.399 91.7026 290.564 93.5287 285.903 93.5287C280.713 93.5287 276.773 90.7416 276.773 86.2245C276.773 81.5152 280.281 79.7372 286.432 78.5359L293.447 77.0943C293.399 73.3941 292.006 71.6162 288.978 71.6162C286.528 71.6162 284.99 73.0097 284.413 75.7007L277.205 75.3644ZM284.173 85.9842C284.173 87.6181 285.519 88.8675 288.162 88.8675C291.285 88.8194 293.544 86.5128 293.544 81.8997V81.5633L289.363 82.3321C286.335 82.9088 284.173 83.3893 284.173 85.9842ZM306.733 61.669H313.99V67.4835H320.621V72.8175H313.99V84.6387C313.99 86.5128 314.951 87.57 316.777 87.57H320.669V92.952H315.239C309.617 92.952 306.733 90.1649 306.733 84.6387V72.8175H302.601V67.4835H306.733V61.669ZM358.126 58.8339V64.9847H347.938V92.952H340.586V64.9847H330.35V58.8339H358.126ZM359.646 67.4835H366.518L366.662 72.6253C367.623 69.2135 369.545 67.4835 372.765 67.4835H375.119V72.8656H372.717C368.536 72.8656 366.854 74.8358 366.854 78.8242V92.952H359.646V67.4835ZM400.978 92.952H394.394L394.25 88.9636C392.857 92.2793 390.069 93.5287 386.754 93.5287C381.324 93.5287 378.104 89.7805 378.104 83.8699V67.4835H385.312V81.4672C385.312 85.5518 386.177 87.8103 389.156 87.8103C392.136 87.8103 393.77 85.5518 393.77 81.4672V67.4835H400.978V92.952ZM405.338 58.8339H412.546V85.5518C412.546 86.8492 413.267 87.57 414.516 87.57H416.342V92.952H412.402C408.125 92.952 405.338 90.4052 405.338 85.8881V58.8339ZM415.204 67.4835H422.076L428.419 85.4076L434.57 67.4835H441.394L431.398 95.4028C430.197 98.6704 427.987 100.16 424.286 100.16H419.721V94.9222H422.941C424.479 94.9222 425.296 94.4417 425.776 93.1923L426.401 91.6546H424.383L415.204 67.4835ZM464.657 58.8339C475.71 58.8339 481.909 64.9847 481.909 75.941C481.909 86.8492 475.806 92.952 464.946 92.952H452.884V58.8339H464.657ZM460.188 86.8012H464.657C471.289 86.8012 474.46 83.2932 474.46 75.8929C474.46 68.4927 471.289 64.9847 464.657 64.9847H460.188V86.8012ZM483.692 80.2178C483.692 72.1928 488.834 66.9069 496.762 66.9069C503.826 66.9069 509.256 71.8084 509.208 80.7464V82.0919H491.236C491.428 85.8881 493.495 88.1947 496.762 88.1947C498.829 88.1947 500.751 86.9453 501.568 85.0232L508.872 85.5037C507.334 90.4532 502.577 93.5287 496.762 93.5287C488.834 93.5287 483.692 88.2428 483.692 80.2178ZM491.284 77.719H501.904C501.52 73.8747 499.309 72.2409 496.762 72.2409C493.687 72.2409 491.669 74.3072 491.284 77.719ZM512.27 58.8339H519.478V85.5518C519.478 86.8492 520.199 87.57 521.448 87.57H523.274V92.952H519.334C515.057 92.952 512.27 90.4052 512.27 85.8881V58.8339ZM526.035 67.4835H533.243V92.952H526.035V67.4835ZM525.891 64.1678V58.8339H533.339V64.1678H525.891ZM562.632 67.4835L553.214 92.952H544.804L535.386 67.4835H542.834L549.033 85.744L555.232 67.4835H562.632ZM562.217 80.2178C562.217 72.1928 567.359 66.9069 575.288 66.9069C582.352 66.9069 587.782 71.8084 587.734 80.7464V82.0919H569.762C569.954 85.8881 572.02 88.1947 575.288 88.1947C577.354 88.1947 579.276 86.9453 580.093 85.0232L587.397 85.5037C585.86 90.4532 581.102 93.5287 575.288 93.5287C567.359 93.5287 562.217 88.2428 562.217 80.2178ZM569.81 77.719H580.43C580.045 73.8747 577.835 72.2409 575.288 72.2409C572.212 72.2409 570.194 74.3072 569.81 77.719ZM590.373 67.4835H597.244L597.389 72.6253C598.35 69.2135 600.272 67.4835 603.491 67.4835H605.846V72.8656H603.443C599.263 72.8656 597.581 74.8358 597.581 78.8242V92.952H590.373V67.4835ZM622.28 75.7488C621.895 73.3461 619.829 71.9045 617.666 71.9045C615.456 71.9045 613.726 73.0578 613.822 74.9319C613.918 76.806 616.081 77.6229 618.531 78.0554C626.028 79.2087 629.68 81.1789 629.68 85.9842C629.68 91.0779 624.923 93.5287 618.387 93.5287C610.939 93.5287 606.182 90.3091 605.797 84.879L613.053 84.5426C613.486 86.9934 615.312 88.483 618.195 88.483C620.117 88.483 622.328 87.7142 622.28 85.8401C622.232 83.6777 619.781 83.2452 617.33 82.7166C610.266 81.3711 606.422 79.5931 606.422 74.9319C606.422 69.8862 610.651 66.8588 617.955 66.8588C624.346 66.8588 628.671 70.0784 629.488 75.4605L622.28 75.7488Z" fill="black"/>
<defs>
<linearGradient id="paint0_linear_3_4442" x1="625.192" y1="-10.4616" x2="625.192" y2="104.372" gradientUnits="userSpaceOnUse">
<stop offset="0.085" stop-color="#8254F3"/>
<stop offset="1" stop-color="#C73FA2"/>
</linearGradient>
</defs>
</svg>
