<svg width="43" height="42" viewBox="0 0 43 42" fill="none" xmlns="http://www.w3.org/2000/svg">
<g clip-path="url(#clip0_3_3862)">
<path d="M0.0456875 21.8767C0.521375 33.0474 9.94778 42 21.5 42C33.0522 42 42.4786 33.0474 42.9543 21.8767C42.9826 21.8064 42.9981 21.7318 43 21.6562C43 21.609 42.9825 21.5683 42.9731 21.525C42.9772 21.3491 43 21.1772 43 21C43 9.42113 33.3546 0 21.5 0C9.64544 0 0 9.42113 0 21C0 21.1772 0.0228438 21.3491 0.026875 21.525C0.0174687 21.5683 0 21.609 0 21.6562C0 21.735 0.0201563 21.8072 0.0456875 21.8767ZM33.4876 29.8489C31.6617 29.1086 29.7642 28.5497 27.8237 28.1807C28.036 26.2736 28.161 24.2931 28.1999 22.3138H34.8918C34.7695 25.0097 34.2791 27.5546 33.4876 29.8489ZM36.2342 22.3125H41.5877C41.3508 25.886 40.1129 29.3271 38.0093 32.2599C36.9643 31.5417 35.86 30.9095 34.7077 30.3699C35.5744 27.9169 36.1079 25.1947 36.2342 22.3125ZM16.6477 29.2504C18.2528 29.0031 19.8751 28.8776 21.5 28.875C23.1448 28.875 24.7693 29.0089 26.3509 29.2504C25.4184 36.2526 23.3813 40.6875 21.5 40.6875C19.6187 40.6875 17.5816 36.2526 16.6477 29.2504ZM18.6889 40.2465C14.9922 39.0889 11.8653 35.6908 9.97869 31.08C11.7068 30.374 13.5029 29.8389 15.3403 29.4827C15.957 34.0712 17.0844 38.0691 18.6889 40.2465ZM16.4932 14.0556C18.1497 14.3076 19.8235 14.4352 21.5 14.4375C23.1765 14.4352 24.8503 14.3076 26.5068 14.0556C26.7379 16.1818 26.875 18.5023 26.875 21H16.125C16.125 18.5023 16.2621 16.1818 16.4932 14.0556ZM26.8548 22.3125C26.8228 24.1939 26.7062 26.073 26.5055 27.9444C24.8494 27.6923 23.176 27.5646 21.5 27.5625C19.8235 27.5647 18.1497 27.6924 16.4932 27.9444C16.2919 26.0731 16.1753 24.1939 16.1438 22.3125H26.8548ZM27.6611 29.4827C29.5477 29.8528 31.347 30.3909 33.0227 31.08C31.136 35.6908 28.0091 39.0889 24.3125 40.2465C25.9156 38.0691 27.043 34.0712 27.6611 29.4827ZM28.2188 21C28.2188 18.5903 28.0817 16.149 27.8237 13.8206C29.8124 13.4374 31.7152 12.8756 33.4876 12.1524C34.4067 14.8155 34.9375 17.8159 34.9375 21H28.2188ZM27.6611 12.5173C27.043 7.92881 25.9169 3.92963 24.3111 1.7535C28.0078 2.91112 31.1347 6.30919 33.0213 10.92C31.2939 11.6266 29.4981 12.1617 27.6611 12.5173ZM26.3523 12.7496C24.7693 12.9911 23.1448 13.125 21.5 13.125C19.8552 13.125 18.2307 12.9911 16.6477 12.7496C17.5816 5.74744 19.6187 1.3125 21.5 1.3125C23.3813 1.3125 25.4184 5.74744 26.3523 12.7496ZM15.3389 12.5173C13.5016 12.1609 11.7055 11.6258 9.97734 10.92C11.864 6.30919 14.9909 2.91112 18.6875 1.7535C17.0844 3.93094 15.957 7.92881 15.3389 12.5173ZM15.1763 13.8206C14.9139 16.2052 14.782 18.6017 14.7812 21H8.0625C8.0625 17.8159 8.59328 14.8155 9.51241 12.1511C11.2848 12.8756 13.1876 13.4361 15.1763 13.8206ZM14.8001 22.3125C14.839 24.2917 14.964 26.2723 15.1763 28.1807C13.1876 28.5639 11.2848 29.1257 9.51241 29.8489C8.72094 27.5546 8.23047 25.0097 8.10819 22.3125H14.8001ZM8.29094 30.3699C7.13939 30.91 6.03554 31.5421 4.99069 32.2599C2.88688 29.3272 1.64897 25.886 1.41228 22.3125H6.76578C6.89209 25.1947 7.42556 27.9169 8.29094 30.3699ZM5.79559 33.3112C6.73604 32.6643 7.72772 32.0916 8.76125 31.5984C10.1104 34.86 12.0521 37.5677 14.3862 39.3986C11.0189 38.1527 8.05322 36.0512 5.79559 33.3112ZM28.6138 39.3973C30.9493 37.5677 32.8896 34.8587 34.2388 31.5971C35.3003 32.1011 36.2839 32.6812 37.2044 33.3099C34.9475 36.0507 31.9816 38.1523 28.6138 39.3973ZM36.2812 21C36.2812 17.6308 35.7061 14.4546 34.7091 11.6301C35.8916 11.0762 36.9907 10.4396 38.0107 9.74006C40.384 13.0371 41.6572 16.9696 41.6562 21H36.2812ZM37.2057 8.68875C36.2853 9.31744 35.3017 9.89756 34.2401 10.4016C32.891 7.14 30.9492 4.431 28.6152 2.60138C31.9821 3.84799 34.9476 5.94937 37.2057 8.68875ZM14.3862 2.60269C12.0508 4.43231 10.1104 7.14131 8.76125 10.4029C7.7278 9.90907 6.73614 9.3359 5.79559 8.68875C8.05294 5.94883 11.0187 3.8477 14.3862 2.60269ZM4.99069 9.74006C6.03536 10.4581 7.13923 11.0903 8.29094 11.6301C7.24001 14.647 6.70874 17.8133 6.71875 21H1.34375C1.34375 16.8131 2.69959 12.9347 4.99069 9.74006Z" fill="white"/>
</g>
<defs>
<clipPath id="clip0_3_3862">
<rect width="43" height="42" fill="white"/>
</clipPath>
</defs>
</svg>
