<svg width="523" height="94" viewBox="0 0 523 94" fill="none" xmlns="http://www.w3.org/2000/svg">
<path d="M8.59411 23.2857C9.21826 26.9346 11.8109 29.3352 16.0839 29.3352C19.3487 29.3352 21.5573 28.0389 21.5093 25.5423C21.4613 23.0456 19.3487 21.6053 14.0194 20.309C6.62563 18.5325 1.87246 15.5558 1.87246 10.0825C1.87246 3.88894 7.05773 -8.58517e-06 14.8356 -8.58517e-06C22.4215 -8.58517e-06 27.6068 4.65713 28.423 11.5228L21.1252 11.9069C20.7411 8.30603 18.2445 6.04947 14.6436 6.04947C11.4748 6.04947 9.21826 7.68187 9.3623 10.1785C9.45832 13.0592 12.8191 14.0194 16.468 14.9317C24.1019 16.6121 28.9511 19.8769 28.9511 25.3022C28.9511 31.7838 23.2377 35.4327 15.8919 35.4327C7.58586 35.4327 1.72843 30.8235 1.24831 23.6218L8.59411 23.2857ZM31.6899 17.2842C32.6501 11.8589 36.8272 8.83416 43.5008 8.83416C51.2307 8.83416 55.2157 12.6271 55.2157 19.8769V27.8948C55.2157 29.5752 55.8878 29.9593 56.8001 29.9593H57.7123V34.8565L56.464 34.9046C54.7836 34.9526 49.8383 35.4327 49.1662 30.9676C47.8699 33.6082 45.0372 35.4327 40.38 35.4327C35.1948 35.4327 31.2578 32.648 31.2578 28.1349C31.2578 23.4297 34.7627 21.6533 40.9082 20.453L47.9179 19.0127C47.8699 15.3157 46.4775 13.5393 43.4528 13.5393C41.0042 13.5393 39.4678 14.9317 38.8917 17.6203L31.6899 17.2842ZM38.6516 27.8948C38.6516 29.5272 39.9959 30.7755 42.6366 30.7755C45.7573 30.7275 48.0139 28.423 48.0139 23.8138V23.4777L43.8369 24.2459C40.8121 24.8221 38.6516 25.3022 38.6516 27.8948ZM60.2797 0.768178H67.4814V27.4627C67.4814 28.759 68.2016 29.4792 69.4499 29.4792H71.2744V34.8565H67.3374C63.0643 34.8565 60.2797 32.3119 60.2797 27.7988V0.768178ZM72.3616 22.1334C72.3616 14.1155 77.4989 8.83416 85.4208 8.83416C92.4786 8.83416 97.9039 13.7314 97.8559 22.6615V24.0059H79.8995C80.0915 27.7988 82.156 30.1034 85.4208 30.1034C87.4853 30.1034 89.4058 28.8551 90.222 26.9346L97.5198 27.4147C95.9834 32.3599 91.2302 35.4327 85.4208 35.4327C77.4989 35.4327 72.3616 30.1514 72.3616 22.1334ZM79.9475 19.6368H90.5581C90.174 15.7959 87.9654 14.1635 85.4208 14.1635C82.3481 14.1635 80.3316 16.228 79.9475 19.6368ZM116.086 17.6683C115.702 15.2677 113.638 13.8274 111.477 13.8274C109.269 13.8274 107.54 14.9797 107.636 16.8521C107.732 18.7246 109.893 19.5408 112.341 19.9729C119.831 21.1252 123.48 23.0937 123.48 27.8948C123.48 32.9841 118.727 35.4327 112.197 35.4327C104.756 35.4327 100.002 32.2159 99.6183 26.7906L106.868 26.4545C107.3 28.9031 109.125 30.3914 112.005 30.3914C113.926 30.3914 116.134 29.6233 116.086 27.7508C116.038 25.5903 113.59 25.1582 111.141 24.63C104.083 23.2857 100.242 21.5093 100.242 16.8521C100.242 11.8109 104.467 8.78614 111.765 8.78614C118.151 8.78614 122.472 12.0029 123.288 17.3803L116.086 17.6683ZM135.838 0.768178H159.556V6.91369H143.136V14.7396H158.98V20.7891H143.136V28.711H159.94V34.8565H135.838V0.768178ZM180.989 9.36229H188.911L179.981 21.9414L189.199 34.8565H181.277L175.804 26.5505L170.282 34.8565H162.36L171.627 21.8934L162.696 9.36229H170.57L175.804 17.2842L180.989 9.36229ZM206.302 19.1567C205.87 16.0839 203.853 14.3555 201.309 14.3555C197.708 14.3555 195.643 17.1882 195.643 22.1334C195.643 27.0786 197.708 29.9113 201.309 29.9113C203.997 29.9113 206.014 28.1829 206.446 24.8701L213.888 25.1582C213.216 31.4957 208.078 35.4327 201.309 35.4327C193.387 35.4327 188.249 30.1514 188.249 22.1334C188.249 14.1155 193.387 8.83416 201.309 8.83416C207.886 8.83416 213.023 12.6271 213.696 18.8206L206.302 19.1567ZM215.084 22.1334C215.084 14.1155 220.221 8.83416 228.143 8.83416C235.201 8.83416 240.626 13.7314 240.578 22.6615V24.0059H222.622C222.814 27.7988 224.879 30.1034 228.143 30.1034C230.208 30.1034 232.128 28.8551 232.944 26.9346L240.242 27.4147C238.706 32.3599 233.953 35.4327 228.143 35.4327C220.221 35.4327 215.084 30.1514 215.084 22.1334ZM222.67 19.6368H233.281C232.896 15.7959 230.688 14.1635 228.143 14.1635C225.071 14.1635 223.054 16.228 222.67 19.6368ZM243.637 0.768178H250.839V27.4627C250.839 28.759 251.559 29.4792 252.807 29.4792H254.632V34.8565H250.695C246.422 34.8565 243.637 32.3119 243.637 27.7988V0.768178ZM257.39 0.768178H264.592V27.4627C264.592 28.759 265.312 29.4792 266.561 29.4792H268.385V34.8565H264.448C260.175 34.8565 257.39 32.3119 257.39 27.7988V0.768178ZM269.472 22.1334C269.472 14.1155 274.61 8.83416 282.532 8.83416C289.589 8.83416 295.015 13.7314 294.967 22.6615V24.0059H277.01C277.202 27.7988 279.267 30.1034 282.532 30.1034C284.596 30.1034 286.517 28.8551 287.333 26.9346L294.631 27.4147C293.094 32.3599 288.341 35.4327 282.532 35.4327C274.61 35.4327 269.472 30.1514 269.472 22.1334ZM277.058 19.6368H287.669C287.285 15.7959 285.076 14.1635 282.532 14.1635C279.459 14.1635 277.442 16.228 277.058 19.6368ZM297.603 9.4103H304.085L304.229 13.4433C305.621 10.0825 308.454 8.83416 311.863 8.83416C317.384 8.83416 320.601 12.5791 320.601 18.4845V34.8565H313.399V20.8851C313.399 16.8041 312.487 14.5476 309.462 14.5476C306.438 14.5476 304.805 16.8041 304.805 20.8851V34.8565H297.603V9.4103ZM341.101 19.1567C340.668 16.0839 338.652 14.3555 336.107 14.3555C332.506 14.3555 330.442 17.1882 330.442 22.1334C330.442 27.0786 332.506 29.9113 336.107 29.9113C338.796 29.9113 340.812 28.1829 341.245 24.8701L348.686 25.1582C348.014 31.4957 342.877 35.4327 336.107 35.4327C328.185 35.4327 323.048 30.1514 323.048 22.1334C323.048 14.1155 328.185 8.83416 336.107 8.83416C342.685 8.83416 347.822 12.6271 348.494 18.8206L341.101 19.1567ZM349.883 22.1334C349.883 14.1155 355.02 8.83416 362.942 8.83416C370 8.83416 375.425 13.7314 375.377 22.6615V24.0059H357.421C357.613 27.7988 359.677 30.1034 362.942 30.1034C365.006 30.1034 366.927 28.8551 367.743 26.9346L375.041 27.4147C373.505 32.3599 368.751 35.4327 362.942 35.4327C355.02 35.4327 349.883 30.1514 349.883 22.1334ZM357.469 19.6368H368.079C367.695 15.7959 365.487 14.1635 362.942 14.1635C359.869 14.1635 357.853 16.228 357.469 19.6368ZM393.985 23.2857C394.61 26.9346 397.202 29.3352 401.475 29.3352C404.74 29.3352 406.949 28.0389 406.901 25.5423C406.853 23.0456 404.74 21.6053 399.411 20.309C392.017 18.5325 387.264 15.5558 387.264 10.0825C387.264 3.88894 392.449 -8.58517e-06 400.227 -8.58517e-06C407.813 -8.58517e-06 412.998 4.65713 413.814 11.5228L406.517 11.9069C406.132 8.30603 403.636 6.04947 400.035 6.04947C396.866 6.04947 394.61 7.68187 394.754 10.1785C394.85 13.0592 398.211 14.0194 401.859 14.9317C409.493 16.6121 414.342 19.8769 414.342 25.3022C414.342 31.7838 408.629 35.4327 401.283 35.4327C392.977 35.4327 387.12 30.8235 386.64 23.6218L393.985 23.2857ZM419.468 3.60087H426.717V9.4103H433.343V14.7396H426.717V26.5505C426.717 28.423 427.678 29.4792 429.502 29.4792H433.391V34.8565H427.966C422.348 34.8565 419.468 32.0719 419.468 26.5505V14.7396H415.339V9.4103H419.468V3.60087ZM435.148 17.2842C436.108 11.8589 440.285 8.83416 446.959 8.83416C454.689 8.83416 458.674 12.6271 458.674 19.8769V27.8948C458.674 29.5752 459.346 29.9593 460.258 29.9593H461.171V34.8565L459.922 34.9046C458.242 34.9526 453.297 35.4327 452.624 30.9676C451.328 33.6082 448.495 35.4327 443.838 35.4327C438.653 35.4327 434.716 32.648 434.716 28.1349C434.716 23.4297 438.221 21.6533 444.366 20.453L451.376 19.0127C451.328 15.3157 449.936 13.5393 446.911 13.5393C444.462 13.5393 442.926 14.9317 442.35 17.6203L435.148 17.2842ZM442.11 27.8948C442.11 29.5272 443.454 30.7755 446.095 30.7755C449.216 30.7275 451.472 28.423 451.472 23.8138V23.4777L447.295 24.2459C444.27 24.8221 442.11 25.3022 442.11 27.8948ZM463.55 9.4103H470.416L470.56 14.5476C471.52 11.1387 473.441 9.4103 476.658 9.4103H479.01V14.7876H476.61C472.433 14.7876 470.752 16.7561 470.752 20.7411V34.8565H463.55V9.4103ZM484.405 3.60087H491.655V9.4103H498.281V14.7396H491.655V26.5505C491.655 28.423 492.615 29.4792 494.44 29.4792H498.329V34.8565H492.903C487.286 34.8565 484.405 32.0719 484.405 26.5505V14.7396H480.276V9.4103H484.405V3.60087ZM515.606 17.6683C515.222 15.2677 513.158 13.8274 510.997 13.8274C508.789 13.8274 507.06 14.9797 507.156 16.8521C507.252 18.7246 509.413 19.5408 511.861 19.9729C519.351 21.1252 523 23.0937 523 27.8948C523 32.9841 518.247 35.4327 511.717 35.4327C504.275 35.4327 499.522 32.2159 499.138 26.7906L506.388 26.4545C506.82 28.9031 508.644 30.3914 511.525 30.3914C513.446 30.3914 515.654 29.6233 515.606 27.7508C515.558 25.5903 513.11 25.1582 510.661 24.63C503.603 23.2857 499.762 21.5093 499.762 16.8521C499.762 11.8109 503.987 8.78614 511.285 8.78614C517.671 8.78614 521.992 12.0029 522.808 17.3803L515.606 17.6683ZM3.07039e-06 58.7824H7.58586L13.4433 82.7883L19.3487 58.7824H25.7823L31.6878 82.7883L37.5452 58.7824H45.1791L35.9608 92.8708H28.1349L22.5655 71.5055L16.9962 92.8708H9.21826L3.07039e-06 58.7824ZM47.5578 67.4245H54.7596V92.8708H47.5578V67.4245ZM47.4138 64.1117V58.7824H54.8556V64.1117H47.4138ZM60.5827 61.6151H67.8325V67.4245H74.4581V72.7538H67.8325V84.5647C67.8325 86.4372 68.7927 87.4934 70.6172 87.4934H74.5061V92.8708H69.0808C63.4634 92.8708 60.5827 90.0861 60.5827 84.5647V72.7538H56.4537V67.4245H60.5827V61.6151ZM77.1275 58.7824H84.3293V70.6893C85.8177 67.9046 88.5543 66.8484 91.5791 66.8484C96.9084 66.8484 100.125 70.7373 100.125 76.4987V92.8708H92.9234V79.0434C92.9234 74.9144 91.9632 72.7058 88.9864 72.7058C85.9617 72.7058 84.3293 75.0104 84.3293 79.0434V92.8708H77.1275V58.7824Z" fill="#141414"/>
<path d="M113.786 92.8708V58.7824H126.173C135.487 58.7824 140.097 61.7111 140.097 68.2407C140.097 72.2737 137.6 74.7223 133.231 75.2504C138.608 75.7786 141.537 78.5152 141.537 83.2204C141.537 89.5099 136.928 92.8708 128.094 92.8708H113.786ZM121.084 86.9173H128.334C131.839 86.9173 134.191 85.4769 134.191 82.5962C134.191 79.6675 131.839 78.1792 128.334 78.1792H121.084V86.9173ZM121.084 72.8979H126.845C130.446 72.8979 132.751 71.5535 132.751 68.8649C132.751 66.0322 130.542 64.7359 126.845 64.7359H121.084V72.8979ZM143.864 80.1476C143.864 72.1297 149.001 66.8484 156.923 66.8484C163.98 66.8484 169.406 71.7456 169.358 80.6758V82.0201H151.401C151.593 85.813 153.658 88.1176 156.923 88.1176C158.987 88.1176 160.908 86.8693 161.724 84.9488L169.022 85.4289C167.485 90.3742 162.732 93.4469 156.923 93.4469C149.001 93.4469 143.864 88.1656 143.864 80.1476ZM151.449 77.651H162.06C161.676 73.8101 159.467 72.1777 156.923 72.1777C153.85 72.1777 151.833 74.2422 151.449 77.651ZM174.079 61.6151H181.329V67.4245H191.94V61.6151H199.189V67.4245H205.815V72.7538H199.189V84.5647C199.189 86.4372 200.15 87.4934 201.974 87.4934H205.863V92.8708H200.438C194.82 92.8708 191.94 90.0861 191.94 84.5647V72.7538H181.329V84.5647C181.329 86.4372 182.289 87.4934 184.114 87.4934H188.003V92.8708H182.577C176.96 92.8708 174.079 90.0861 174.079 84.5647V72.7538H169.95V67.4245H174.079V61.6151ZM206.629 80.1476C206.629 72.1297 211.766 66.8484 219.688 66.8484C226.746 66.8484 232.171 71.7456 232.123 80.6758V82.0201H214.167C214.359 85.813 216.423 88.1176 219.688 88.1176C221.753 88.1176 223.673 86.8693 224.489 84.9488L231.787 85.4289C230.251 90.3742 225.498 93.4469 219.688 93.4469C211.766 93.4469 206.629 88.1656 206.629 80.1476ZM214.215 77.651H224.825C224.441 73.8101 222.233 72.1777 219.688 72.1777C216.615 72.1777 214.599 74.2422 214.215 77.651ZM234.76 67.4245H241.626L241.77 72.5618C242.73 69.1529 244.65 67.4245 247.867 67.4245H250.22V72.8018H247.819C243.642 72.8018 241.962 74.7703 241.962 78.7553V92.8708H234.76V67.4245ZM276.145 58.7824C284.307 58.7824 289.253 63.0074 289.253 69.9211C289.253 76.8348 284.307 81.1079 276.145 81.1079H269.808V92.8708H262.51V58.7824H276.145ZM269.808 74.9624H275.713C279.554 74.9624 281.763 73.2339 281.763 69.9211C281.763 66.6083 279.554 64.9279 275.713 64.9279H269.808V74.9624ZM292.055 67.4245H298.921L299.065 72.5618C300.025 69.1529 301.946 67.4245 305.162 67.4245H307.515V72.8018H305.114C300.937 72.8018 299.257 74.7703 299.257 78.7553V92.8708H292.055V67.4245ZM308.883 75.2985C309.843 69.8731 314.02 66.8484 320.694 66.8484C328.424 66.8484 332.409 70.6413 332.409 77.8911V85.9091C332.409 87.5895 333.081 87.9736 333.993 87.9736H334.905V92.8708L333.657 92.9188C331.977 92.9668 327.031 93.4469 326.359 88.9818C325.063 91.6225 322.23 93.4469 317.573 93.4469C312.388 93.4469 308.451 90.6622 308.451 86.1491C308.451 81.444 311.956 79.6675 318.101 78.4672L325.111 77.0269C325.063 73.33 323.67 71.5535 320.646 71.5535C318.197 71.5535 316.661 72.9459 316.085 75.6345L308.883 75.2985ZM315.845 85.9091C315.845 87.5415 317.189 88.7898 319.83 88.7898C322.95 88.7418 325.207 86.4372 325.207 81.8281V81.492L321.03 82.2602C318.005 82.8363 315.845 83.3164 315.845 85.9091ZM353.854 77.1709C353.422 74.0982 351.405 72.3697 348.86 72.3697C345.26 72.3697 343.195 75.2024 343.195 80.1476C343.195 85.0929 345.26 87.9256 348.86 87.9256C351.549 87.9256 353.566 86.1971 353.998 82.8843L361.44 83.1724C360.767 89.5099 355.63 93.4469 348.86 93.4469C340.938 93.4469 335.801 88.1656 335.801 80.1476C335.801 72.1297 340.938 66.8484 348.86 66.8484C355.438 66.8484 360.575 70.6413 361.247 76.8348L353.854 77.1709ZM365.595 61.6151H372.845V67.4245H379.47V72.7538H372.845V84.5647C372.845 86.4372 373.805 87.4934 375.629 87.4934H379.518V92.8708H374.093C368.476 92.8708 365.595 90.0861 365.595 84.5647V72.7538H361.466V67.4245H365.595V61.6151ZM382.14 67.4245H389.342V92.8708H382.14V67.4245ZM381.996 64.1117V58.7824H389.438V64.1117H381.996ZM410.211 77.1709C409.779 74.0982 407.763 72.3697 405.218 72.3697C401.617 72.3697 399.553 75.2024 399.553 80.1476C399.553 85.0929 401.617 87.9256 405.218 87.9256C407.907 87.9256 409.923 86.1971 410.355 82.8843L417.797 83.1724C417.125 89.5099 411.988 93.4469 405.218 93.4469C397.296 93.4469 392.159 88.1656 392.159 80.1476C392.159 72.1297 397.296 66.8484 405.218 66.8484C411.796 66.8484 416.933 70.6413 417.605 76.8348L410.211 77.1709ZM418.993 80.1476C418.993 72.1297 424.131 66.8484 432.053 66.8484C439.11 66.8484 444.536 71.7456 444.488 80.6758V82.0201H426.531C426.723 85.813 428.788 88.1176 432.053 88.1176C434.117 88.1176 436.038 86.8693 436.854 84.9488L444.152 85.4289C442.615 90.3742 437.862 93.4469 432.053 93.4469C424.131 93.4469 418.993 88.1656 418.993 80.1476ZM426.579 77.651H437.19C436.806 73.8101 434.597 72.1777 432.053 72.1777C428.98 72.1777 426.963 74.2422 426.579 77.651Z" fill="url(#paint0_linear_3_3513)"/>
<defs>
<linearGradient id="paint0_linear_3_3513" x1="504.257" y1="-10.4525" x2="504.257" y2="104.28" gradientUnits="userSpaceOnUse">
<stop offset="0.085" stop-color="#8254F3"/>
<stop offset="1" stop-color="#C73FA2"/>
</linearGradient>
</defs>
</svg>
