<svg width="14" height="23" viewBox="0 0 14 23" fill="none" xmlns="http://www.w3.org/2000/svg">
<g clip-path="url(#clip0_3_3714)">
<path d="M7.10597 12.1226C7.26931 11.8695 7.38014 11.5869 7.43031 11.2918C7.42612 11.0043 7.31025 10.729 7.10597 10.5212L0.669477 4.01578C0.241433 3.57257 0.00218018 2.98788 1.48268e-05 2.37975C-0.00215053 1.77162 0.232933 1.18534 0.657811 0.73925L0.690477 0.704067C0.903623 0.482523 1.16113 0.305768 1.44714 0.184684C1.73316 0.0635999 2.04162 0.000750927 2.35354 6.68811e-06C2.66547 -0.00073755 2.97425 0.0606387 3.26087 0.180356C3.54749 0.300074 3.80588 0.475599 4.02014 0.696123L13.665 10.4712C13.8773 10.6948 13.9975 10.9876 13.9998 11.2918C13.9485 11.6035 13.8347 11.9023 13.665 12.1714L4.02014 22.0055C3.80548 22.2257 3.54677 22.4007 3.25994 22.52C2.9731 22.6392 2.66421 22.7 2.35228 22.6988C2.04036 22.6975 1.73201 22.6341 1.44621 22.5125C1.16041 22.391 0.903224 22.2138 0.690477 21.9919L0.657811 21.951C0.232922 21.502 -0.00194996 20.9134 0.00021334 20.3031C0.00237664 19.6929 0.241416 19.1059 0.669477 18.6597L7.10597 12.1226Z" fill="#DDDDDD"/>
</g>
<defs>
<clipPath id="clip0_3_3714">
<rect width="14" height="22.6985" rx="6.78912" fill="white"/>
</clipPath>
</defs>
</svg>
