<svg width="14" height="23" viewBox="0 0 14 23" fill="none" xmlns="http://www.w3.org/2000/svg">
<g clip-path="url(#clip0_3_3745)">
<path d="M6.89402 10.5759C6.73069 10.829 6.61986 11.1116 6.56969 11.4067C6.57387 11.6942 6.68975 11.9695 6.89402 12.1773L13.3305 18.6827C13.7586 19.1259 13.9978 19.7106 14 20.3187C14.0022 20.9268 13.7671 21.5131 13.3422 21.9592L13.3095 21.9944C13.0964 22.2159 12.8389 22.3927 12.5529 22.5138C12.2668 22.6349 11.9584 22.6977 11.6465 22.6984C11.3345 22.6992 11.0258 22.6378 10.7391 22.5181C10.4525 22.3984 10.1941 22.2229 9.97986 22.0023L0.335023 12.2272C0.122689 12.0036 0.00252314 11.7108 0.000189776 11.4067C0.0515248 11.095 0.165288 10.7961 0.335023 10.5271L9.97986 0.692955C10.1945 0.472793 10.4532 0.297705 10.7401 0.178474C11.0269 0.0592436 11.3358 -0.00160474 11.6477 -0.000328421C11.9596 0.000945932 12.268 0.0643194 12.5538 0.185894C12.8396 0.307467 13.0968 0.484663 13.3095 0.706574L13.3422 0.747431C13.7671 1.19645 14.0019 1.78501 13.9998 2.3953C13.9976 3.00559 13.7586 3.59256 13.3305 4.03872L6.89402 10.5759Z" fill="#DDDDDD"/>
</g>
<defs>
<clipPath id="clip0_3_3745">
<rect x="14" y="22.6985" width="14" height="22.6985" rx="6.78912" transform="rotate(180 14 22.6985)" fill="white"/>
</clipPath>
</defs>
</svg>
