<svg width="509" height="34" viewBox="0 0 509 34" fill="none" xmlns="http://www.w3.org/2000/svg">
<path d="M11.045 0.0469207C21.6219 0.0469207 27.5656 6.0374 27.5656 16.7079C27.5656 27.3317 21.7623 33.2754 11.3258 33.2754H3.01603e-06V0.0469207H11.045ZM6.08409 27.9869H11.045C17.9714 27.9869 21.3411 24.2897 21.3411 16.7079C21.3411 9.03264 17.9714 5.33539 11.045 5.33539H6.08409V27.9869ZM41.8971 33.837C34.4558 33.837 29.5885 28.7357 29.5885 20.8732C29.5885 13.0107 34.4558 7.90943 41.8971 7.90943C49.2916 7.90943 54.1588 13.0107 54.1588 20.8732C54.1588 28.7357 49.2916 33.837 41.8971 33.837ZM35.813 20.8732C35.813 25.9745 38.0126 28.9697 41.8971 28.9697C45.7347 28.9697 47.9811 25.9745 47.9811 20.8732C47.9811 15.7719 45.7347 12.7767 41.8971 12.7767C38.0126 12.7767 35.813 15.7719 35.813 20.8732ZM57.0578 8.47104H62.4867L62.6739 12.5895C63.9843 9.21985 66.7923 7.90943 70.1152 7.90943C75.6376 7.90943 78.6329 11.7471 78.6329 17.3164V33.2754H72.5956V19.2352C72.5956 15.0699 71.5192 12.7767 68.2899 12.7767C65.0139 12.7767 63.0483 15.0699 63.0483 19.2352V33.2754H57.0578V8.47104ZM88.6912 6.31821L85.6492 13.6191H82.3263L84.3388 6.31821H81.9519V0.000120707H88.6444V6.31821H88.6912ZM94.8129 2.85496H100.803V8.47104H107.355V13.1043H100.803V25.6469C100.803 27.5657 101.786 28.6421 103.611 28.6421H107.355V33.2754H102.629C97.5273 33.2754 94.8129 30.7013 94.8129 25.6469V13.1043H90.8816V8.47104H94.8129V2.85496ZM122.037 2.85496H128.028V8.47104H134.58V13.1043H128.028V25.6469C128.028 27.5657 129.01 28.6421 130.836 28.6421H134.58V33.2754H129.853C124.751 33.2754 122.037 30.7013 122.037 25.6469V13.1043H118.106V8.47104H122.037V2.85496ZM136.454 16.0527C137.437 10.8579 141.415 7.90943 147.545 7.90943C154.706 7.90943 158.45 11.6067 158.45 18.58V27.0977C158.45 28.5017 159.058 28.9229 159.994 28.9229H160.977V33.2754L159.573 33.3222C157.654 33.369 153.723 33.4158 153.255 29.4845C152.085 31.965 149.277 33.837 144.971 33.837C139.964 33.837 136.033 31.1693 136.033 26.7701C136.033 21.9964 139.636 20.3584 145.486 19.2352L152.413 17.878C152.413 14.0403 150.775 12.2151 147.545 12.2151C144.878 12.2151 143.146 13.6659 142.585 16.3803L136.454 16.0527ZM142.257 26.5829C142.257 28.2677 143.708 29.6249 146.609 29.6249C149.979 29.6249 152.553 27.1445 152.553 22.2772V21.9496L147.826 22.792C144.691 23.3536 142.257 23.7748 142.257 26.5829ZM163.41 0.0469207H169.401V19.6564L179.557 8.47104H186.904L177.217 18.7204L187.372 33.2754H180.633L173.285 22.324L169.401 26.4893V33.2754H163.41V0.0469207ZM186.474 20.8732C186.474 13.0107 191.341 7.90943 198.783 7.90943C205.194 7.90943 210.343 12.3087 210.436 21.0604V22.5112H192.792C193.073 26.6297 195.226 29.1101 198.783 29.1101C201.029 29.1101 203.088 27.7997 203.978 25.6469L210.109 26.1149C208.611 30.8417 204.118 33.837 198.783 33.837C191.341 33.837 186.474 28.7357 186.474 20.8732ZM192.839 18.5332H204.258C203.79 14.2743 201.45 12.6363 198.783 12.6363C195.46 12.6363 193.307 14.8359 192.839 18.5332ZM417.905 7.81583C417.905 2.80816 420.338 0.0469207 425.861 0.0469207H430.494V4.68019H426.563C425.018 4.68019 423.942 5.897 423.942 7.81583V9.17304H430.12V13.8063H423.942V33.2754H417.905V13.8063H414.348V9.17304H417.905V7.81583ZM443.069 33.837C435.628 33.837 430.761 28.7357 430.761 20.8732C430.761 13.0107 435.628 7.90943 443.069 7.90943C450.464 7.90943 455.331 13.0107 455.331 20.8732C455.331 28.7357 450.464 33.837 443.069 33.837ZM436.985 20.8732C436.985 25.9745 439.185 28.9697 443.069 28.9697C446.907 28.9697 449.153 25.9745 449.153 20.8732C449.153 15.7719 446.907 12.7767 443.069 12.7767C439.185 12.7767 436.985 15.7719 436.985 20.8732ZM458.23 8.47104H463.846L463.987 13.3383C464.923 10.0623 466.795 8.47104 469.977 8.47104H472.27V13.1043H469.93C465.952 13.1043 464.221 15.1635 464.221 19.1416V33.2754H458.23V8.47104ZM484.632 8.47104H490.622V33.2754H484.632V8.47104ZM484.538 5.05459V0.0937208H490.762V5.05459H484.538ZM496.457 2.85496H502.448V8.47104H509V13.1043H502.448V25.6469C502.448 27.5657 503.431 28.6421 505.256 28.6421H509V33.2754H504.273C499.172 33.2754 496.457 30.7013 496.457 25.6469V13.1043H492.526V8.47104H496.457V2.85496Z" fill="black"/>
<path d="M233.777 33.837C226.335 33.837 221.468 28.7357 221.468 20.8732C221.468 13.0107 226.335 7.90943 233.777 7.90943C241.171 7.90943 246.038 13.0107 246.038 20.8732C246.038 28.7357 241.171 33.837 233.777 33.837ZM227.693 20.8732C227.693 25.9745 229.892 28.9697 233.777 28.9697C237.614 28.9697 239.861 25.9745 239.861 20.8732C239.861 15.7719 237.614 12.7767 233.777 12.7767C229.892 12.7767 227.693 15.7719 227.693 20.8732ZM270.096 33.2754H264.573L264.48 29.3441C263.122 32.5734 260.361 33.837 257.132 33.837C251.75 33.837 248.755 29.9993 248.755 24.4301V8.47104H254.745V22.4644C254.745 26.6765 255.868 28.9697 259.004 28.9697C262.233 28.9697 264.105 26.6765 264.105 22.4644V8.47104H270.096V33.2754ZM274.729 8.47104H280.346L280.486 13.3383C281.422 10.0623 283.294 8.47104 286.476 8.47104H288.77V13.1043H286.43C282.452 13.1043 280.72 15.1635 280.72 19.1416V33.2754H274.729V8.47104ZM320.085 8.47104L325.187 26.3957L330.288 8.47104H336.138L328.556 33.2754H322.425L317.511 16.5675L312.597 33.2754H306.466L298.885 8.47104H304.688L309.742 26.3957L314.89 8.47104H320.085ZM348.112 33.837C340.671 33.837 335.804 28.7357 335.804 20.8732C335.804 13.0107 340.671 7.90943 348.112 7.90943C355.507 7.90943 360.374 13.0107 360.374 20.8732C360.374 28.7357 355.507 33.837 348.112 33.837ZM342.028 20.8732C342.028 25.9745 344.228 28.9697 348.112 28.9697C351.95 28.9697 354.196 25.9745 354.196 20.8732C354.196 15.7719 351.95 12.7767 348.112 12.7767C344.228 12.7767 342.028 15.7719 342.028 20.8732ZM363.273 8.47104H368.889L369.029 13.3383C369.965 10.0623 371.837 8.47104 375.02 8.47104H377.313V13.1043H374.973C370.995 13.1043 369.263 15.1635 369.263 19.1416V33.2754H363.273V8.47104ZM401.569 0.0469207V33.2754H395.86L395.719 29.7185C394.315 32.2458 391.507 33.837 388.091 33.837C381.632 33.837 377.607 28.8293 377.607 20.8732C377.607 12.9171 381.632 7.90943 388.091 7.90943C391.32 7.90943 394.128 9.40705 395.579 11.8407V0.0469207H401.569ZM383.785 20.8732C383.785 25.8341 386.219 29.0165 389.869 29.0165C393.566 29.0165 395.953 25.8341 395.953 20.8732C395.953 15.8187 393.566 12.5895 389.869 12.5895C386.172 12.5895 383.785 15.8187 383.785 20.8732Z" fill="url(#paint0_linear_3_3674)"/>
<defs>
<linearGradient id="paint0_linear_3_3674" x1="455.42" y1="-10.4563" x2="455.42" y2="45.008" gradientUnits="userSpaceOnUse">
<stop offset="0.085" stop-color="#8254F3"/>
<stop offset="1" stop-color="#C73FA2"/>
</linearGradient>
</defs>
</svg>
