<svg width="381" height="17" viewBox="0 0 381 17" fill="none" xmlns="http://www.w3.org/2000/svg">
<path d="M3.59392 12.192H-2.768e-05V0.545739H3.75315C4.88289 0.545739 5.84962 0.77889 6.65333 1.24519C7.45704 1.70771 8.07309 2.37304 8.50149 3.2412C8.92988 4.10557 9.14408 5.14054 9.14408 6.3461C9.14408 7.55925 8.92798 8.60369 8.4958 9.47944C8.06362 10.3514 7.43429 11.0224 6.60784 11.4925C5.78138 11.9588 4.77674 12.192 3.59392 12.192ZM1.41026 10.9409H3.50294C4.46587 10.9409 5.2639 10.7551 5.89701 10.3836C6.53012 10.0121 7.00211 9.48323 7.31298 8.79704C7.62385 8.11085 7.77928 7.29387 7.77928 6.3461C7.77928 5.40591 7.62574 4.59652 7.31867 3.91791C7.01159 3.23551 6.55287 2.71234 5.9425 2.3484C5.33214 1.98066 4.57202 1.7968 3.66216 1.7968H1.41026V10.9409ZM11.3277 12.192V3.45729H12.6698V12.192H11.3277ZM12.0101 2.00152C11.7486 2.00152 11.523 1.91243 11.3334 1.73424C11.1477 1.55606 11.0548 1.34187 11.0548 1.09166C11.0548 0.841444 11.1477 0.627247 11.3334 0.449066C11.523 0.270885 11.7486 0.181794 12.0101 0.181794C12.2717 0.181794 12.4954 0.270885 12.6812 0.449066C12.8707 0.627247 12.9655 0.841444 12.9655 1.09166C12.9655 1.34187 12.8707 1.55606 12.6812 1.73424C12.4954 1.91243 12.2717 2.00152 12.0101 2.00152ZM18.4261 12.3739C17.6982 12.3739 17.0556 12.1901 16.4983 11.8223C15.941 11.4508 15.505 10.9276 15.1904 10.2528C14.8757 9.57421 14.7184 8.7724 14.7184 7.84737C14.7184 6.92993 14.8757 6.1338 15.1904 5.45899C15.505 4.78417 15.9429 4.2629 16.504 3.89516C17.0651 3.52743 17.7134 3.34356 18.4488 3.34356C19.0175 3.34356 19.4667 3.43834 19.7966 3.62789C20.1302 3.81366 20.3842 4.02596 20.5586 4.2648C20.7367 4.49984 20.8751 4.69319 20.9737 4.84483H21.0874V0.545739H22.4295V12.192H21.1329V10.8499H20.9737C20.8751 11.0091 20.7349 11.2101 20.5529 11.4527C20.3709 11.6915 20.1112 11.9057 19.7738 12.0953C19.4364 12.281 18.9872 12.3739 18.4261 12.3739ZM18.6081 11.1684C19.1464 11.1684 19.6013 11.0281 19.9728 10.7476C20.3444 10.4632 20.6268 10.0708 20.8201 9.57042C21.0135 9.06621 21.1102 8.48428 21.1102 7.82463C21.1102 7.17256 21.0154 6.602 20.8258 6.11295C20.6363 5.62011 20.3557 5.23721 19.9842 4.96425C19.6127 4.6875 19.154 4.54913 18.6081 4.54913C18.0394 4.54913 17.5655 4.69508 17.1864 4.987C16.8111 5.27512 16.5286 5.6675 16.3391 6.16413C16.1533 6.65697 16.0604 7.21047 16.0604 7.82463C16.0604 8.44636 16.1552 9.01124 16.3448 9.51924C16.5381 10.0235 16.8224 10.4253 17.1978 10.7248C17.5769 11.0205 18.047 11.1684 18.6081 11.1684ZM26.4158 6.93751V12.192H25.0737V3.45729H26.3703V4.82209H26.484C26.6888 4.37853 26.9996 4.02217 27.4166 3.753C27.8337 3.48004 28.372 3.34356 29.0316 3.34356C29.6231 3.34356 30.1405 3.46488 30.5841 3.70751C31.0277 3.94634 31.3726 4.31029 31.6191 4.79934C31.8655 5.2846 31.9887 5.89875 31.9887 6.64181V12.192H30.6466V6.73279C30.6466 6.04661 30.4685 5.51206 30.1121 5.12916C29.7557 4.74247 29.2667 4.54913 28.645 4.54913C28.2166 4.54913 27.8337 4.64201 27.4963 4.82777C27.1626 5.01354 26.8992 5.2846 26.7058 5.64096C26.5125 5.99732 26.4158 6.42951 26.4158 6.93751ZM35.6239 0.545739V1.56933C35.6239 1.8802 35.567 2.21192 35.4533 2.56449C35.3433 2.91327 35.1803 3.25258 34.9642 3.5824C34.7519 3.90843 34.4941 4.19276 34.1908 4.43539L33.463 3.84398C33.7018 3.50279 33.9084 3.14832 34.0828 2.78058C34.261 2.40906 34.3501 2.01289 34.3501 1.59208V0.545739H35.6239ZM41.4299 3.45729V4.59462H36.9034V3.45729H41.4299ZM38.2227 1.36461H39.5647V9.68984C39.5647 10.069 39.6197 10.3533 39.7296 10.5428C39.8434 10.7286 39.9874 10.8537 40.1618 10.9182C40.34 10.9788 40.5276 11.0091 40.7248 11.0091C40.8726 11.0091 40.9939 11.0016 41.0887 10.9864C41.1835 10.9674 41.2593 10.9523 41.3162 10.9409L41.5891 12.1465C41.4982 12.1806 41.3712 12.2147 41.2081 12.2488C41.0451 12.2867 40.8385 12.3057 40.5883 12.3057C40.2092 12.3057 39.8377 12.2242 39.4737 12.0612C39.1136 11.8981 38.8141 11.6498 38.5752 11.3162C38.3402 10.9826 38.2227 10.5618 38.2227 10.0538V1.36461ZM51.8421 3.45729V4.59462H47.1336V3.45729H51.8421ZM48.5439 12.192V2.25173C48.5439 1.7513 48.6614 1.33428 48.8965 1.00067C49.1315 0.667053 49.4367 0.416841 49.812 0.250033C50.1873 0.0832254 50.5835 -0.000178488 51.0005 -0.000178488C51.3303 -0.000178488 51.5995 0.0263593 51.808 0.0794349C52.0165 0.13251 52.172 0.181794 52.2743 0.227287L51.8876 1.38736C51.8194 1.36461 51.7246 1.33618 51.6033 1.30206C51.4858 1.26794 51.3303 1.25088 51.137 1.25088C50.6934 1.25088 50.3731 1.36272 50.176 1.58639C49.9826 1.81007 49.8859 2.138 49.8859 2.57018V12.192H48.5439ZM53.723 12.192V3.45729H55.065V12.192H53.723ZM54.4054 2.00152C54.1438 2.00152 53.9182 1.91243 53.7287 1.73424C53.5429 1.55606 53.45 1.34187 53.45 1.09166C53.45 0.841444 53.5429 0.627247 53.7287 0.449066C53.9182 0.270885 54.1438 0.181794 54.4054 0.181794C54.667 0.181794 54.8907 0.270885 55.0764 0.449066C55.266 0.627247 55.3607 0.841444 55.3607 1.09166C55.3607 1.34187 55.266 1.55606 55.0764 1.73424C54.8907 1.91243 54.667 2.00152 54.4054 2.00152ZM58.8651 6.93751V12.192H57.5231V3.45729H58.8196V4.82209H58.9334C59.1381 4.37853 59.449 4.02217 59.866 3.753C60.283 3.48004 60.8213 3.34356 61.481 3.34356C62.0724 3.34356 62.5899 3.46488 63.0334 3.70751C63.477 3.94634 63.822 4.31029 64.0684 4.79934C64.3148 5.2846 64.438 5.89875 64.438 6.64181V12.192H63.096V6.73279C63.096 6.04661 62.9178 5.51206 62.5614 5.12916C62.2051 4.74247 61.716 4.54913 61.0943 4.54913C60.6659 4.54913 60.283 4.64201 59.9456 4.82777C59.612 5.01354 59.3485 5.2846 59.1552 5.64096C58.9618 5.99732 58.8651 6.42951 58.8651 6.93751ZM70.1886 12.3739C69.4607 12.3739 68.8182 12.1901 68.2609 11.8223C67.7036 11.4508 67.2676 10.9276 66.9529 10.2528C66.6383 9.57421 66.481 8.7724 66.481 7.84737C66.481 6.92993 66.6383 6.1338 66.9529 5.45899C67.2676 4.78417 67.7055 4.2629 68.2666 3.89516C68.8276 3.52743 69.4759 3.34356 70.2114 3.34356C70.78 3.34356 71.2293 3.43834 71.5591 3.62789C71.8927 3.81366 72.1467 4.02596 72.3211 4.2648C72.4993 4.49984 72.6377 4.69319 72.7362 4.84483H72.85V0.545739H74.192V12.192H72.8955V10.8499H72.7362C72.6377 11.0091 72.4974 11.2101 72.3154 11.4527C72.1335 11.6915 71.8738 11.9057 71.5364 12.0953C71.199 12.281 70.7497 12.3739 70.1886 12.3739ZM70.3706 11.1684C70.9089 11.1684 71.3639 11.0281 71.7354 10.7476C72.1069 10.4632 72.3894 10.0708 72.5827 9.57042C72.7761 9.06621 72.8727 8.48428 72.8727 7.82463C72.8727 7.17256 72.7779 6.602 72.5884 6.11295C72.3988 5.62011 72.1183 5.23721 71.7468 4.96425C71.3752 4.6875 70.9165 4.54913 70.3706 4.54913C69.8019 4.54913 69.3281 4.69508 68.949 4.987C68.5736 5.27512 68.2912 5.6675 68.1016 6.16413C67.9159 6.65697 67.823 7.21047 67.823 7.82463C67.823 8.44636 67.9178 9.01124 68.1073 9.51924C68.3007 10.0235 68.585 10.4253 68.9603 10.7248C69.3394 11.0205 69.8095 11.1684 70.3706 11.1684ZM83.3191 12.192L80.6577 3.45729H82.068L83.956 10.1448H84.047L85.9122 3.45729H87.3452L89.1877 10.122H89.2787L91.1666 3.45729H92.5769L89.9156 12.192H88.5963L86.6856 5.48173H86.5491L84.6384 12.192H83.3191ZM95.6932 6.93751V12.192H94.3511V0.545739H95.6932V4.82209H95.8069C96.0116 4.37095 96.3187 4.01269 96.7281 3.74731C97.1414 3.47814 97.6911 3.34356 98.3773 3.34356C98.9725 3.34356 99.4937 3.46298 99.9411 3.70182C100.388 3.93687 100.735 4.29892 100.982 4.78797C101.232 5.27322 101.357 5.89117 101.357 6.64181V12.192H100.015V6.73279C100.015 6.03902 99.8349 5.50259 99.4748 5.12348C99.1184 4.74058 98.6237 4.54913 97.9906 4.54913C97.5508 4.54913 97.1565 4.64201 96.8078 4.82777C96.4628 5.01354 96.1898 5.2846 95.9889 5.64096C95.7917 5.99732 95.6932 6.42951 95.6932 6.93751ZM106.383 12.3967C105.829 12.3967 105.327 12.2924 104.876 12.0839C104.425 11.8716 104.066 11.5664 103.801 11.1684C103.536 10.7665 103.403 10.2813 103.403 9.71259C103.403 9.21216 103.501 8.80652 103.699 8.49565C103.896 8.18099 104.159 7.93457 104.489 7.75639C104.819 7.57821 105.183 7.44552 105.581 7.35832C105.983 7.26734 106.386 7.19531 106.792 7.14223C107.323 7.07399 107.753 7.02281 108.083 6.98869C108.417 6.95078 108.659 6.88823 108.811 6.80103C108.966 6.71384 109.044 6.56219 109.044 6.3461V6.30061C109.044 5.73953 108.89 5.30355 108.583 4.99268C108.28 4.68181 107.819 4.52638 107.201 4.52638C106.561 4.52638 106.058 4.66665 105.695 4.94719C105.331 5.22773 105.075 5.52723 104.927 5.84568L103.653 5.39075C103.881 4.86 104.184 4.44677 104.563 4.15106C104.946 3.85157 105.363 3.64306 105.814 3.52553C106.269 3.40422 106.716 3.34356 107.156 3.34356C107.437 3.34356 107.759 3.37768 108.123 3.44592C108.49 3.51037 108.845 3.64495 109.186 3.84967C109.531 4.05439 109.817 4.36336 110.045 4.77659C110.272 5.18982 110.386 5.74332 110.386 6.43709V12.192H109.044V11.0091H108.976C108.885 11.1987 108.733 11.4015 108.521 11.6176C108.308 11.8337 108.026 12.0176 107.673 12.1692C107.321 12.3209 106.891 12.3967 106.383 12.3967ZM106.587 11.1911C107.118 11.1911 107.565 11.0869 107.929 10.8783C108.297 10.6698 108.574 10.4007 108.76 10.0708C108.949 9.74102 109.044 9.39414 109.044 9.03019V7.80188C108.987 7.87012 108.862 7.93267 108.669 7.98954C108.479 8.04261 108.259 8.09 108.009 8.1317C107.763 8.16962 107.522 8.20374 107.287 8.23406C107.056 8.2606 106.868 8.28335 106.724 8.3023C106.375 8.3478 106.049 8.42172 105.746 8.52408C105.446 8.62265 105.204 8.7724 105.018 8.97333C104.836 9.17046 104.745 9.43963 104.745 9.78083C104.745 10.2471 104.917 10.5997 105.262 10.8385C105.611 11.0736 106.053 11.1911 106.587 11.1911ZM116.634 3.45729V4.59462H112.108V3.45729H116.634ZM113.427 1.36461H114.769V9.68984C114.769 10.069 114.824 10.3533 114.934 10.5428C115.048 10.7286 115.192 10.8537 115.366 10.9182C115.544 10.9788 115.732 11.0091 115.929 11.0091C116.077 11.0091 116.198 11.0016 116.293 10.9864C116.388 10.9674 116.464 10.9523 116.52 10.9409L116.793 12.1465C116.702 12.1806 116.575 12.2147 116.412 12.2488C116.249 12.2867 116.043 12.3057 115.793 12.3057C115.413 12.3057 115.042 12.2242 114.678 12.0612C114.318 11.8981 114.018 11.6498 113.78 11.3162C113.544 10.9826 113.427 10.5618 113.427 10.0538V1.36461ZM124.021 15.4675C123.794 15.4675 123.591 15.4485 123.413 15.4106C123.234 15.3765 123.111 15.3424 123.043 15.3082L123.384 14.1254C123.71 14.2088 123.998 14.2391 124.249 14.2164C124.499 14.1937 124.721 14.0818 124.914 13.8809C125.111 13.6838 125.291 13.3634 125.454 12.9198L125.704 12.2375L122.474 3.45729H123.93L126.341 10.4177H126.432L128.843 3.45729H130.299L126.591 13.4658C126.425 13.9169 126.218 14.2903 125.972 14.586C125.725 14.8855 125.439 15.1073 125.113 15.2514C124.791 15.3954 124.427 15.4675 124.021 15.4675ZM135.306 12.3739C134.518 12.3739 133.826 12.1863 133.231 11.811C132.639 11.4356 132.177 10.9106 131.843 10.2358C131.513 9.56094 131.348 8.7724 131.348 7.87012C131.348 6.96026 131.513 6.16603 131.843 5.48742C132.177 4.80882 132.639 4.28186 133.231 3.90654C133.826 3.53122 134.518 3.34356 135.306 3.34356C136.095 3.34356 136.785 3.53122 137.376 3.90654C137.971 4.28186 138.434 4.80882 138.764 5.48742C139.097 6.16603 139.264 6.96026 139.264 7.87012C139.264 8.7724 139.097 9.56094 138.764 10.2358C138.434 10.9106 137.971 11.4356 137.376 11.811C136.785 12.1863 136.095 12.3739 135.306 12.3739ZM135.306 11.1684C135.905 11.1684 136.398 11.0148 136.785 10.7077C137.171 10.4007 137.458 9.99692 137.643 9.4965C137.829 8.99607 137.922 8.45395 137.922 7.87012C137.922 7.28629 137.829 6.74227 137.643 6.23806C137.458 5.73384 137.171 5.3263 136.785 5.01543C136.398 4.70456 135.905 4.54913 135.306 4.54913C134.707 4.54913 134.214 4.70456 133.828 5.01543C133.441 5.3263 133.155 5.73384 132.969 6.23806C132.783 6.74227 132.69 7.28629 132.69 7.87012C132.69 8.45395 132.783 8.99607 132.969 9.4965C133.155 9.99692 133.441 10.4007 133.828 10.7077C134.214 11.0148 134.707 11.1684 135.306 11.1684ZM146.817 8.62075V3.45729H148.159V12.192H146.817V10.7134H146.726C146.522 11.157 146.203 11.5342 145.771 11.8451C145.339 12.1522 144.793 12.3057 144.133 12.3057C143.587 12.3057 143.102 12.1863 142.678 11.9474C142.253 11.7048 141.919 11.3409 141.677 10.8556C141.434 10.3666 141.313 9.7505 141.313 9.00745V3.45729H142.655V8.91646C142.655 9.55336 142.833 10.0614 143.189 10.4405C143.549 10.8196 144.008 11.0091 144.566 11.0091C144.899 11.0091 145.238 10.9238 145.583 10.7532C145.932 10.5826 146.224 10.3211 146.459 9.96849C146.698 9.61592 146.817 9.16667 146.817 8.62075ZM157.692 12.3967C157.138 12.3967 156.636 12.2924 156.185 12.0839C155.734 11.8716 155.375 11.5664 155.11 11.1684C154.845 10.7665 154.712 10.2813 154.712 9.71259C154.712 9.21216 154.81 8.80652 155.008 8.49565C155.205 8.18099 155.468 7.93457 155.798 7.75639C156.128 7.57821 156.492 7.44552 156.89 7.35832C157.292 7.26734 157.695 7.19531 158.101 7.14223C158.632 7.07399 159.062 7.02281 159.392 6.98869C159.726 6.95078 159.968 6.88823 160.12 6.80103C160.275 6.71384 160.353 6.56219 160.353 6.3461V6.30061C160.353 5.73953 160.199 5.30355 159.892 4.99268C159.589 4.68181 159.128 4.52638 158.511 4.52638C157.87 4.52638 157.368 4.66665 157.004 4.94719C156.64 5.22773 156.384 5.52723 156.236 5.84568L154.962 5.39075C155.19 4.86 155.493 4.44677 155.872 4.15106C156.255 3.85157 156.672 3.64306 157.123 3.52553C157.578 3.40422 158.025 3.34356 158.465 3.34356C158.746 3.34356 159.068 3.37768 159.432 3.44592C159.8 3.51037 160.154 3.64495 160.495 3.84967C160.84 4.05439 161.126 4.36336 161.354 4.77659C161.581 5.18982 161.695 5.74332 161.695 6.43709V12.192H160.353V11.0091H160.285C160.194 11.1987 160.042 11.4015 159.83 11.6176C159.618 11.8337 159.335 12.0176 158.983 12.1692C158.63 12.3209 158.2 12.3967 157.692 12.3967ZM157.896 11.1911C158.427 11.1911 158.874 11.0869 159.238 10.8783C159.606 10.6698 159.883 10.4007 160.069 10.0708C160.258 9.74102 160.353 9.39414 160.353 9.03019V7.80188C160.296 7.87012 160.171 7.93267 159.978 7.98954C159.788 8.04261 159.568 8.09 159.318 8.1317C159.072 8.16962 158.831 8.20374 158.596 8.23406C158.365 8.2606 158.177 8.28335 158.033 8.3023C157.684 8.3478 157.358 8.42172 157.055 8.52408C156.755 8.62265 156.513 8.7724 156.327 8.97333C156.145 9.17046 156.054 9.43963 156.054 9.78083C156.054 10.2471 156.226 10.5997 156.571 10.8385C156.92 11.0736 157.362 11.1911 157.896 11.1911ZM164.145 12.192V3.45729H165.441V4.77659H165.532C165.691 4.34441 165.979 3.99373 166.396 3.72456C166.813 3.4554 167.284 3.32081 167.807 3.32081C167.905 3.32081 168.029 3.32271 168.176 3.3265C168.324 3.33029 168.436 3.33598 168.512 3.34356V4.70835C168.466 4.69698 168.362 4.67992 168.199 4.65717C168.04 4.63064 167.871 4.61737 167.693 4.61737C167.268 4.61737 166.889 4.70646 166.556 4.88464C166.226 5.05903 165.964 5.30166 165.771 5.61253C165.581 5.9196 165.487 6.27028 165.487 6.66455V12.192H164.145ZM173.499 12.3739C172.657 12.3739 171.931 12.1882 171.321 11.8166C170.715 11.4413 170.246 10.9182 169.917 10.2471C169.59 9.57232 169.427 8.78756 169.427 7.89287C169.427 6.99817 169.59 6.20962 169.917 5.52723C170.246 4.84104 170.705 4.3065 171.293 3.9236C171.884 3.53691 172.574 3.34356 173.363 3.34356C173.818 3.34356 174.267 3.41938 174.71 3.57103C175.154 3.72267 175.558 3.96909 175.922 4.31029C176.286 4.6477 176.576 5.09504 176.792 5.65233C177.008 6.20962 177.116 6.89581 177.116 7.71089V8.27956H170.383V7.11948H175.751C175.751 6.62664 175.652 6.18688 175.455 5.80019C175.262 5.41349 174.985 5.10831 174.625 4.88464C174.269 4.66096 173.848 4.54913 173.363 4.54913C172.828 4.54913 172.366 4.68181 171.975 4.94719C171.588 5.20878 171.291 5.54997 171.082 5.97078C170.874 6.3916 170.769 6.84273 170.769 7.3242V8.09758C170.769 8.75723 170.883 9.31642 171.111 9.77514C171.342 10.2301 171.662 10.577 172.072 10.8158C172.481 11.0508 172.957 11.1684 173.499 11.1684C173.852 11.1684 174.17 11.1191 174.454 11.0205C174.743 10.9182 174.991 10.7665 175.199 10.5656C175.408 10.3609 175.569 10.1069 175.683 9.80357L176.979 10.1675C176.843 10.6073 176.613 10.994 176.291 11.3276C175.969 11.6574 175.571 11.9152 175.097 12.101C174.623 12.2829 174.09 12.3739 173.499 12.3739ZM185.003 0.545739V12.192H183.661V0.545739H185.003ZM191.01 12.3739C190.221 12.3739 189.529 12.1863 188.934 11.811C188.343 11.4356 187.88 10.9106 187.546 10.2358C187.217 9.56094 187.052 8.7724 187.052 7.87012C187.052 6.96026 187.217 6.16603 187.546 5.48742C187.88 4.80882 188.343 4.28186 188.934 3.90654C189.529 3.53122 190.221 3.34356 191.01 3.34356C191.798 3.34356 192.488 3.53122 193.08 3.90654C193.675 4.28186 194.137 4.80882 194.467 5.48742C194.801 6.16603 194.968 6.96026 194.968 7.87012C194.968 8.7724 194.801 9.56094 194.467 10.2358C194.137 10.9106 193.675 11.4356 193.08 11.811C192.488 12.1863 191.798 12.3739 191.01 12.3739ZM191.01 11.1684C191.609 11.1684 192.101 11.0148 192.488 10.7077C192.875 10.4007 193.161 9.99692 193.347 9.4965C193.533 8.99607 193.625 8.45395 193.625 7.87012C193.625 7.28629 193.533 6.74227 193.347 6.23806C193.161 5.73384 192.875 5.3263 192.488 5.01543C192.101 4.70456 191.609 4.54913 191.01 4.54913C190.411 4.54913 189.918 4.70456 189.531 5.01543C189.144 5.3263 188.858 5.73384 188.672 6.23806C188.487 6.74227 188.394 7.28629 188.394 7.87012C188.394 8.45395 188.487 8.99607 188.672 9.4965C188.858 9.99692 189.144 10.4007 189.531 10.7077C189.918 11.0148 190.411 11.1684 191.01 11.1684ZM200.565 12.3739C199.776 12.3739 199.084 12.1863 198.489 11.811C197.898 11.4356 197.435 10.9106 197.101 10.2358C196.772 9.56094 196.607 8.7724 196.607 7.87012C196.607 6.96026 196.772 6.16603 197.101 5.48742C197.435 4.80882 197.898 4.28186 198.489 3.90654C199.084 3.53122 199.776 3.34356 200.565 3.34356C201.353 3.34356 202.043 3.53122 202.635 3.90654C203.23 4.28186 203.692 4.80882 204.022 5.48742C204.356 6.16603 204.522 6.96026 204.522 7.87012C204.522 8.7724 204.356 9.56094 204.022 10.2358C203.692 10.9106 203.23 11.4356 202.635 11.811C202.043 12.1863 201.353 12.3739 200.565 12.3739ZM200.565 11.1684C201.164 11.1684 201.656 11.0148 202.043 10.7077C202.43 10.4007 202.716 9.99692 202.902 9.4965C203.088 8.99607 203.18 8.45395 203.18 7.87012C203.18 7.28629 203.088 6.74227 202.902 6.23806C202.716 5.73384 202.43 5.3263 202.043 5.01543C201.656 4.70456 201.164 4.54913 200.565 4.54913C199.966 4.54913 199.473 4.70456 199.086 5.01543C198.699 5.3263 198.413 5.73384 198.227 6.23806C198.042 6.74227 197.949 7.28629 197.949 7.87012C197.949 8.45395 198.042 8.99607 198.227 9.4965C198.413 9.99692 198.699 10.4007 199.086 10.7077C199.473 11.0148 199.966 11.1684 200.565 11.1684ZM207.822 9.00745L207.799 7.34695H208.072L211.894 3.45729H213.554L209.483 7.57441H209.369L207.822 9.00745ZM206.571 12.192V0.545739H207.913V12.192H206.571ZM212.121 12.192L208.709 7.87012L209.665 6.93751L213.827 12.192H212.121ZM215.282 12.192V3.45729H216.624V12.192H215.282ZM215.964 2.00152C215.702 2.00152 215.477 1.91243 215.287 1.73424C215.102 1.55606 215.009 1.34187 215.009 1.09166C215.009 0.841444 215.102 0.627247 215.287 0.449066C215.477 0.270885 215.702 0.181794 215.964 0.181794C216.226 0.181794 216.449 0.270885 216.635 0.449066C216.825 0.627247 216.919 0.841444 216.919 1.09166C216.919 1.34187 216.825 1.55606 216.635 1.73424C216.449 1.91243 216.226 2.00152 215.964 2.00152ZM220.424 6.93751V12.192H219.082V3.45729H220.378V4.82209H220.492C220.697 4.37853 221.008 4.02217 221.425 3.753C221.842 3.48004 222.38 3.34356 223.04 3.34356C223.631 3.34356 224.148 3.46488 224.592 3.70751C225.036 3.94634 225.381 4.31029 225.627 4.79934C225.873 5.2846 225.997 5.89875 225.997 6.64181V12.192H224.655V6.73279C224.655 6.04661 224.476 5.51206 224.12 5.12916C223.764 4.74247 223.275 4.54913 222.653 4.54913C222.225 4.54913 221.842 4.64201 221.504 4.82777C221.171 5.01354 220.907 5.2846 220.714 5.64096C220.52 5.99732 220.424 6.42951 220.424 6.93751ZM231.975 15.6494C231.326 15.6494 230.769 15.566 230.303 15.3992C229.837 15.2362 229.448 15.0201 229.137 14.7509C228.83 14.4856 228.585 14.2012 228.404 13.8979L229.473 13.1473C229.594 13.3065 229.747 13.4885 229.933 13.6932C230.119 13.9017 230.373 14.0818 230.695 14.2335C231.021 14.3889 231.448 14.4666 231.975 14.4666C232.68 14.4666 233.262 14.296 233.721 13.9548C234.179 13.6136 234.409 13.0791 234.409 12.3512V10.577H234.295C234.196 10.7362 234.056 10.9333 233.874 11.1684C233.696 11.3996 233.438 11.6062 233.101 11.7882C232.767 11.9664 232.316 12.0555 231.747 12.0555C231.042 12.0555 230.409 11.8887 229.848 11.5551C229.291 11.2214 228.849 10.7362 228.523 10.0993C228.201 9.46238 228.04 8.68899 228.04 7.77913C228.04 6.88444 228.197 6.10537 228.512 5.44193C228.826 4.7747 229.264 4.25911 229.825 3.89516C230.386 3.52743 231.035 3.34356 231.77 3.34356C232.339 3.34356 232.79 3.43834 233.123 3.62789C233.461 3.81366 233.719 4.02596 233.897 4.2648C234.079 4.49984 234.219 4.69319 234.318 4.84483H234.454V3.45729H235.751V12.4422C235.751 13.1928 235.58 13.8032 235.239 14.2733C234.901 14.7472 234.446 15.094 233.874 15.3139C233.305 15.5376 232.672 15.6494 231.975 15.6494ZM231.929 10.8499C232.468 10.8499 232.922 10.7267 233.294 10.4803C233.666 10.2339 233.948 9.8794 234.141 9.41688C234.335 8.95437 234.431 8.40087 234.431 7.75639C234.431 7.12707 234.337 6.57167 234.147 6.0902C233.957 5.60874 233.677 5.23152 233.305 4.95856C232.934 4.68561 232.475 4.54913 231.929 4.54913C231.361 4.54913 230.887 4.69319 230.508 4.98131C230.132 5.26943 229.85 5.65612 229.66 6.14138C229.474 6.62664 229.382 7.16498 229.382 7.75639C229.382 8.36296 229.476 8.8994 229.666 9.3657C229.859 9.82822 230.144 10.1922 230.519 10.4575C230.898 10.7191 231.368 10.8499 231.929 10.8499ZM246.601 3.45729V4.59462H241.892V3.45729H246.601ZM243.302 12.192V2.25173C243.302 1.7513 243.42 1.33428 243.655 1.00067C243.89 0.667053 244.195 0.416841 244.571 0.250033C244.946 0.0832254 245.342 -0.000178488 245.759 -0.000178488C246.089 -0.000178488 246.358 0.0263593 246.567 0.0794349C246.775 0.13251 246.931 0.181794 247.033 0.227287L246.646 1.38736C246.578 1.36461 246.483 1.33618 246.362 1.30206C246.244 1.26794 246.089 1.25088 245.896 1.25088C245.452 1.25088 245.132 1.36272 244.935 1.58639C244.741 1.81007 244.645 2.138 244.645 2.57018V12.192H243.302ZM251.67 12.3739C250.882 12.3739 250.19 12.1863 249.595 11.811C249.003 11.4356 248.541 10.9106 248.207 10.2358C247.877 9.56094 247.712 8.7724 247.712 7.87012C247.712 6.96026 247.877 6.16603 248.207 5.48742C248.541 4.80882 249.003 4.28186 249.595 3.90654C250.19 3.53122 250.882 3.34356 251.67 3.34356C252.459 3.34356 253.149 3.53122 253.74 3.90654C254.335 4.28186 254.798 4.80882 255.128 5.48742C255.461 6.16603 255.628 6.96026 255.628 7.87012C255.628 8.7724 255.461 9.56094 255.128 10.2358C254.798 10.9106 254.335 11.4356 253.74 11.811C253.149 12.1863 252.459 12.3739 251.67 12.3739ZM251.67 11.1684C252.269 11.1684 252.762 11.0148 253.149 10.7077C253.536 10.4007 253.822 9.99692 254.008 9.4965C254.193 8.99607 254.286 8.45395 254.286 7.87012C254.286 7.28629 254.193 6.74227 254.008 6.23806C253.822 5.73384 253.536 5.3263 253.149 5.01543C252.762 4.70456 252.269 4.54913 251.67 4.54913C251.071 4.54913 250.579 4.70456 250.192 5.01543C249.805 5.3263 249.519 5.73384 249.333 6.23806C249.147 6.74227 249.055 7.28629 249.055 7.87012C249.055 8.45395 249.147 8.99607 249.333 9.4965C249.519 9.99692 249.805 10.4007 250.192 10.7077C250.579 11.0148 251.071 11.1684 251.67 11.1684ZM257.677 12.192V3.45729H258.973V4.77659H259.064C259.224 4.34441 259.512 3.99373 259.929 3.72456C260.346 3.4554 260.816 3.32081 261.339 3.32081C261.438 3.32081 261.561 3.32271 261.709 3.3265C261.857 3.33029 261.968 3.33598 262.044 3.34356V4.70835C261.999 4.69698 261.894 4.67992 261.731 4.65717C261.572 4.63064 261.403 4.61737 261.225 4.61737C260.801 4.61737 260.422 4.70646 260.088 4.88464C259.758 5.05903 259.497 5.30166 259.303 5.61253C259.114 5.9196 259.019 6.27028 259.019 6.66455V12.192H257.677ZM265.387 8.91646V8.84822C265.394 8.12412 265.47 7.54788 265.614 7.11948C265.758 6.69109 265.963 6.34421 266.228 6.07883C266.494 5.81345 266.812 5.56893 267.183 5.34525C267.407 5.20878 267.608 5.04765 267.786 4.86189C267.964 4.67234 268.105 4.45435 268.207 4.20793C268.313 3.96151 268.366 3.68855 268.366 3.38905C268.366 3.01753 268.279 2.69529 268.105 2.42233C267.93 2.14937 267.697 1.93896 267.405 1.79111C267.113 1.64326 266.789 1.56933 266.433 1.56933C266.122 1.56933 265.822 1.63378 265.534 1.76268C265.246 1.89157 265.006 2.0944 264.812 2.37115C264.619 2.6479 264.507 3.00995 264.477 3.45729H263.044C263.074 2.81281 263.241 2.26121 263.544 1.80248C263.851 1.34376 264.255 0.993087 264.755 0.750457C265.26 0.507827 265.819 0.386513 266.433 0.386513C267.1 0.386513 267.68 0.519201 268.173 0.784577C268.67 1.04995 269.052 1.4139 269.322 1.87641C269.595 2.33892 269.731 2.86588 269.731 3.45729C269.731 3.87431 269.667 4.25153 269.538 4.58893C269.413 4.92634 269.231 5.22773 268.992 5.49311C268.757 5.75848 268.472 5.99353 268.139 6.19825C267.805 6.40676 267.538 6.62664 267.337 6.8579C267.136 7.08536 266.99 7.35643 266.899 7.67109C266.808 7.98575 266.759 8.37813 266.751 8.84822V8.91646H265.387ZM266.114 12.2829C265.834 12.2829 265.593 12.1825 265.392 11.9816C265.191 11.7806 265.091 11.5399 265.091 11.2594C265.091 10.9788 265.191 10.7381 265.392 10.5371C265.593 10.3362 265.834 10.2358 266.114 10.2358C266.395 10.2358 266.636 10.3362 266.837 10.5371C267.038 10.7381 267.138 10.9788 267.138 11.2594C267.138 11.4451 267.091 11.6157 266.996 11.7711C266.905 11.9266 266.782 12.0517 266.626 12.1465C266.475 12.2375 266.304 12.2829 266.114 12.2829Z" fill="black"/>
<path d="M280.679 12.192V0.545739H285.138C285.979 0.545739 286.679 0.678426 287.236 0.943802C287.797 1.20539 288.216 1.56365 288.493 2.01858C288.773 2.47351 288.914 2.98909 288.914 3.56534C288.914 4.03923 288.823 4.44487 288.641 4.78228C288.459 5.11589 288.214 5.38696 287.907 5.59547C287.6 5.80398 287.257 5.95372 286.878 6.04471V6.15844C287.291 6.18119 287.687 6.30819 288.066 6.53945C288.449 6.76691 288.762 7.08916 289.005 7.50617C289.247 7.92319 289.368 8.42741 289.368 9.01882C289.368 9.6216 289.222 10.1637 288.931 10.6452C288.639 11.1229 288.199 11.5001 287.611 11.7768C287.024 12.0536 286.284 12.192 285.393 12.192H280.679ZM282.789 10.4291H285.058C285.824 10.4291 286.375 10.2831 286.713 9.99123C287.054 9.69553 287.225 9.31642 287.225 8.85391C287.225 8.50892 287.139 8.19805 286.969 7.9213C286.798 7.64076 286.555 7.42088 286.241 7.26165C285.926 7.09863 285.551 7.01712 285.115 7.01712H282.789V10.4291ZM282.789 5.49879H284.876C285.24 5.49879 285.568 5.43245 285.86 5.29976C286.152 5.16328 286.381 4.97183 286.548 4.72541C286.718 4.4752 286.804 4.1795 286.804 3.8383C286.804 3.38716 286.645 3.01563 286.326 2.72372C286.011 2.4318 285.543 2.28585 284.922 2.28585H282.789V5.49879ZM294.923 12.3626C294.07 12.3626 293.331 12.1749 292.705 11.7996C292.08 11.4243 291.594 10.8992 291.249 10.2244C290.908 9.54957 290.738 8.76102 290.738 7.85875C290.738 6.95647 290.908 6.16603 291.249 5.48742C291.594 4.80882 292.08 4.28186 292.705 3.90654C293.331 3.53122 294.07 3.34356 294.923 3.34356C295.776 3.34356 296.515 3.53122 297.141 3.90654C297.766 4.28186 298.25 4.80882 298.591 5.48742C298.936 6.16603 299.108 6.95647 299.108 7.85875C299.108 8.76102 298.936 9.54957 298.591 10.2244C298.25 10.8992 297.766 11.4243 297.141 11.7996C296.515 12.1749 295.776 12.3626 294.923 12.3626ZM294.934 10.7134C295.397 10.7134 295.783 10.5864 296.094 10.3324C296.405 10.0746 296.636 9.72965 296.788 9.29746C296.944 8.86528 297.021 8.38381 297.021 7.85306C297.021 7.31852 296.944 6.83515 296.788 6.40297C296.636 5.96699 296.405 5.62011 296.094 5.36231C295.783 5.10452 295.397 4.97562 294.934 4.97562C294.46 4.97562 294.066 5.10452 293.751 5.36231C293.441 5.62011 293.207 5.96699 293.052 6.40297C292.9 6.83515 292.825 7.31852 292.825 7.85306C292.825 8.38381 292.9 8.86528 293.052 9.29746C293.207 9.72965 293.441 10.0746 293.751 10.3324C294.066 10.5864 294.46 10.7134 294.934 10.7134ZM304.665 12.3626C303.812 12.3626 303.073 12.1749 302.448 11.7996C301.822 11.4243 301.337 10.8992 300.992 10.2244C300.651 9.54957 300.48 8.76102 300.48 7.85875C300.48 6.95647 300.651 6.16603 300.992 5.48742C301.337 4.80882 301.822 4.28186 302.448 3.90654C303.073 3.53122 303.812 3.34356 304.665 3.34356C305.518 3.34356 306.258 3.53122 306.883 3.90654C307.509 4.28186 307.992 4.80882 308.333 5.48742C308.678 6.16603 308.851 6.95647 308.851 7.85875C308.851 8.76102 308.678 9.54957 308.333 10.2244C307.992 10.8992 307.509 11.4243 306.883 11.7996C306.258 12.1749 305.518 12.3626 304.665 12.3626ZM304.677 10.7134C305.139 10.7134 305.526 10.5864 305.837 10.3324C306.148 10.0746 306.379 9.72965 306.531 9.29746C306.686 8.86528 306.764 8.38381 306.764 7.85306C306.764 7.31852 306.686 6.83515 306.531 6.40297C306.379 5.96699 306.148 5.62011 305.837 5.36231C305.526 5.10452 305.139 4.97562 304.677 4.97562C304.203 4.97562 303.809 5.10452 303.494 5.36231C303.183 5.62011 302.95 5.96699 302.795 6.40297C302.643 6.83515 302.567 7.31852 302.567 7.85306C302.567 8.38381 302.643 8.86528 302.795 9.29746C302.95 9.72965 303.183 10.0746 303.494 10.3324C303.809 10.5864 304.203 10.7134 304.677 10.7134ZM312.475 9.451L312.469 6.96595H312.799L315.938 3.45729H318.343L314.482 7.75639H314.056L312.475 9.451ZM310.598 12.192V0.545739H312.657V12.192H310.598ZM316.08 12.192L313.237 8.217L314.624 6.76691L318.542 12.192H316.08ZM326.201 12.3682C325.647 12.3682 325.149 12.2697 324.705 12.0725C324.265 11.8716 323.917 11.5759 323.659 11.1854C323.405 10.7949 323.278 10.3135 323.278 9.74102C323.278 9.24818 323.369 8.84064 323.551 8.5184C323.733 8.19615 323.981 7.93836 324.296 7.74501C324.61 7.55167 324.965 7.40571 325.359 7.30714C325.757 7.20478 326.169 7.13086 326.593 7.08536C327.105 7.03229 327.52 6.9849 327.839 6.9432C328.157 6.89771 328.388 6.82947 328.532 6.73848C328.68 6.6437 328.754 6.49775 328.754 6.30061V6.26649C328.754 5.8381 328.627 5.50638 328.373 5.27133C328.119 5.03628 327.753 4.91876 327.276 4.91876C326.771 4.91876 326.371 5.0287 326.076 5.24858C325.784 5.46847 325.587 5.72815 325.484 6.02765L323.562 5.75469C323.714 5.22394 323.964 4.78038 324.313 4.42402C324.662 4.06387 325.088 3.7947 325.592 3.61652C326.097 3.43455 326.654 3.34356 327.264 3.34356C327.685 3.34356 328.104 3.39285 328.521 3.49141C328.938 3.58998 329.319 3.753 329.664 3.98046C330.009 4.20414 330.286 4.50932 330.494 4.89601C330.706 5.2827 330.813 5.76607 330.813 6.3461V12.192H328.834V10.9921H328.765C328.64 11.2347 328.464 11.4622 328.237 11.6745C328.013 11.883 327.73 12.0517 327.389 12.1806C327.052 12.3057 326.656 12.3682 326.201 12.3682ZM326.735 10.8556C327.149 10.8556 327.507 10.7741 327.81 10.6111C328.113 10.4443 328.347 10.2244 328.51 9.95143C328.676 9.67847 328.76 9.38087 328.76 9.05863V8.02935C328.695 8.08242 328.585 8.1317 328.43 8.1772C328.278 8.22269 328.108 8.2625 327.918 8.29662C327.729 8.33074 327.541 8.36107 327.355 8.3876C327.169 8.41414 327.008 8.43689 326.872 8.45584C326.565 8.49754 326.29 8.56578 326.047 8.66056C325.805 8.75534 325.613 8.88803 325.473 9.05863C325.333 9.22543 325.262 9.44153 325.262 9.7069C325.262 10.086 325.401 10.3722 325.678 10.5656C325.954 10.7589 326.307 10.8556 326.735 10.8556ZM340.892 12.192H336.946V0.545739H340.972C342.128 0.545739 343.121 0.77889 343.952 1.24519C344.786 1.70771 345.426 2.37304 345.874 3.2412C346.321 4.10936 346.545 5.14812 346.545 6.35748C346.545 7.57062 346.319 8.61317 345.868 9.48512C345.421 10.3571 344.774 11.0262 343.929 11.4925C343.087 11.9588 342.075 12.192 340.892 12.192ZM339.055 10.3666H340.79C341.601 10.3666 342.278 10.2187 342.82 9.92299C343.362 9.6235 343.77 9.17804 344.043 8.58663C344.316 7.99143 344.452 7.24838 344.452 6.35748C344.452 5.46657 344.316 4.72731 344.043 4.13969C343.77 3.54828 343.366 3.10662 342.831 2.8147C342.301 2.519 341.641 2.37115 340.852 2.37115H339.055V10.3666ZM352.325 12.3626C351.449 12.3626 350.693 12.1806 350.056 11.8166C349.423 11.4489 348.936 10.9295 348.595 10.2585C348.254 9.58369 348.083 8.78946 348.083 7.87581C348.083 6.97732 348.254 6.18877 348.595 5.51017C348.94 4.82777 349.421 4.29702 350.039 3.91791C350.657 3.53501 351.383 3.34356 352.217 3.34356C352.755 3.34356 353.263 3.43076 353.741 3.60515C354.223 3.77574 354.647 4.04112 355.015 4.40127C355.386 4.76143 355.678 5.22015 355.891 5.77744C356.103 6.33094 356.209 6.99059 356.209 7.75639V8.3876H349.05V7.00006H354.236C354.232 6.60579 354.147 6.25512 353.98 5.94804C353.813 5.63717 353.58 5.39264 353.28 5.21446C352.985 5.03628 352.64 4.94719 352.246 4.94719C351.825 4.94719 351.455 5.04955 351.137 5.25427C350.818 5.4552 350.57 5.72057 350.392 6.0504C350.217 6.37643 350.128 6.73469 350.124 7.12517V8.33642C350.124 8.84443 350.217 9.2804 350.403 9.64435C350.589 10.0045 350.849 10.2813 351.182 10.4746C351.516 10.6642 351.906 10.7589 352.354 10.7589C352.653 10.7589 352.924 10.7172 353.167 10.6338C353.409 10.5466 353.62 10.4196 353.798 10.2528C353.976 10.086 354.111 9.8794 354.202 9.63297L356.124 9.84907C356.002 10.3571 355.771 10.8006 355.43 11.1797C355.093 11.5551 354.66 11.847 354.133 12.0555C353.607 12.2602 353.004 12.3626 352.325 12.3626ZM357.951 12.192V3.45729H359.918V4.9415H360.021C360.203 4.44108 360.504 4.0506 360.925 3.77006C361.346 3.48573 361.848 3.34356 362.432 3.34356C363.023 3.34356 363.522 3.48762 363.927 3.77575C364.337 4.06008 364.625 4.44866 364.792 4.9415H364.883C365.076 4.45625 365.402 4.06955 365.861 3.78143C366.323 3.48952 366.871 3.34356 367.504 3.34356C368.308 3.34356 368.964 3.59756 369.472 4.10557C369.98 4.61358 370.234 5.35473 370.234 6.32904V12.192H368.17V6.64749C368.17 6.10537 368.025 5.7092 367.737 5.45899C367.449 5.20498 367.097 5.07798 366.68 5.07798C366.183 5.07798 365.794 5.23342 365.514 5.54429C365.237 5.85137 365.099 6.25132 365.099 6.74417V12.192H363.08V6.56219C363.08 6.11105 362.944 5.7509 362.671 5.48173C362.401 5.21257 362.049 5.07798 361.613 5.07798C361.317 5.07798 361.048 5.15381 360.805 5.30545C360.563 5.4533 360.369 5.66371 360.225 5.93666C360.081 6.20583 360.009 6.52049 360.009 6.88065V12.192H357.951ZM376.132 12.3626C375.279 12.3626 374.54 12.1749 373.914 11.7996C373.289 11.4243 372.804 10.8992 372.459 10.2244C372.117 9.54957 371.947 8.76102 371.947 7.85875C371.947 6.95647 372.117 6.16603 372.459 5.48742C372.804 4.80882 373.289 4.28186 373.914 3.90654C374.54 3.53122 375.279 3.34356 376.132 3.34356C376.985 3.34356 377.724 3.53122 378.35 3.90654C378.976 4.28186 379.459 4.80882 379.8 5.48742C380.145 6.16603 380.318 6.95647 380.318 7.85875C380.318 8.76102 380.145 9.54957 379.8 10.2244C379.459 10.8992 378.976 11.4243 378.35 11.7996C377.724 12.1749 376.985 12.3626 376.132 12.3626ZM376.144 10.7134C376.606 10.7134 376.993 10.5864 377.304 10.3324C377.615 10.0746 377.846 9.72965 377.997 9.29746C378.153 8.86528 378.231 8.38381 378.231 7.85306C378.231 7.31852 378.153 6.83515 377.997 6.40297C377.846 5.96699 377.615 5.62011 377.304 5.36231C376.993 5.10452 376.606 4.97562 376.144 4.97562C375.67 4.97562 375.275 5.10452 374.961 5.36231C374.65 5.62011 374.417 5.96699 374.261 6.40297C374.11 6.83515 374.034 7.31852 374.034 7.85306C374.034 8.38381 374.11 8.86528 374.261 9.29746C374.417 9.72965 374.65 10.0746 374.961 10.3324C375.275 10.5864 375.67 10.7134 376.144 10.7134Z" fill="url(#paint0_linear_0_11)"/>
<path d="M279.531 15.3765H381V16.4683H279.531V15.3765Z" fill="url(#paint1_linear_0_11)"/>
<defs>
<linearGradient id="paint0_linear_0_11" x1="340.238" y1="-5.67791" x2="340.238" y2="18.0742" gradientUnits="userSpaceOnUse">
<stop offset="0.085" stop-color="#8254F3"/>
<stop offset="1" stop-color="#C73FA2"/>
</linearGradient>
<linearGradient id="paint1_linear_0_11" x1="340.238" y1="-5.67791" x2="340.238" y2="18.0742" gradientUnits="userSpaceOnUse">
<stop offset="0.085" stop-color="#8254F3"/>
<stop offset="1" stop-color="#C73FA2"/>
</linearGradient>
</defs>
</svg>
