<svg width="76" height="188" viewBox="0 0 76 188" fill="none" xmlns="http://www.w3.org/2000/svg">
<path d="M67.3918 178.524C58.0887 170.897 50.0436 161.727 43.6495 151.327L43.0366 150.317C30.2798 129.055 25.1491 104.066 28.5133 79.4768C31.4433 58.0612 40.6617 38.0846 54.8828 22.0187L64.3064 63.3808L76 60.7168L63.2307 4.66587C62.4949 1.43673 59.2801 -0.584483 56.0509 0.151039L1.66985e-05 12.9203L2.66399 24.6159L45.1386 14.9381C29.7851 32.6211 19.8297 54.4635 16.6299 77.8512C12.8955 105.147 18.5912 132.887 32.7522 156.488L33.4334 157.608C40.5312 169.152 49.4604 179.333 59.7873 187.8L67.3918 178.524Z" fill="#EBDDF1"/>
</svg>
