<svg width="168" height="75" viewBox="0 0 168 75" fill="none" xmlns="http://www.w3.org/2000/svg">
<path d="M165.763 33.5433C167.88 35.6603 167.946 39.0512 165.961 41.2477L165.763 41.4567L132.22 75L124.307 67.0867L148.582 42.8114L1.33898e-05 42.8114L1.38542e-05 32.1867L148.581 32.1867L148.414 32.0197C148.165 31.7709 148.154 31.7611 147.907 31.5137C147.78 31.3869 147.53 31.1355 147.404 31.0097L147.029 30.6347C147.022 30.6279 146.912 30.5185 146.904 30.5106L144.934 28.5406C143.85 27.4572 142.14 25.7456 141.079 24.6845L124.307 7.91237L128.263 3.95569L132.22 -1.53786e-06C138.461 6.24138 144.189 11.9685 148.992 16.7712C154.261 22.0398 159.056 26.8359 165.763 33.5433Z" fill="#DDD0FC"/>
</svg>
