<svg width="188" height="77" viewBox="0 0 188 77" fill="none" xmlns="http://www.w3.org/2000/svg">
<path d="M178.697 8.3498C171.083 17.6803 161.921 25.7542 151.525 32.1789L150.513 32.7958C129.258 45.6146 104.253 50.808 79.6296 47.4961C58.1841 44.6116 38.1644 35.4284 22.0486 21.2284L63.4346 11.7014L60.7411 3.73436e-05L4.6578 12.9107C1.4268 13.6548 -0.589434 16.8776 0.154344 20.1087L13.0651 76.192L24.7664 73.4985L14.9815 30.9993C32.7186 46.3294 54.6078 56.246 78.0283 59.3962C105.363 63.0727 133.121 57.3077 156.716 43.0775L157.836 42.394C169.377 35.2621 179.548 26.2981 188 15.9406L178.697 8.3498Z" fill="#EBDDF1"/>
</svg>
