<svg width="21" height="21" viewBox="0 0 21 21" fill="none" xmlns="http://www.w3.org/2000/svg">
<path d="M6.5049 20.6754C4.66941 20.6754 3.1221 19.9916 1.86259 18.6241C0.620721 17.2565 0 15.601 0 13.6576C0 11.7143 0.620721 10.0588 1.86259 8.69124C3.1221 7.32367 4.66941 6.63989 6.5049 6.63989C7.42286 6.63989 8.26855 6.84684 9.042 7.2607C9.81585 7.65657 10.4099 8.1424 10.8237 8.71821V6.90981H13.7927V20.4055H10.8237V18.5971C10.4099 19.1729 9.81585 19.6677 9.042 20.0816C8.26855 20.4775 7.42286 20.6754 6.5049 20.6754ZM4.15665 16.7347C4.91244 17.5624 5.87515 17.9763 7.04476 17.9763C8.21437 17.9763 9.17707 17.5624 9.93286 16.7347C10.6887 15.9069 11.0663 14.8813 11.0663 13.6576C11.0663 12.434 10.6887 11.4084 9.93286 10.5806C9.17707 9.75288 8.21437 9.33902 7.04476 9.33902C5.87515 9.33902 4.91244 9.75288 4.15665 10.5806C3.40086 11.4084 3.02316 12.434 3.02316 13.6576C3.02316 14.8813 3.40086 15.9069 4.15665 16.7347ZM19.0295 3.96776C18.4896 3.96776 18.022 3.7788 17.6258 3.40094C17.2301 3.00506 17.0322 2.52823 17.0322 1.9704C17.0322 1.43054 17.2301 0.971691 17.6258 0.593836C18.022 0.197959 18.4896 0 19.0295 0C19.5874 0 20.0554 0.197959 20.4331 0.593836C20.8112 0.971691 21 1.43054 21 1.9704C21 2.52823 20.8112 3.00506 20.4331 3.40094C20.0554 3.7788 19.5874 3.96776 19.0295 3.96776ZM17.545 20.4055V6.90981H20.5139V20.4055H17.545Z" fill="url(#paint0_linear_3_3489)"/>
<defs>
<linearGradient id="paint0_linear_3_3489" x1="18.7417" y1="0.125131" x2="18.7417" y2="20.5697" gradientUnits="userSpaceOnUse">
<stop offset="0.085" stop-color="#8254F3"/>
<stop offset="1" stop-color="#C73FA2"/>
</linearGradient>
</defs>
</svg>
