<svg width="8" height="14" viewBox="0 0 8 14" fill="none" xmlns="http://www.w3.org/2000/svg">
<path d="M7.5169 7.5169L1.20259 13.8312C1.06837 13.9462 0.89573 14.0062 0.719157 13.9994C0.542583 13.9926 0.375086 13.9194 0.250137 13.7944C0.125187 13.6695 0.0519891 13.502 0.0451688 13.3254C0.0383486 13.1488 0.098409 12.9762 0.213348 12.842L6.02953 7.01877L0.206332 1.20259C0.140917 1.13717 0.0890266 1.05952 0.0536241 0.974046C0.0182216 0.888577 0 0.796972 0 0.704461C0 0.517626 0.0742198 0.338444 0.206332 0.206332C0.338444 0.0742197 0.517626 0 0.704461 0C0.796972 0 0.888577 0.0182214 0.974047 0.0536239C1.05952 0.0890263 1.13717 0.140917 1.20259 0.206332L7.5169 6.52064C7.58266 6.58587 7.63486 6.66346 7.67048 6.74896C7.70609 6.83445 7.72443 6.92616 7.72443 7.01877C7.72443 7.11139 7.70609 7.20309 7.67048 7.28859C7.63486 7.37408 7.58266 7.45168 7.5169 7.5169Z" fill="#545454"/>
</svg>
