<svg width="30" height="30" viewBox="0 0 30 30" fill="none" xmlns="http://www.w3.org/2000/svg">
<path d="M9.29271 29.5363C6.67058 29.5363 4.46014 28.5594 2.66083 26.6058C0.886744 24.6521 0 22.2871 0 19.5109C0 16.7347 0.886744 14.3697 2.66083 12.416C4.46014 10.4624 6.67058 9.48554 9.29271 9.48554C10.6041 9.48554 11.8122 9.78119 12.9171 10.3724C14.0226 10.938 14.8713 11.632 15.4624 12.4546V9.87115H19.7038V29.1507H15.4624V26.5672C14.8713 27.3898 14.0226 28.0967 12.9171 28.6879C11.8122 29.2535 10.6041 29.5363 9.29271 29.5363ZM5.93807 23.9066C7.01777 25.0891 8.39306 25.6804 10.0639 25.6804C11.7348 25.6804 13.1101 25.0891 14.1898 23.9066C15.2695 22.7242 15.809 21.2589 15.809 19.5109C15.809 17.7629 15.2695 16.2976 14.1898 15.1152C13.1101 13.9327 11.7348 13.3414 10.0639 13.3414C8.39306 13.3414 7.01777 13.9327 5.93807 15.1152C4.85837 16.2976 4.3188 17.7629 4.3188 19.5109C4.3188 21.2589 4.85837 22.7242 5.93807 23.9066ZM27.1849 5.66823C26.4137 5.66823 25.7457 5.39827 25.1797 4.85848C24.6144 4.29294 24.3317 3.61175 24.3317 2.81485C24.3317 2.04363 24.6144 1.38813 25.1797 0.848337C25.7457 0.282798 26.4137 0 27.1849 0C27.9819 0 28.6505 0.282798 29.1901 0.848337C29.7302 1.38813 30 2.04363 30 2.81485C30 3.61175 29.7302 4.29294 29.1901 4.85848C28.6505 5.39827 27.9819 5.66823 27.1849 5.66823ZM25.0642 29.1507V9.87115H29.3056V29.1507H25.0642Z" fill="url(#paint0_linear_3_3607)"/>
<defs>
<linearGradient id="paint0_linear_3_3607" x1="26.7738" y1="0.178758" x2="26.7738" y2="29.3853" gradientUnits="userSpaceOnUse">
<stop offset="0.085" stop-color="#8254F3"/>
<stop offset="1" stop-color="#C73FA2"/>
</linearGradient>
</defs>
</svg>
