<svg width="85" height="19" viewBox="0 0 85 19" fill="none" xmlns="http://www.w3.org/2000/svg">
<path d="M5.43615 18.7361V2.95556H0V0H13.9861V2.95556H8.52388V18.7361H5.43615ZM13.944 18.7361V5.54167H16.8467V7.89028C17.0931 7.1514 17.5414 6.55324 18.1925 6.09584C18.8612 5.63844 19.5736 5.40974 20.3302 5.40974C20.7873 5.40974 21.1658 5.4449 21.4648 5.51526V8.49723C21.0426 8.33889 20.5589 8.2597 20.0135 8.2597C19.1337 8.2597 18.3859 8.62037 17.7702 9.34167C17.1545 10.0454 16.8467 11.0306 16.8467 12.2972V18.7361H13.944ZM34.1132 17.0208C32.7935 18.3403 31.1575 19 29.2048 19C27.2522 19 25.607 18.3403 24.27 17.0208C22.9507 15.6838 22.2909 14.0565 22.2909 12.1389C22.2909 10.2213 22.9507 8.60275 24.27 7.28333C25.607 5.94629 27.2522 5.27777 29.2048 5.27777C31.1575 5.27777 32.7935 5.94629 34.1132 7.28333C35.4501 8.60275 36.1188 10.2213 36.1188 12.1389C36.1188 14.0565 35.4501 15.6838 34.1132 17.0208ZM29.2048 16.3083C30.3483 16.3083 31.2896 15.9125 32.0285 15.1208C32.7847 14.3115 33.1631 13.3176 33.1631 12.1389C33.1631 10.9602 32.7847 9.97499 32.0285 9.18333C31.2896 8.37405 30.3483 7.96943 29.2048 7.96943C28.0437 7.96943 27.0848 8.37405 26.3282 9.18333C25.5893 9.97499 25.22 10.9602 25.22 12.1389C25.22 13.3176 25.5893 14.3115 26.3282 15.1208C27.0848 15.9125 28.0437 16.3083 29.2048 16.3083ZM42.556 18.7361L36.592 5.54167H39.8114L43.8227 14.8041L47.8601 5.54167H51.106L45.1155 18.7361H42.556ZM58.4932 19C56.4879 19 54.8339 18.3578 53.5322 17.0736C52.2479 15.7893 51.6057 14.1444 51.6057 12.1389C51.6057 10.1861 52.2567 8.5588 53.5587 7.25692C54.8604 5.9375 56.5052 5.27777 58.4932 5.27777C60.323 5.27777 61.8358 5.85831 63.0323 7.01943C64.246 8.18055 64.8529 9.78145 64.8529 11.8222C64.8529 12.1741 64.844 12.4907 64.8268 12.7722H54.4558C54.526 13.8454 54.9394 14.7162 55.696 15.3847C56.4526 16.0356 57.3938 16.3611 58.5197 16.3611C60.2086 16.3611 61.4665 15.6926 62.2933 14.3555L64.5101 15.9389C63.2434 17.9796 61.2377 19 58.4932 19ZM54.5878 10.6611H61.9237C61.7655 9.74629 61.3521 9.03378 60.6834 8.5236C60.0328 7.99584 59.2674 7.73194 58.3876 7.73194C57.4729 7.73194 56.6549 7.98701 55.9336 8.49723C55.23 9.00741 54.7813 9.72867 54.5878 10.6611ZM75.8464 18.7361L72.2838 14.2764L68.7213 18.7361H65.1852L70.4367 12.1653L65.4758 5.54167H68.9324L72.2577 9.97499L75.5827 5.54167H79.0658L74.1048 12.1653L79.3563 18.7361H75.8464ZM82.7042 18.9472C82.0885 18.9472 81.5518 18.7273 81.0947 18.2875C80.6548 17.8301 80.4348 17.2847 80.4348 16.6514C80.4348 16.0356 80.6548 15.499 81.0947 15.0416C81.5518 14.5842 82.0885 14.3555 82.7042 14.3555C83.3375 14.3555 83.8741 14.5842 84.3141 15.0416C84.7712 15.499 85 16.0356 85 16.6514C85 17.2847 84.7712 17.8301 84.3141 18.2875C83.8741 18.7273 83.3375 18.9472 82.7042 18.9472Z" fill="#211D6D"/>
</svg>
