<svg width="799" height="185" viewBox="0 0 799 185" fill="none" xmlns="http://www.w3.org/2000/svg">
<path d="M54.7188 184.786V28.6308H0V0H140.78V28.6308H85.7991V184.786H54.7188ZM140.356 184.858V53.6826H169.574V76.4338C172.055 69.2762 176.567 63.4817 183.12 59.0508C189.851 54.62 197.022 52.4045 204.638 52.4045C209.24 52.4045 213.049 52.7451 216.059 53.4267V82.3133C211.809 80.7795 206.941 80.0123 201.45 80.0123C192.594 80.0123 185.068 83.5062 178.87 90.4935C172.673 97.3101 169.574 106.854 169.574 119.124L170.063 184.858H140.356ZM343.374 164.882C330.09 177.663 313.804 184.828 294.149 184.828C274.494 184.828 257.753 177.663 244.295 164.882C231.015 151.93 224.374 136.166 224.374 117.59C224.374 99.0143 231.015 83.3355 244.295 70.5542C257.753 57.6021 274.313 51.1261 293.968 51.1261C313.623 51.1261 330.09 57.6021 343.374 70.5542C356.831 83.3355 363.562 99.0143 363.562 117.59C363.562 136.166 356.831 151.93 343.374 164.882ZM293.968 157.98C305.478 157.98 314.952 154.146 322.39 146.477C330.001 138.637 333.811 129.008 333.811 117.59C333.811 106.172 330.001 96.6285 322.39 88.9596C314.952 81.1201 305.478 77.2005 293.968 77.2005C282.28 77.2005 272.628 81.1201 265.013 88.9596C257.575 96.6285 253.858 106.172 253.858 117.59C253.858 129.008 257.575 138.637 265.013 146.477C272.628 154.146 282.28 157.98 293.968 157.98ZM428.417 184.707L368.325 53.6826H400.731L441.107 143.409L481.747 53.6826H514.419L454.387 184.707H428.417ZM588.779 184.839C568.595 184.839 551.943 177.834 538.841 165.393C525.913 152.953 519.448 137.018 519.448 117.59C519.448 98.6737 526.002 82.9098 539.108 70.2983C552.21 57.517 568.766 51.1261 588.776 51.1261C607.195 51.1261 622.422 56.7499 634.465 67.9978C646.683 79.2456 652.791 94.7537 652.791 114.523C652.791 117.931 652.702 120.999 652.528 123.725H548.137C548.844 134.121 553.005 142.557 560.621 149.033C568.236 155.338 577.71 158.491 589.043 158.491C606.043 158.491 618.705 152.015 627.028 139.063L649.341 154.401C636.59 174.17 616.405 184.839 588.779 184.839ZM549.466 103.275H623.307C621.715 94.4131 617.554 87.5109 610.823 82.5688C604.274 77.4563 596.569 74.8999 587.714 74.8999C578.506 74.8999 570.273 77.3708 563.013 82.3133C555.93 87.2555 551.414 94.2424 549.466 103.275ZM763.641 184.879L727.589 138.296L691.634 184.879H656.501L708.997 117.846L659.061 53.6826H693.854L727.326 96.6285L760.794 53.6826H795.854L745.919 117.846L799 184.879H763.641Z" fill="white" fill-opacity="0.12"/>
</svg>
