<svg width="17" height="20" viewBox="0 0 17 20" fill="none" xmlns="http://www.w3.org/2000/svg">
<path d="M16.0479 6.6645C14.4626 6.92576 11.8765 6.99661 10.1584 3.73743C8.31623 0.234697 5.34045 0.128419 3.60016 0.447252C2.75436 0.60224 2.12113 1.31076 2.12113 1.99713V10.703C2.62152 10.8935 3.15733 10.6942 3.29461 10.6676C3.33003 10.6588 3.36103 10.6543 3.40089 10.6455C4.50795 10.4019 5.677 10.2868 8.57307 11.6773C12.2042 13.4176 15.3837 10.2115 16.6147 7.97968C16.7033 7.82469 17 7.08518 17 6.37666C16.5705 6.55379 16.0479 6.6645 16.0479 6.6645ZM1.06278 0H0.354259C0.159417 0 0 0.159417 0 0.354259V19.4842C0 19.6791 0.159417 19.8385 0.354259 19.8385H1.06278C1.25762 19.8385 1.41704 19.6791 1.41704 19.4842V0.354259C1.41704 0.159417 1.25762 0 1.06278 0Z" fill="#E74C3C"/>
</svg>
