<svg width="16" height="16" viewBox="0 0 16 16" fill="none" xmlns="http://www.w3.org/2000/svg">
<path d="M14.7276 0.000111862H1.17597C1.02364 -0.00200378 0.872379 0.0259092 0.730834 0.0822569C0.58929 0.138605 0.460231 0.222283 0.351029 0.328513C0.241827 0.434744 0.154621 0.561446 0.0943912 0.701382C0.0341611 0.841319 0.00208666 0.99175 0 1.14408V14.8557C0.00208666 15.0081 0.0341611 15.1585 0.0943912 15.2984C0.154621 15.4384 0.241827 15.5651 0.351029 15.6713C0.460231 15.7775 0.58929 15.8612 0.730834 15.9176C0.872379 15.9739 1.02364 16.0018 1.17597 15.9997H14.7276C14.88 16.0018 15.0312 15.9739 15.1728 15.9176C15.3143 15.8612 15.4434 15.7775 15.5526 15.6713C15.6618 15.5651 15.749 15.4384 15.8092 15.2984C15.8694 15.1585 15.9015 15.0081 15.9036 14.8557V1.14408C15.9015 0.99175 15.8694 0.841319 15.8092 0.701382C15.749 0.561446 15.6618 0.434744 15.5526 0.328513C15.4434 0.222283 15.3143 0.138605 15.1728 0.0822569C15.0312 0.0259092 14.88 -0.00200378 14.7276 0.000111862ZM4.82388 13.3918H2.42394V6.19196H4.82388V13.3918ZM3.62391 5.18398C3.29293 5.18398 2.9755 5.0525 2.74146 4.81846C2.50742 4.58442 2.37594 4.267 2.37594 3.93602C2.37594 3.60503 2.50742 3.28761 2.74146 3.05357C2.9755 2.81953 3.29293 2.68805 3.62391 2.68805C3.79966 2.66811 3.97764 2.68553 4.1462 2.73915C4.31475 2.79277 4.47008 2.88139 4.60201 2.99921C4.73394 3.11702 4.8395 3.26137 4.91178 3.42281C4.98405 3.58425 5.02141 3.75914 5.02141 3.93602C5.02141 4.11289 4.98405 4.28778 4.91178 4.44922C4.8395 4.61066 4.73394 4.75501 4.60201 4.87282C4.47008 4.99064 4.31475 5.07926 4.1462 5.13288C3.97764 5.1865 3.79966 5.20392 3.62391 5.18398ZM13.4797 13.3918H11.0797V9.52788C11.0797 8.5599 10.7357 7.92792 9.86376 7.92792C9.59389 7.92989 9.33112 8.01454 9.11084 8.17045C8.89057 8.32636 8.72337 8.54604 8.63179 8.7999C8.56919 8.98792 8.54206 9.18594 8.55179 9.38388V13.3838H6.15185C6.15185 13.3838 6.15185 6.83994 6.15185 6.18396H8.55179V7.19994C8.76981 6.82163 9.0869 6.50997 9.46892 6.29852C9.85094 6.08707 10.2834 5.98385 10.7197 5.99996C12.3197 5.99996 13.4797 7.03194 13.4797 9.24789V13.3918Z" fill="white"/>
</svg>
