<svg width="5" height="5" viewBox="0 0 5 5" fill="none" xmlns="http://www.w3.org/2000/svg">
<path d="M3.49712 2.00383C3.49712 2.15412 3.59731 2.25431 3.7476 2.25431C3.89788 2.25431 3.99807 2.15412 3.99807 2.00383C3.99807 1.45278 3.54721 1.00192 2.99616 1.00192C2.84587 1.00192 2.74568 1.10211 2.74568 1.2524C2.74568 1.40268 2.84587 1.50288 2.99616 1.50288C3.27168 1.50288 3.49712 1.72831 3.49712 2.00383ZM4.34874 2.75527C4.29865 2.75527 4.24855 2.73022 4.17341 2.73022C4.07322 2.70518 3.94798 2.68013 3.84779 2.63003C3.59731 2.52984 3.34683 2.65508 3.22159 2.88051L3.17149 3.00575C2.67053 2.73022 2.26977 2.32946 1.99424 1.8285L2.11948 1.7784C2.34491 1.67821 2.47015 1.40268 2.36996 1.1522C2.31986 1.05201 2.29482 0.926773 2.26977 0.826581C2.26977 0.751438 2.24472 0.701342 2.24472 0.651246C2.19462 0.300575 1.869 0.0250479 1.49328 0.0250479H0.741845C0.516414 0.0250479 0.316031 0.12524 0.190791 0.275527C0.0405036 0.450862 -0.0346401 0.651246 0.0154557 0.876677C0.140695 1.92869 0.616606 2.88051 1.36804 3.63195C2.11948 4.38339 3.09635 4.8593 4.12331 4.98454C4.34874 5.00958 4.54913 4.93444 4.72446 4.8092C4.87475 4.65891 4.97494 4.45853 4.97494 4.25815V3.50671C4.97494 3.13099 4.72446 2.80537 4.34874 2.75527ZM2.99616 0C2.94606 0 2.87092 0 2.82082 0C2.69558 0 2.57034 0.12524 2.59539 0.275527C2.59539 0.400767 2.72063 0.526006 2.87092 0.500958C2.92101 0.500958 2.94606 0.500958 2.99616 0.500958C3.82274 0.500958 4.49903 1.17725 4.49903 2.00383C4.49903 2.05393 4.49903 2.07898 4.49903 2.12907C4.49903 2.25431 4.59922 2.37955 4.72446 2.4046H4.74951C4.87475 2.4046 4.99999 2.30441 4.99999 2.17917C4.99999 2.12907 4.99999 2.05393 4.99999 2.00383C4.99999 0.901725 4.09827 0 2.99616 0Z" fill="url(#paint0_linear_3_4641)"/>
<defs>
<linearGradient id="paint0_linear_3_4641" x1="4.46229" y1="0.0301962" x2="4.46229" y2="4.96382" gradientUnits="userSpaceOnUse">
<stop offset="0.085" stop-color="#8254F3"/>
<stop offset="1" stop-color="#C73FA2"/>
</linearGradient>
</defs>
</svg>
