<svg width="124" height="28" viewBox="0 0 124 28" fill="none" xmlns="http://www.w3.org/2000/svg">
<path d="M7.93038 27.3326V4.31165H0V0H20.4033V4.31165H12.4348V27.3326H7.93038ZM20.3418 27.3326V8.08432H24.5763V11.5105C24.9358 10.4326 25.5899 9.56002 26.5396 8.89275C27.5151 8.22549 28.5544 7.89185 29.6581 7.89185C30.325 7.89185 30.8772 7.94314 31.3134 8.04579V12.396C30.6974 12.165 29.9919 12.0494 29.1961 12.0494C27.9127 12.0494 26.8218 12.5756 25.9236 13.6279C25.0254 14.6544 24.5763 16.0916 24.5763 17.9394V27.3326H20.3418ZM49.7651 24.8303C47.8399 26.7552 45.4533 27.7176 42.6047 27.7176C39.7561 27.7176 37.356 26.7552 35.4057 24.8303C33.481 22.8799 32.5184 20.5059 32.5184 17.7084C32.5184 14.911 33.481 12.5499 35.4057 10.6251C37.356 8.67459 39.7561 7.69933 42.6047 7.69933C45.4533 7.69933 47.8399 8.67459 49.7651 10.6251C51.7155 12.5499 52.691 14.911 52.691 17.7084C52.691 20.5059 51.7155 22.8799 49.7651 24.8303ZM42.6047 23.791C44.2729 23.791 45.6459 23.2135 46.7239 22.0586C47.827 20.878 48.3792 19.428 48.3792 17.7084C48.3792 15.9889 47.827 14.5518 46.7239 13.3969C45.6459 12.2163 44.2729 11.626 42.6047 11.626C40.9108 11.626 39.512 12.2163 38.4082 13.3969C37.3303 14.5518 36.7916 15.9889 36.7916 17.7084C36.7916 19.428 37.3303 20.878 38.4082 22.0586C39.512 23.2135 40.9108 23.791 42.6047 23.791ZM62.0817 27.3326L53.3813 8.08432H58.0779L63.9296 21.5966L69.8194 8.08432H74.5546L65.8156 27.3326H62.0817ZM85.3312 27.7176C82.4059 27.7176 79.993 26.7808 78.0941 24.9073C76.2204 23.0339 75.2836 20.6342 75.2836 17.7084C75.2836 14.8597 76.2333 12.4858 78.1327 10.5866C80.0316 8.66176 82.4311 7.69933 85.3312 7.69933C88.0006 7.69933 90.2075 8.54624 91.9529 10.2401C93.7236 11.934 94.6089 14.2694 94.6089 17.2465C94.6089 17.7598 94.596 18.2218 94.5708 18.6324H79.4414C79.5439 20.1979 80.147 21.4683 81.2507 22.4435C82.3544 23.3932 83.7275 23.868 85.3699 23.868C87.8338 23.868 89.6688 22.8927 90.875 20.9422L94.1088 23.252C92.2609 26.2291 89.335 27.7176 85.3312 27.7176ZM79.634 15.5527H90.3357C90.105 14.2181 89.5019 13.1787 88.5264 12.4344C87.5773 11.6645 86.4607 11.2795 85.1772 11.2795C83.8428 11.2795 82.6495 11.6516 81.5973 12.396C80.5709 13.1402 79.9163 14.1924 79.634 15.5527ZM110.646 27.3326L105.449 20.8267L100.252 27.3326H95.0937L102.755 17.747L95.5176 8.08432H100.56L105.411 14.5518L110.262 8.08432H115.343L108.106 17.747L115.767 27.3326H110.646ZM120.651 27.6406C119.753 27.6406 118.97 27.3198 118.303 26.6782C117.661 26.0109 117.34 25.2153 117.34 24.2914C117.34 23.3932 117.661 22.6104 118.303 21.9431C118.97 21.2758 119.753 20.9422 120.651 20.9422C121.575 20.9422 122.358 21.2758 122.999 21.9431C123.666 22.6104 124 23.3932 124 24.2914C124 25.2153 123.666 26.0109 122.999 26.6782C122.358 27.3198 121.575 27.6406 120.651 27.6406Z" fill="white"/>
</svg>
