<svg width="5" height="5" viewBox="0 0 5 5" fill="none" xmlns="http://www.w3.org/2000/svg">
<path d="M3.4971 2.00383C3.4971 2.15411 3.5973 2.2543 3.74758 2.2543C3.89787 2.2543 3.99806 2.15411 3.99806 2.00383C3.99806 1.45277 3.5472 1.00191 2.99615 1.00191C2.84586 1.00191 2.74567 1.1021 2.74567 1.25239C2.74567 1.40268 2.84586 1.50287 2.99615 1.50287C3.27167 1.50287 3.4971 1.7283 3.4971 2.00383ZM4.34873 2.75526C4.29863 2.75526 4.24854 2.73021 4.1734 2.73021C4.0732 2.70517 3.94796 2.68012 3.84777 2.63002C3.59729 2.52983 3.34682 2.65507 3.22158 2.8805L3.17148 3.00574C2.67053 2.73021 2.26976 2.32945 1.99423 1.82849L2.11947 1.7784C2.3449 1.6782 2.47014 1.40268 2.36995 1.1522C2.31986 1.05201 2.29481 0.92677 2.26976 0.826578C2.26976 0.751435 2.24471 0.701339 2.24471 0.651244C2.19462 0.300574 1.86899 0.0250478 1.49328 0.0250478H0.741843C0.516412 0.0250478 0.31603 0.125239 0.19079 0.275526C0.0405035 0.450861 -0.03464 0.651244 0.0154556 0.876674C0.140695 1.92868 0.616604 2.8805 1.36804 3.63194C2.11947 4.38337 3.09634 4.85928 4.1233 4.98452C4.34873 5.00957 4.54911 4.93442 4.72445 4.80918C4.87473 4.6589 4.97493 4.45851 4.97493 4.25813V3.5067C4.97493 3.13098 4.72445 2.80536 4.34873 2.75526ZM2.99615 0C2.94605 0 2.87091 0 2.82081 0C2.69557 0 2.57033 0.125239 2.59538 0.275526C2.59538 0.400765 2.72062 0.526004 2.87091 0.500957C2.921 0.500957 2.94605 0.500957 2.99615 0.500957C3.82273 0.500957 4.49902 1.17725 4.49902 2.00383C4.49902 2.05392 4.49902 2.07897 4.49902 2.12907C4.49902 2.2543 4.59921 2.37954 4.72445 2.40459H4.74949C4.87473 2.40459 4.99997 2.3044 4.99997 2.17916C4.99997 2.12907 4.99997 2.05392 4.99997 2.00383C4.99997 0.901722 4.09825 0 2.99615 0Z" fill="url(#paint0_linear_3_4630)"/>
<defs>
<linearGradient id="paint0_linear_3_4630" x1="4.46228" y1="0.0301961" x2="4.46228" y2="4.96381" gradientUnits="userSpaceOnUse">
<stop offset="0.085" stop-color="#8254F3"/>
<stop offset="1" stop-color="#C73FA2"/>
</linearGradient>
</defs>
</svg>
