<svg width="14" height="14" viewBox="0 0 14 14" fill="none" xmlns="http://www.w3.org/2000/svg">
<path d="M9.79196 5.61076C9.79196 6.03156 10.0725 6.3121 10.4933 6.3121C10.9141 6.3121 11.1947 6.03156 11.1947 5.61076C11.1947 4.0678 9.93223 2.80538 8.38927 2.80538C7.96847 2.80538 7.68793 3.08592 7.68793 3.50672C7.68793 3.92753 7.96847 4.20807 8.38927 4.20807C9.16075 4.20807 9.79196 4.83928 9.79196 5.61076ZM12.1765 7.71479C12.0363 7.71479 11.896 7.64465 11.6856 7.64465C11.4051 7.57452 11.0544 7.50439 10.7738 7.36412C10.0725 7.08358 9.37116 7.43425 9.02048 8.06546L8.88022 8.41613C7.47753 7.64465 6.35538 6.5225 5.5839 5.11981L5.93457 4.97955C6.56578 4.69901 6.91645 3.92753 6.63591 3.22618C6.49564 2.94565 6.42551 2.59497 6.35538 2.31444C6.35538 2.10403 6.28524 1.96376 6.28524 1.8235C6.14497 0.841613 5.23322 0.0701344 4.18121 0.0701344H2.07717C1.44596 0.0701344 0.884889 0.350672 0.534217 0.771479C0.113411 1.26242 -0.0969928 1.8235 0.0432761 2.45471C0.393948 5.40035 1.7265 8.06546 3.83054 10.1695C5.93457 12.2735 8.66981 13.6061 11.5453 13.9568C12.1765 14.0269 12.7376 13.8165 13.2285 13.4658C13.6494 13.045 13.9299 12.4839 13.9299 11.9229V9.81882C13.9299 8.76681 13.2285 7.85506 12.1765 7.71479ZM8.38927 0C8.249 0 8.0386 0 7.89833 0C7.54766 0 7.19699 0.350672 7.26712 0.771479C7.26712 1.12215 7.6178 1.47282 8.0386 1.40269C8.17887 1.40269 8.249 1.40269 8.38927 1.40269C10.7037 1.40269 12.5973 3.29632 12.5973 5.61076C12.5973 5.75102 12.5973 5.82116 12.5973 5.96143C12.5973 6.3121 12.8779 6.66277 13.2285 6.73291H13.2987C13.6494 6.73291 14 6.45237 14 6.1017C14 5.96143 14 5.75102 14 5.61076C14 2.52484 11.4752 0 8.38927 0Z" fill="url(#paint0_linear_3_4202)"/>
<defs>
<linearGradient id="paint0_linear_3_4202" x1="12.4945" y1="0.0845496" x2="12.4945" y2="13.8988" gradientUnits="userSpaceOnUse">
<stop offset="0.085" stop-color="#8254F3"/>
<stop offset="1" stop-color="#C73FA2"/>
</linearGradient>
</defs>
</svg>
