<svg width="17" height="16" viewBox="0 0 17 16" fill="none" xmlns="http://www.w3.org/2000/svg">
<path d="M8.49908 0C3.81211 0 0 3.1197 0 6.95039C0 9.12449 1.25828 11.1888 3.3747 12.4973C3.31142 12.6816 3.04338 13.2475 1.88933 14.7998C1.74974 14.9878 1.76087 15.241 1.91537 15.4178C2.06987 15.5946 2.31928 15.6356 2.52219 15.5239C4.74657 14.2898 5.78334 13.8281 6.00671 13.804C6.78848 13.9864 7.68753 13.9007 8.49908 13.9007C13.1861 13.9007 17 10.7829 17 6.95034C17 3.11965 13.1861 0 8.49908 0ZM7.82526 11.1497L6.34362 11.7751C6.2003 11.8365 6.03834 11.7676 5.9788 11.628C5.91739 11.4847 5.98439 11.3209 6.12585 11.2614L6.96722 10.9077C4.93084 10.0273 3.80475 7.78058 4.39293 5.58043C4.43389 5.43152 4.58652 5.34402 4.73543 5.38311C4.88434 5.42407 4.97371 5.57671 4.93275 5.72561C4.41716 7.64844 5.39999 9.63081 7.20549 10.4033L6.83322 9.521C6.77367 9.37954 6.84067 9.21572 6.98213 9.15431C7.12544 9.09477 7.2874 9.16177 7.34881 9.30322L7.97422 10.7849C8.03376 10.9263 7.96676 11.0901 7.82526 11.1497ZM5.83921 4.29606L6.78853 4.41334C6.94117 4.43379 7.05099 4.57343 7.03049 4.72607C7.0119 4.8787 6.87412 4.98666 6.71962 4.96802L5.12443 4.76884C4.96993 4.75025 4.86198 4.60874 4.88248 4.45797L5.08166 2.86278C5.10025 2.70828 5.24176 2.60033 5.39253 2.61897C5.54517 2.63942 5.65499 2.77906 5.63448 2.9317L5.5228 3.82888C7.2874 2.52033 9.80587 2.65619 11.4215 4.27002C11.5295 4.37984 11.5295 4.55665 11.4215 4.66647C11.3657 4.72043 11.2949 4.74838 11.2242 4.74838C11.1516 4.74838 11.0809 4.72048 11.025 4.66647C9.61782 3.25929 7.41022 3.11592 5.83921 4.29606ZM13.4857 6.61721C13.3926 6.74007 13.2177 6.76425 13.0949 6.67121L12.3745 6.12585C12.6202 8.27204 11.28 10.4126 9.04077 11.012C9.01659 11.0175 8.99236 11.0213 8.97004 11.0213C8.84531 11.0213 8.73363 10.9394 8.70013 10.8147C8.65917 10.6658 8.74854 10.5131 8.89745 10.4722C10.8203 9.95659 12.0469 8.11567 11.8105 6.16494L11.2335 6.92812C11.1796 7.00072 11.0958 7.03981 11.0101 7.03981C10.9525 7.03981 10.8929 7.02122 10.8426 6.98213C10.7198 6.88903 10.6956 6.71408 10.7886 6.59126L11.7584 5.31062C11.8515 5.18589 12.0265 5.16357 12.1493 5.2548L13.4318 6.22458C13.5546 6.31753 13.5788 6.49434 13.4857 6.61721Z" fill="url(#paint0_linear_3_4046)"/>
<path d="M8.49947 0.518976C13.0021 0.519148 16.481 3.49947 16.481 6.9505C16.4809 10.4033 13.0021 13.3809 8.49947 13.381C8.28891 13.381 8.073 13.3868 7.86417 13.392C7.65311 13.3972 7.4473 13.4026 7.24379 13.4019C6.83421 13.4006 6.45878 13.3765 6.12431 13.2985L6.03881 13.2786L5.95132 13.2876C5.81349 13.3025 5.64211 13.3647 5.48603 13.4278C5.30822 13.4996 5.07708 13.604 4.78909 13.7429C4.23047 14.0125 3.43997 14.4226 2.37715 15.0105C3.47128 13.5305 3.77515 12.929 3.86548 12.6662L4.00069 12.2735L3.64774 12.0557C1.65771 10.8253 0.519017 8.91536 0.518976 6.9505C0.518976 3.49923 3.99683 0.518976 8.49947 0.518976ZM5.37567 2.09778C4.97491 2.08901 4.61729 2.38452 4.56639 2.79869L4.36755 4.38843C4.34349 4.56613 4.38303 4.73713 4.46498 4.88255C4.22143 4.94545 4.01341 5.11912 3.91817 5.36573L3.89232 5.44229L3.89132 5.44626C3.33441 7.52946 4.15744 9.65008 5.80915 10.8428C5.48333 11.0473 5.34464 11.4643 5.50094 11.8311V11.8321C5.66986 12.2278 6.13163 12.4278 6.54486 12.2526L6.54586 12.2536L8.02722 11.6282C8.18974 11.5597 8.31487 11.4413 8.39906 11.3002C8.54727 11.4514 8.75224 11.5407 8.96973 11.5407C9.04573 11.5407 9.11223 11.5284 9.15764 11.5179L9.16658 11.5159L9.17454 11.5139C11.2906 10.9475 12.6842 9.14703 12.8939 7.1553C13.2333 7.33334 13.6611 7.24593 13.9 6.93061C14.1491 6.60158 14.1045 6.13887 13.8075 5.86284L13.7449 5.81014L12.4624 4.84079L12.4584 4.83781L12.3918 4.79307C12.2674 4.71879 12.1276 4.68304 11.9881 4.68172C12.0621 4.4144 11.9991 4.11763 11.7913 3.90624H11.7923L11.7883 3.90226L11.6163 3.73921C10.0932 2.35199 7.93626 2.06649 6.15414 2.86232C6.14005 2.50331 5.88481 2.20053 5.54071 2.11865L5.46118 2.10474L5.45621 2.10374L5.37567 2.09778ZM7.32531 4.13988C8.3827 3.85575 9.54104 4.08569 10.4203 4.81693L10.6579 5.03367L10.6639 5.03963C10.796 5.16737 10.9655 5.24144 11.1451 5.25935L10.3745 6.27742C10.1083 6.62891 10.1777 7.12975 10.5286 7.3959V7.39491C10.6728 7.50547 10.8434 7.55889 11.0098 7.55895C11.0737 7.55895 11.1376 7.55028 11.1997 7.53509C10.9161 8.59107 10.1406 9.47806 9.06915 9.87347L8.76294 9.9709L8.75995 9.97189C8.57791 10.022 8.42762 10.1337 8.3235 10.2781L7.82739 9.10097L7.8254 9.096L7.78961 9.02441C7.60813 8.69892 7.22233 8.53808 6.86003 8.64761L6.78248 8.67445L6.77552 8.67843C6.5498 8.77642 6.39222 8.96847 6.32713 9.19045C5.48133 8.34416 5.10475 7.08898 5.43433 5.85985L5.43334 5.85886C5.48393 5.67112 5.46065 5.48546 5.38661 5.32398L6.65522 5.48305H6.65721C7.09376 5.53571 7.4924 5.22835 7.54603 4.78909L7.54503 4.7881C7.57658 4.53697 7.4858 4.30587 7.32531 4.13988Z" stroke="url(#paint1_linear_3_4046)" stroke-opacity="0.4" stroke-width="1.02"/>
<defs>
<linearGradient id="paint0_linear_3_4046" x1="15.1718" y1="0.0943288" x2="15.1718" y2="15.5063" gradientUnits="userSpaceOnUse">
<stop offset="0.085" stop-color="#8254F3"/>
<stop offset="1" stop-color="#C73FA2"/>
</linearGradient>
<linearGradient id="paint1_linear_3_4046" x1="15.1718" y1="0.0943288" x2="15.1718" y2="15.5063" gradientUnits="userSpaceOnUse">
<stop offset="0.085" stop-color="#8254F3"/>
<stop offset="1" stop-color="#C73FA2"/>
</linearGradient>
</defs>
</svg>
