<svg width="10" height="11" viewBox="0 0 10 11" fill="none" xmlns="http://www.w3.org/2000/svg">
<path d="M8.89823 3.69532C8.01921 3.84019 6.58528 3.87947 5.6326 2.07233C4.61117 0.130134 2.96117 0.0712054 1.99621 0.247991C1.52723 0.333929 1.17612 0.726787 1.17612 1.10737V5.93461C1.45357 6.04019 1.75067 5.9297 1.82679 5.91497C1.84643 5.91005 1.86362 5.9076 1.88572 5.90269C2.49956 5.76764 3.14777 5.70381 4.75358 6.47479C6.76698 7.43975 8.52993 5.66206 9.21252 4.42456C9.26162 4.33862 9.42613 3.92858 9.42613 3.53572C9.18796 3.63393 8.89823 3.69532 8.89823 3.69532ZM0.589287 0H0.196429C0.088393 0 0 0.088393 0 0.196429V10.8036C0 10.9116 0.088393 11 0.196429 11H0.589287C0.697323 11 0.785716 10.9116 0.785716 10.8036V0.196429C0.785716 0.088393 0.697323 0 0.589287 0Z" fill="#E74C3C"/>
</svg>
