<svg width="16" height="16" viewBox="0 0 16 16" fill="none" xmlns="http://www.w3.org/2000/svg">
<path d="M15.12 0H0.88C0.646609 0 0.422778 0.0927141 0.257746 0.257746C0.0927141 0.422778 0 0.646609 0 0.88V15.12C0 15.2356 0.0227619 15.35 0.0669861 15.4568C0.11121 15.5635 0.176031 15.6605 0.257746 15.7423C0.339462 15.824 0.436472 15.8888 0.543239 15.933C0.650005 15.9772 0.764437 16 0.88 16H8.544V9.8H6.464V7.4H8.544V5.6C8.50091 5.17741 8.5508 4.7505 8.69017 4.34923C8.82954 3.94796 9.05501 3.58204 9.35077 3.27713C9.64653 2.97222 10.0054 2.73571 10.4023 2.58419C10.7991 2.43267 11.2243 2.3698 11.648 2.4C12.2707 2.39617 12.893 2.42822 13.512 2.496V4.656H12.24C11.232 4.656 11.04 5.136 11.04 5.832V7.376H13.44L13.128 9.776H11.04V16H15.12C15.2356 16 15.35 15.9772 15.4568 15.933C15.5635 15.8888 15.6605 15.824 15.7423 15.7423C15.824 15.6605 15.8888 15.5635 15.933 15.4568C15.9772 15.35 16 15.2356 16 15.12V0.88C16 0.764437 15.9772 0.650005 15.933 0.543239C15.8888 0.436472 15.824 0.339462 15.7423 0.257746C15.6605 0.176031 15.5635 0.11121 15.4568 0.0669861C15.35 0.0227619 15.2356 0 15.12 0Z" fill="white"/>
</svg>
