<svg width="12" height="12" viewBox="0 0 12 12" fill="none" xmlns="http://www.w3.org/2000/svg">
<g clip-path="url(#clip0_3_4283)">
<path d="M3.9375 3.5625C4.35171 3.5625 4.6875 3.22671 4.6875 2.8125C4.6875 2.39829 4.35171 2.0625 3.9375 2.0625C3.52329 2.0625 3.1875 2.39829 3.1875 2.8125C3.1875 3.22671 3.52329 3.5625 3.9375 3.5625Z" fill="#B745B6"/>
<path d="M3.9375 1.6875C3.88777 1.6875 3.84008 1.66775 3.80492 1.63258C3.76975 1.59742 3.75 1.54973 3.75 1.5V1.3125C3.75 1.26277 3.76975 1.21508 3.80492 1.17992C3.84008 1.14475 3.88777 1.125 3.9375 1.125C3.98723 1.125 4.03492 1.14475 4.07008 1.17992C4.10525 1.21508 4.125 1.26277 4.125 1.3125V1.5C4.125 1.54973 4.10525 1.59742 4.07008 1.63258C4.03492 1.66775 3.98723 1.6875 3.9375 1.6875ZM4.86563 2.07188C4.82855 2.07187 4.7923 2.06087 4.76148 2.04026C4.73065 2.01966 4.70662 1.99038 4.69244 1.95612C4.67825 1.92187 4.67453 1.88417 4.68177 1.84781C4.689 1.81144 4.70685 1.77803 4.73306 1.75181L4.86563 1.61925C4.90099 1.5851 4.94835 1.5662 4.99751 1.56662C5.04667 1.56705 5.0937 1.58677 5.12847 1.62153C5.16323 1.6563 5.18295 1.70333 5.18338 1.75249C5.1838 1.80165 5.1649 1.84901 5.13075 1.88438L4.99819 2.01694C4.9808 2.03437 4.96014 2.0482 4.93739 2.05763C4.91464 2.06706 4.89025 2.0719 4.86563 2.07188ZM5.4375 3H5.25C5.20027 3 5.15258 2.98025 5.11742 2.94508C5.08225 2.90992 5.0625 2.86223 5.0625 2.8125C5.0625 2.76277 5.08225 2.71508 5.11742 2.67992C5.15258 2.64475 5.20027 2.625 5.25 2.625H5.4375C5.48723 2.625 5.53492 2.64475 5.57008 2.67992C5.60525 2.71508 5.625 2.76277 5.625 2.8125C5.625 2.86223 5.60525 2.90992 5.57008 2.94508C5.53492 2.98025 5.48723 3 5.4375 3ZM4.99819 4.06069C4.97356 4.06071 4.94917 4.05587 4.92642 4.04644C4.90368 4.03702 4.88301 4.02319 4.86563 4.00575L4.73306 3.87319C4.69891 3.83782 4.68001 3.79046 4.68044 3.7413C4.68086 3.69214 4.70058 3.64511 4.73535 3.61035C4.77011 3.57558 4.81714 3.55586 4.8663 3.55544C4.91546 3.55501 4.96282 3.57391 4.99819 3.60806L5.13075 3.74063C5.15696 3.76685 5.17482 3.80025 5.18205 3.83662C5.18928 3.87299 5.18556 3.91068 5.17138 3.94494C5.15719 3.97919 5.13316 4.00847 5.10234 4.02908C5.07151 4.04968 5.03527 4.06068 4.99819 4.06069ZM3.9375 4.5C3.88777 4.5 3.84008 4.48025 3.80492 4.44508C3.76975 4.40992 3.75 4.36223 3.75 4.3125V4.125C3.75 4.07527 3.76975 4.02758 3.80492 3.99242C3.84008 3.95725 3.88777 3.9375 3.9375 3.9375C3.98723 3.9375 4.03492 3.95725 4.07008 3.99242C4.10525 4.02758 4.125 4.07527 4.125 4.125V4.3125C4.125 4.36223 4.10525 4.40992 4.07008 4.44508C4.03492 4.48025 3.98723 4.5 3.9375 4.5ZM2.87681 4.06069C2.83973 4.06068 2.80349 4.04968 2.77266 4.02908C2.74184 4.00847 2.71781 3.97919 2.70362 3.94494C2.68943 3.91068 2.68572 3.87299 2.69295 3.83662C2.70018 3.80025 2.71804 3.76685 2.74425 3.74063L2.87681 3.60806C2.91218 3.57391 2.95954 3.55501 3.0087 3.55544C3.05786 3.55586 3.10489 3.57558 3.13965 3.61035C3.17442 3.64511 3.19414 3.69214 3.19456 3.7413C3.19499 3.79046 3.17609 3.83782 3.14194 3.87319L3.00937 4.00575C2.99199 4.02319 2.97132 4.03702 2.94857 4.04644C2.92583 4.05587 2.90144 4.06071 2.87681 4.06069ZM2.625 3H2.4375C2.38777 3 2.34008 2.98025 2.30492 2.94508C2.26975 2.90992 2.25 2.86223 2.25 2.8125C2.25 2.76277 2.26975 2.71508 2.30492 2.67992C2.34008 2.64475 2.38777 2.625 2.4375 2.625H2.625C2.67473 2.625 2.72242 2.64475 2.75758 2.67992C2.79275 2.71508 2.8125 2.76277 2.8125 2.8125C2.8125 2.86223 2.79275 2.90992 2.75758 2.94508C2.72242 2.98025 2.67473 3 2.625 3ZM3.00937 2.07188C2.98475 2.0719 2.96036 2.06706 2.93761 2.05763C2.91486 2.0482 2.8942 2.03437 2.87681 2.01694L2.74425 1.88438C2.7101 1.84901 2.6912 1.80165 2.69162 1.75249C2.69205 1.70333 2.71177 1.6563 2.74653 1.62153C2.7813 1.58677 2.82833 1.56705 2.87749 1.56662C2.92665 1.5662 2.97401 1.5851 3.00937 1.61925L3.14194 1.75181C3.16815 1.77803 3.186 1.81144 3.19323 1.84781C3.20047 1.88417 3.19675 1.92187 3.18256 1.95612C3.16838 1.99038 3.14435 2.01966 3.11352 2.04026C3.0827 2.06087 3.04645 2.07187 3.00937 2.07188Z" fill="#B745B6"/>
<path d="M3.9375 5.25C3.45541 5.25 2.98414 5.10704 2.5833 4.83921C2.18245 4.57137 1.87003 4.19069 1.68554 3.74529C1.50106 3.2999 1.45279 2.8098 1.54684 2.33697C1.64089 1.86414 1.87304 1.42982 2.21393 1.08893C2.55482 0.748038 2.98914 0.515888 3.46197 0.421837C3.9348 0.327785 4.4249 0.376056 4.87029 0.560545C5.31569 0.745033 5.69637 1.05745 5.96421 1.4583C6.23204 1.85914 6.375 2.33041 6.375 2.8125C6.37431 3.45875 6.11728 4.07834 5.66031 4.53531C5.20334 4.99228 4.58375 5.24931 3.9375 5.25ZM3.9375 0.750001C3.52958 0.750001 3.13081 0.870965 2.79164 1.09759C2.45246 1.32423 2.18811 1.64634 2.032 2.02322C1.87589 2.40009 1.83505 2.81479 1.91463 3.21487C1.99421 3.61496 2.19065 3.98246 2.47909 4.27091C2.76754 4.55935 3.13504 4.75579 3.53513 4.83537C3.93521 4.91495 4.34991 4.87411 4.72679 4.718C5.10366 4.5619 5.42578 4.29754 5.65241 3.95836C5.87904 3.61919 6 3.22043 6 2.8125C5.99941 2.26567 5.78192 1.74142 5.39525 1.35475C5.00859 0.968086 4.48433 0.750597 3.9375 0.750001Z" fill="#B745B6"/>
<path d="M8.06248 11.625C7.53542 11.6253 7.02247 11.4547 6.60063 11.1387C6.17878 10.8227 5.87079 10.3785 5.72288 9.8726C5.57498 9.36672 5.59513 8.82652 5.78033 8.33306C5.96552 7.83961 6.30576 7.41953 6.74998 7.13587V1.6875C6.74998 1.3394 6.88826 1.00556 7.1344 0.759422C7.38054 0.513281 7.71438 0.375 8.06248 0.375C8.41058 0.375 8.74442 0.513281 8.99056 0.759422C9.2367 1.00556 9.37498 1.3394 9.37498 1.6875V7.13587C9.8192 7.41953 10.1594 7.83961 10.3446 8.33306C10.5298 8.82652 10.55 9.36672 10.4021 9.8726C10.2542 10.3785 9.94618 10.8227 9.52433 11.1387C9.10249 11.4547 8.58954 11.6253 8.06248 11.625ZM8.06248 0.75C7.81393 0.750298 7.57565 0.849165 7.3999 1.02492C7.22415 1.20067 7.12528 1.43895 7.12498 1.6875V7.24106C7.12499 7.27393 7.11634 7.30622 7.09992 7.33469C7.0835 7.36315 7.05987 7.3868 7.03142 7.40325C6.63818 7.63023 6.33083 7.98063 6.15704 8.4001C5.98325 8.81957 5.95274 9.28467 6.07023 9.72325C6.18772 10.1618 6.44666 10.5494 6.80687 10.8258C7.16708 11.1022 7.60844 11.252 8.06248 11.252C8.51653 11.252 8.95788 11.1022 9.31809 10.8258C9.67831 10.5494 9.93724 10.1618 10.0547 9.72325C10.1722 9.28467 10.1417 8.81957 9.96792 8.4001C9.79413 7.98063 9.48678 7.63023 9.09354 7.40325C9.06509 7.3868 9.04147 7.36315 9.02504 7.33469C9.00862 7.30622 8.99998 7.27393 8.99998 7.24106V1.6875C8.99968 1.43895 8.90082 1.20067 8.72506 1.02492C8.54931 0.849165 8.31103 0.750298 8.06248 0.75Z" fill="#B745B6"/>
<path d="M8.625 7.59787V1.6875C8.625 1.53832 8.56574 1.39524 8.46025 1.28975C8.35476 1.18426 8.21169 1.125 8.0625 1.125C7.91332 1.125 7.77025 1.18426 7.66476 1.28975C7.55927 1.39524 7.5 1.53832 7.5 1.6875V7.59787C7.1247 7.73057 6.80838 7.99166 6.60696 8.33502C6.40554 8.67838 6.33199 9.08188 6.39931 9.47422C6.46662 9.86657 6.67047 10.2225 6.97482 10.4791C7.27917 10.7356 7.66443 10.8764 8.0625 10.8764C8.46058 10.8764 8.84584 10.7356 9.15019 10.4791C9.45454 10.2225 9.65839 9.86657 9.7257 9.47422C9.79302 9.08188 9.71946 8.67838 9.51805 8.33502C9.31663 7.99166 9.00031 7.73057 8.625 7.59787ZM7.875 1.6875C7.875 1.63777 7.89476 1.59008 7.92992 1.55492C7.96508 1.51975 8.01278 1.5 8.0625 1.5C8.11223 1.5 8.15992 1.51975 8.19509 1.55492C8.23025 1.59008 8.25 1.63777 8.25 1.6875V2.8125H7.875V1.6875ZM8.0625 10.5C8.01278 10.5 7.96508 10.4802 7.92992 10.4451C7.89476 10.4099 7.875 10.3622 7.875 10.3125C7.875 10.2628 7.89476 10.2151 7.92992 10.1799C7.96508 10.1448 8.01278 10.125 8.0625 10.125C8.31105 10.1247 8.54934 10.0258 8.72509 9.85008C8.90084 9.67433 8.99971 9.43605 9 9.1875C9 9.13777 9.01976 9.09008 9.05492 9.05492C9.09008 9.01975 9.13778 9 9.1875 9C9.23723 9 9.28492 9.01975 9.32009 9.05492C9.35525 9.09008 9.375 9.13777 9.375 9.1875C9.37461 9.53547 9.2362 9.86908 8.99014 10.1151C8.74409 10.3612 8.41048 10.4996 8.0625 10.5Z" fill="#B745B6"/>
</g>
<defs>
<clipPath id="clip0_3_4283">
<rect width="12" height="12" fill="white"/>
</clipPath>
</defs>
</svg>
