<svg width="6" height="6" viewBox="0 0 6 6" fill="none" xmlns="http://www.w3.org/2000/svg">
<g clip-path="url(#clip0_3_4601)">
<path d="M1.96871 1.78136C2.17582 1.78136 2.34371 1.61347 2.34371 1.40636C2.34371 1.19926 2.17582 1.03137 1.96871 1.03137C1.76161 1.03137 1.59371 1.19926 1.59371 1.40636C1.59371 1.61347 1.76161 1.78136 1.96871 1.78136Z" fill="#B745B6"/>
<path d="M1.9687 0.843789C1.94384 0.843789 1.91999 0.833912 1.90241 0.816331C1.88483 0.798749 1.87495 0.774903 1.87495 0.750039V0.65629C1.87495 0.631426 1.88483 0.60758 1.90241 0.589998C1.91999 0.572417 1.94384 0.56254 1.9687 0.56254C1.99356 0.56254 2.01741 0.572417 2.03499 0.589998C2.05257 0.60758 2.06245 0.631426 2.06245 0.65629V0.750039C2.06245 0.774903 2.05257 0.798749 2.03499 0.816331C2.01741 0.833912 1.99356 0.843789 1.9687 0.843789ZM2.43276 1.03598C2.41422 1.03597 2.3961 1.03047 2.38069 1.02017C2.36528 1.00987 2.35326 0.995228 2.34617 0.9781C2.33907 0.960972 2.33722 0.942125 2.34083 0.923942C2.34445 0.905759 2.35337 0.889057 2.36648 0.875946L2.43276 0.809664C2.45044 0.792587 2.47413 0.783138 2.49871 0.783351C2.52329 0.783565 2.5468 0.793424 2.56418 0.810806C2.58156 0.828188 2.59142 0.851702 2.59164 0.876283C2.59185 0.900864 2.5824 0.924545 2.56532 0.942227L2.49904 1.00851C2.49035 1.01723 2.48002 1.02414 2.46864 1.02886C2.45727 1.03357 2.44508 1.03599 2.43276 1.03598ZM2.7187 1.50004H2.62495C2.60009 1.50004 2.57624 1.49016 2.55866 1.47258C2.54108 1.455 2.5312 1.43115 2.5312 1.40629C2.5312 1.38142 2.54108 1.35758 2.55866 1.34C2.57624 1.32242 2.60009 1.31254 2.62495 1.31254H2.7187C2.74356 1.31254 2.76741 1.32242 2.78499 1.34C2.80257 1.35758 2.81245 1.38142 2.81245 1.40629C2.81245 1.43115 2.80257 1.455 2.78499 1.47258C2.76741 1.49016 2.74356 1.50004 2.7187 1.50004ZM2.49904 2.03038C2.48673 2.03039 2.47454 2.02797 2.46316 2.02326C2.45179 2.01855 2.44146 2.01163 2.43276 2.00291L2.36648 1.93663C2.3494 1.91895 2.33995 1.89527 2.34017 1.87069C2.34038 1.84611 2.35024 1.82259 2.36762 1.80521C2.38501 1.78783 2.40852 1.77797 2.4331 1.77776C2.45768 1.77754 2.48136 1.78699 2.49904 1.80407L2.56532 1.87035C2.57843 1.88346 2.58736 1.90016 2.59097 1.91835C2.59459 1.93653 2.59273 1.95538 2.58564 1.9725C2.57854 1.98963 2.56653 2.00427 2.55112 2.01457C2.5357 2.02488 2.51758 2.03038 2.49904 2.03038ZM1.9687 2.25004C1.94384 2.25004 1.91999 2.24016 1.90241 2.22258C1.88483 2.205 1.87495 2.18115 1.87495 2.15629V2.06254C1.87495 2.03767 1.88483 2.01383 1.90241 1.99625C1.91999 1.97866 1.94384 1.96879 1.9687 1.96879C1.99356 1.96879 2.01741 1.97866 2.03499 1.99625C2.05257 2.01383 2.06245 2.03767 2.06245 2.06254V2.15629C2.06245 2.18115 2.05257 2.205 2.03499 2.22258C2.01741 2.24016 1.99356 2.25004 1.9687 2.25004ZM1.43836 2.03038C1.41982 2.03038 1.4017 2.02488 1.38628 2.01457C1.37087 2.00427 1.35886 1.98963 1.35176 1.9725C1.34467 1.95538 1.34281 1.93653 1.34643 1.91835C1.35004 1.90016 1.35897 1.88346 1.37208 1.87035L1.43836 1.80407C1.45604 1.78699 1.47972 1.77754 1.5043 1.77776C1.52888 1.77797 1.5524 1.78783 1.56978 1.80521C1.58716 1.82259 1.59702 1.84611 1.59723 1.87069C1.59745 1.89527 1.588 1.91895 1.57092 1.93663L1.50464 2.00291C1.49594 2.01163 1.48561 2.01855 1.47424 2.02326C1.46286 2.02797 1.45067 2.03039 1.43836 2.03038ZM1.31245 1.50004H1.2187C1.19384 1.50004 1.16999 1.49016 1.15241 1.47258C1.13483 1.455 1.12495 1.43115 1.12495 1.40629C1.12495 1.38142 1.13483 1.35758 1.15241 1.34C1.16999 1.32242 1.19384 1.31254 1.2187 1.31254H1.31245C1.33732 1.31254 1.36116 1.32242 1.37874 1.34C1.39632 1.35758 1.4062 1.38142 1.4062 1.40629C1.4062 1.43115 1.39632 1.455 1.37874 1.47258C1.36116 1.49016 1.33732 1.50004 1.31245 1.50004ZM1.50464 1.03598C1.49233 1.03599 1.48013 1.03357 1.46876 1.02886C1.45738 1.02414 1.44705 1.01723 1.43836 1.00851L1.37208 0.942227C1.355 0.924545 1.34555 0.900864 1.34576 0.876283C1.34598 0.851702 1.35584 0.828188 1.37322 0.810806C1.3906 0.793424 1.41411 0.783565 1.4387 0.783351C1.46328 0.783138 1.48696 0.792587 1.50464 0.809664L1.57092 0.875946C1.58403 0.889057 1.59295 0.905759 1.59657 0.923942C1.60018 0.942125 1.59833 0.960972 1.59123 0.9781C1.58414 0.995228 1.57213 1.00987 1.55671 1.02017C1.5413 1.03047 1.52318 1.03597 1.50464 1.03598Z" fill="#B745B6"/>
<path d="M1.96872 2.62505C1.72767 2.62505 1.49204 2.55357 1.29162 2.41966C1.09119 2.28574 0.934985 2.0954 0.84274 1.8727C0.750496 1.65 0.726361 1.40495 0.773387 1.16854C0.820412 0.932124 0.936487 0.714964 1.10693 0.544519C1.27738 0.374074 1.49454 0.258 1.73095 0.210974C1.96736 0.163948 2.21241 0.188084 2.43511 0.280328C2.65781 0.372572 2.84815 0.528782 2.98207 0.729204C3.11599 0.929626 3.18746 1.16526 3.18746 1.4063C3.18712 1.72943 3.0586 2.03922 2.83012 2.26771C2.60163 2.49619 2.29184 2.6247 1.96872 2.62505ZM1.96872 0.375056C1.76476 0.375056 1.56537 0.435537 1.39579 0.548852C1.2262 0.662167 1.09402 0.823226 1.01597 1.01166C0.937915 1.2001 0.917493 1.40745 0.957284 1.60749C0.997075 1.80753 1.09529 1.99128 1.23951 2.13551C1.38374 2.27973 1.56749 2.37795 1.76753 2.41774C1.96757 2.45753 2.17492 2.43711 2.36336 2.35905C2.55179 2.281 2.71285 2.14882 2.82617 1.97923C2.93948 1.80965 2.99996 1.61027 2.99996 1.4063C2.99967 1.13289 2.89092 0.870762 2.69759 0.67743C2.50426 0.484098 2.24213 0.375354 1.96872 0.375056Z" fill="#B745B6"/>
<path d="M4.03125 5.81255C3.76772 5.81271 3.51124 5.72739 3.30032 5.56941C3.0894 5.41142 2.9354 5.18929 2.86145 4.93635C2.7875 4.68341 2.79758 4.41331 2.89017 4.16658C2.98277 3.91985 3.15289 3.70982 3.375 3.56799V0.843805C3.375 0.669757 3.44414 0.502837 3.56721 0.379766C3.69028 0.256696 3.8572 0.187556 4.03125 0.187556C4.20529 0.187556 4.37221 0.256696 4.49528 0.379766C4.61836 0.502837 4.6875 0.669757 4.6875 0.843805V3.56799C4.9096 3.70982 5.07972 3.91985 5.17232 4.16658C5.26492 4.41331 5.275 4.68341 5.20104 4.93635C5.12709 5.18929 4.9731 5.41142 4.76217 5.56941C4.55125 5.72739 4.29478 5.81271 4.03125 5.81255ZM4.03125 0.375055C3.90697 0.375204 3.78783 0.424638 3.69996 0.512513C3.61208 0.600388 3.56265 0.71953 3.5625 0.843805V3.62058C3.5625 3.63701 3.55818 3.65316 3.54997 3.66739C3.54175 3.68163 3.52994 3.69345 3.51572 3.70167C3.3191 3.81517 3.16542 3.99037 3.07853 4.2001C2.99163 4.40983 2.97638 4.64238 3.03512 4.86167C3.09387 5.08096 3.22334 5.27474 3.40344 5.41294C3.58355 5.55115 3.80422 5.62606 4.03125 5.62606C4.25827 5.62606 4.47895 5.55115 4.65905 5.41294C4.83916 5.27474 4.96862 5.08096 5.02737 4.86167C5.08612 4.64238 5.07086 4.40983 4.98396 4.2001C4.89707 3.99037 4.7434 3.81517 4.54678 3.70167C4.53255 3.69345 4.52074 3.68163 4.51253 3.66739C4.50432 3.65316 4.49999 3.63701 4.5 3.62058V0.843805C4.49985 0.71953 4.45041 0.600388 4.36254 0.512513C4.27466 0.424638 4.15552 0.375204 4.03125 0.375055Z" fill="#B745B6"/>
<path d="M4.31249 3.79897V0.843789C4.31249 0.769197 4.28286 0.69766 4.23012 0.644916C4.17737 0.592171 4.10583 0.56254 4.03124 0.56254C3.95665 0.56254 3.88511 0.592171 3.83237 0.644916C3.77962 0.69766 3.74999 0.769197 3.74999 0.843789V3.79897C3.56234 3.86532 3.40418 3.99587 3.30347 4.16754C3.20276 4.33922 3.16599 4.54097 3.19964 4.73715C3.2333 4.93332 3.33523 5.11127 3.4874 5.23956C3.63958 5.36785 3.83221 5.43821 4.03124 5.43821C4.23028 5.43821 4.42291 5.36785 4.57508 5.23956C4.72726 5.11127 4.82918 4.93332 4.86284 4.73715C4.8965 4.54097 4.85972 4.33922 4.75901 4.16754C4.6583 3.99587 4.50015 3.86532 4.31249 3.79897ZM3.93749 0.843789C3.93749 0.818925 3.94737 0.79508 3.96495 0.777498C3.98253 0.759917 4.00638 0.750039 4.03124 0.750039C4.05611 0.750039 4.07995 0.759917 4.09753 0.777498C4.11512 0.79508 4.12499 0.818925 4.12499 0.843789V1.40629H3.93749V0.843789ZM4.03124 5.25003C4.00638 5.25003 3.98253 5.24015 3.96495 5.22257C3.94737 5.20499 3.93749 5.18115 3.93749 5.15628C3.93749 5.13142 3.94737 5.10757 3.96495 5.08999C3.98253 5.07241 4.00638 5.06253 4.03124 5.06253C4.15552 5.06238 4.27466 5.01295 4.36253 4.92507C4.45041 4.8372 4.49984 4.71806 4.49999 4.59378C4.49999 4.56892 4.50987 4.54507 4.52745 4.52749C4.54503 4.50991 4.56888 4.50003 4.59374 4.50003C4.61861 4.50003 4.64245 4.50991 4.66003 4.52749C4.67761 4.54507 4.68749 4.56892 4.68749 4.59378C4.68729 4.76777 4.61809 4.93457 4.49506 5.0576C4.37203 5.18063 4.20523 5.24983 4.03124 5.25003Z" fill="#B745B6"/>
</g>
<defs>
<clipPath id="clip0_3_4601">
<rect width="5.76" height="5.76" fill="white" transform="scale(1.04166)"/>
</clipPath>
</defs>
</svg>
