<svg width="10" height="10" viewBox="0 0 10 10" fill="none" xmlns="http://www.w3.org/2000/svg">
<path d="M6.44566 10C5.09783 10 2.97826 9.55435 2.45652 9.18479C2.33696 9.09783 2.27174 8.9674 2.27174 8.82609V4.57609C2.27174 4.44565 2.33696 4.31522 2.43478 4.23913C2.46739 4.21739 3.22826 3.61957 4.02174 3.17392C5.01087 2.63044 5.69566 1.86957 5.8587 1.39131C6.05435 0.804348 6.33696 0 7.22827 0C7.65218 0 8 0.239131 8.18479 0.652174C8.55435 1.5 8.16305 2.67391 7.51087 3.59783C7.94566 3.69565 8.48914 3.83696 8.81522 3.93478C9.41305 4.11957 9.80435 4.55435 9.89131 5.08696C9.9674 5.63044 9.69566 6.18479 9.11957 6.6087C8.69566 7.75 7.9674 9.55435 7.43479 9.84783C7.22827 9.95653 6.86957 10 6.44566 10ZM3.14131 8.56522C3.96739 8.91305 6.51087 9.27174 6.98913 9.08696C7.23914 8.8587 7.88044 7.40218 8.32609 6.17392C8.3587 6.08696 8.41305 6.01087 8.48914 5.95653C8.84783 5.7174 9.03261 5.43479 9.00001 5.19566C8.9674 5 8.79348 4.83696 8.53261 4.75C7.98913 4.57609 6.64131 4.28261 6.61957 4.28261C6.4674 4.25 6.34783 4.14131 6.29348 3.98913C6.23913 3.83696 6.28261 3.67392 6.39131 3.56522C7.36957 2.51087 7.54348 1.43478 7.3587 1C7.31522 0.869566 7.26087 0.869566 7.22827 0.869566C7.01087 0.869566 6.91305 1.02174 6.68479 1.67391C6.42392 2.43478 5.52174 3.34783 4.44566 3.93478C3.92392 4.21739 3.40218 4.59783 3.14131 4.79348V8.56522ZM1.42391 8.86957V4.52174C1.42391 4.13044 1.1087 3.81522 0.717392 3.81522C0.326087 3.81522 0 4.13044 0 4.52174V8.8587C0 9.25001 0.315218 9.56522 0.706522 9.56522C1.09783 9.56522 1.42391 9.25001 1.42391 8.86957Z" fill="#016B57"/>
</svg>
